<?xml version="1.0" encoding="UTF-8" standalone="no"?>

<svg id="svg" version="1.1" xmlns="http://www.w3.org/2000/svg" xmlns:xlink="http://www.w3.org/1999/xlink" width="400" height="400" viewBox="0, 0, 400,400"><g id="svgg"><path id="path0" d="M0.027 11.100 C 0.047 19.425,0.162 21.950,0.487 21.200 C 4.807 11.209,11.454 4.557,21.200 0.473 C 21.932 0.166,19.227 0.047,11.100 0.027 L 0.000 0.000 0.027 11.100 M377.600 0.734 C 388.369 4.757,397.672 16.562,399.190 28.129 C 399.740 32.326,399.737 365.751,399.187 370.000 C 397.372 384.008,384.419 397.253,370.665 399.166 C 366.322 399.770,31.756 399.781,27.415 399.177 C 16.752 397.694,3.863 387.192,0.810 377.500 C 0.036 375.040,0.000 375.502,0.000 388.000 L 0.000 400.000 200.000 400.000 L 400.000 400.000 400.000 200.000 L 400.000 0.000 387.900 0.031 C 376.101 0.061,375.845 0.079,377.600 0.734 M94.813 82.026 C 87.685 83.892,83.430 88.394,81.795 95.800 C 81.248 98.278,81.190 106.758,81.288 169.600 L 81.400 240.600 82.467 243.520 C 84.973 250.379,89.928 254.187,97.656 255.194 C 102.776 255.862,300.774 255.551,303.154 254.872 C 310.143 252.878,314.874 247.862,316.352 240.880 C 317.111 237.290,316.964 98.545,316.197 95.292 C 314.525 88.202,310.184 83.837,302.966 81.991 C 298.139 80.757,99.534 80.790,94.813 82.026 M283.133 108.617 C 287.195 109.823,289.342 112.715,290.026 117.901 C 290.291 119.911,290.393 138.566,290.317 171.000 L 290.200 221.000 289.051 223.340 C 287.732 226.027,285.658 227.596,282.275 228.466 C 278.579 229.417,118.172 229.238,115.069 228.280 C 112.034 227.342,109.472 225.026,108.615 222.444 C 107.584 219.342,107.876 116.120,108.921 113.800 C 110.213 110.933,112.372 109.170,115.487 108.437 C 118.465 107.735,280.752 107.910,283.133 108.617 M138.863 136.383 C 135.977 137.098,136.019 136.624,136.019 168.200 C 136.019 204.263,134.707 200.547,147.510 200.729 C 158.263 200.883,159.614 200.733,161.325 199.205 L 162.600 198.066 162.600 168.694 C 162.600 136.929,162.663 137.870,160.456 136.755 C 159.228 136.135,141.121 135.823,138.863 136.383 M194.600 136.191 C 194.380 136.267,193.708 136.438,193.107 136.571 C 190.749 137.090,190.800 136.390,190.800 168.120 C 190.800 198.716,190.819 199.047,192.680 200.043 C 194.452 200.991,259.040 200.859,260.498 199.904 C 262.349 198.691,262.396 197.916,262.396 168.400 C 262.396 138.885,262.349 138.109,260.498 136.896 C 259.527 136.260,196.343 135.584,194.600 136.191 M159.200 291.126 C 151.257 293.202,146.727 298.998,146.459 307.427 C 146.288 312.802,146.968 314.657,149.599 315.999 C 151.171 316.801,151.670 316.808,199.493 316.705 L 247.800 316.600 249.106 315.668 C 251.790 313.754,252.628 309.661,251.435 304.298 C 249.892 297.366,245.218 292.632,238.308 291.003 C 234.263 290.049,162.894 290.160,159.200 291.126 " stroke="none" fill="#f9fafc" fill-rule="evenodd"></path><path id="path1" d="M30.800 0.388 C 30.800 0.930,26.705 3.491,24.363 4.414 C 15.527 7.897,10.108 12.948,5.923 21.600 C 4.805 23.910,3.421 26.765,2.846 27.944 C 2.271 29.124,1.395 30.410,0.900 30.802 L -0.000 31.515 -0.000 198.977 L -0.000 366.438 1.001 367.319 C 1.552 367.804,3.141 370.730,4.531 373.822 C 9.775 385.481,16.750 391.625,27.800 394.318 C 32.262 395.405,365.254 395.369,370.400 394.281 C 381.326 391.971,390.942 382.992,393.594 372.625 C 395.255 366.129,395.232 368.793,395.114 197.000 L 395.000 31.000 394.061 27.200 C 391.812 18.092,385.472 9.861,378.000 6.347 C 371.232 3.164,368.774 1.868,367.807 0.972 L 366.759 0.000 198.779 0.000 C 90.610 0.000,30.800 0.138,30.800 0.388 M301.950 76.817 C 310.741 77.920,317.884 83.817,320.498 92.130 L 321.400 95.000 321.400 168.600 L 321.400 242.200 320.465 244.800 C 317.657 252.607,311.515 257.981,303.200 259.906 C 298.560 260.980,99.440 260.980,94.800 259.906 C 86.256 257.928,80.054 252.302,77.487 244.200 L 76.600 241.400 76.600 168.600 C 76.600 110.860,76.706 95.350,77.112 93.625 C 79.168 84.888,86.972 77.861,95.756 76.836 C 100.106 76.328,297.907 76.311,301.950 76.817 M116.533 113.239 C 112.520 114.401,112.746 110.881,112.883 170.131 L 113.000 220.862 114.445 222.186 C 116.958 224.488,113.596 224.400,198.800 224.400 C 278.890 224.400,280.083 224.379,282.893 222.945 C 285.357 221.687,285.222 225.026,285.106 168.041 L 285.000 116.064 284.000 114.981 C 281.857 112.658,287.367 112.797,199.113 112.836 C 151.123 112.857,117.281 113.022,116.533 113.239 M163.594 132.619 C 164.361 133.070,165.531 134.210,166.194 135.154 L 167.400 136.869 167.400 168.400 L 167.400 199.931 166.182 201.666 C 163.680 205.229,163.033 205.383,149.926 205.522 C 137.183 205.658,135.800 205.480,133.760 203.440 C 131.563 201.243,131.577 201.482,131.693 167.260 C 131.815 131.379,131.508 134.398,135.223 132.485 C 137.816 131.151,161.283 131.261,163.594 132.619 M262.061 132.010 C 264.184 132.600,266.219 135.032,266.787 137.659 C 267.122 139.204,267.216 148.102,267.125 169.600 L 267.000 199.400 266.118 201.050 C 263.585 205.784,265.230 205.596,226.400 205.596 C 187.246 205.596,188.565 205.765,186.526 200.481 C 185.576 198.021,185.389 139.358,186.323 136.725 C 187.076 134.600,188.304 133.205,190.169 132.359 C 192.067 131.496,259.042 131.172,262.061 132.010 M241.000 286.522 C 251.237 290.112,256.800 297.958,256.800 308.805 C 256.800 314.582,254.895 318.255,250.752 320.465 L 249.000 321.400 200.029 321.508 C 156.507 321.604,150.818 321.546,148.898 320.988 C 137.630 317.712,138.926 297.373,150.905 289.493 C 157.342 285.259,157.164 285.274,201.000 285.342 L 237.800 285.400 241.000 286.522 " stroke="none" fill="#148cec" fill-rule="evenodd"></path><path id="path2" d="M24.640 0.335 C 24.526 0.519,22.546 1.619,20.240 2.780 C 12.303 6.773,5.860 13.622,1.971 22.200 C 1.337 23.598,0.634 24.855,0.409 24.994 C 0.184 25.133,-0.000 25.771,-0.000 26.411 C 0.000 28.300,0.885 27.475,2.524 24.057 C 7.575 13.518,12.804 8.002,22.237 3.262 C 26.906 0.916,27.983 0.000,26.073 0.000 C 25.399 0.000,24.754 0.151,24.640 0.335 M371.283 0.449 C 371.365 0.696,373.315 1.884,375.616 3.089 C 389.450 10.332,395.583 19.370,396.837 34.363 C 397.082 37.292,397.180 99.261,397.104 202.600 L 396.982 366.200 396.124 369.803 C 392.332 385.729,381.070 395.435,364.800 396.801 C 358.493 397.331,39.856 397.325,33.462 396.795 C 19.229 395.616,9.670 388.774,2.946 374.953 C 0.889 370.724,-0.000 369.658,-0.000 371.420 C -0.000 372.034,0.239 372.821,0.531 373.169 C 0.823 373.516,1.446 374.751,1.914 375.913 C 6.836 388.116,19.512 397.205,32.800 398.057 C 45.018 398.840,368.665 398.293,371.364 397.485 C 386.799 392.862,396.777 380.922,398.011 365.600 C 398.499 359.537,398.500 39.046,398.012 32.600 C 397.003 19.271,389.013 7.897,376.646 2.183 C 374.995 1.420,373.534 0.617,373.399 0.398 C 373.057 -0.155,371.097 -0.108,371.283 0.449 M97.000 78.250 C 96.560 78.337,95.210 78.605,94.000 78.846 C 86.998 80.240,80.594 86.603,78.749 94.000 C 77.773 97.911,77.951 240.187,78.935 243.400 C 81.283 251.059,86.972 256.332,95.000 258.287 C 98.436 259.124,287.580 259.617,297.448 258.814 C 309.131 257.865,315.640 253.486,318.874 244.400 L 319.800 241.800 319.906 169.705 C 319.999 106.790,319.936 97.240,319.411 94.705 C 317.666 86.285,311.304 80.079,302.874 78.576 C 299.990 78.062,99.568 77.745,97.000 78.250 M304.400 80.145 C 311.239 82.459,315.345 86.386,317.677 92.845 L 318.600 95.400 318.715 166.800 C 318.798 217.546,318.703 238.947,318.389 240.783 C 317.016 248.816,311.330 254.832,303.200 256.853 C 299.908 257.672,98.070 257.668,94.800 256.849 C 87.596 255.046,82.635 250.476,80.368 243.557 L 79.400 240.600 79.400 168.400 C 79.400 99.449,79.433 96.093,80.135 93.817 C 82.587 85.873,88.135 80.998,96.305 79.610 C 100.902 78.830,302.041 79.346,304.400 80.145 M115.448 110.493 C 113.292 111.064,111.040 113.422,110.463 115.714 C 109.559 119.307,109.845 220.219,110.765 222.246 C 111.612 224.110,113.447 225.642,115.800 226.450 C 118.624 227.420,279.878 227.252,282.675 226.276 C 285.181 225.402,287.416 223.103,287.877 220.924 C 288.485 218.055,288.275 117.211,287.658 115.466 C 286.804 113.052,285.006 111.292,282.690 110.604 C 280.181 109.859,118.250 109.752,115.448 110.493 M281.711 111.624 C 283.768 112.195,285.894 114.154,286.388 115.933 C 287.239 118.995,286.923 220.380,286.058 222.006 C 283.816 226.220,288.614 226.001,198.567 225.994 C 108.649 225.987,115.231 226.272,112.225 222.246 C 111.267 220.963,110.685 119.799,111.615 116.344 C 112.170 114.284,113.808 112.505,115.800 111.801 C 117.836 111.081,279.136 110.909,281.711 111.624 M136.108 133.782 C 133.040 135.142,133.203 133.208,133.202 168.200 C 133.201 203.571,133.003 201.395,136.385 203.100 C 138.107 203.969,138.546 203.999,148.985 203.982 C 167.642 203.952,165.982 207.426,165.982 168.400 C 165.982 135.072,166.099 136.466,163.147 134.360 C 161.448 133.149,138.636 132.661,136.108 133.782 M190.828 133.897 C 187.564 135.570,187.800 132.884,187.800 168.400 C 187.800 204.221,187.504 201.207,191.208 203.100 L 192.970 204.000 226.185 203.998 C 262.039 203.995,261.596 204.021,263.550 201.796 C 265.629 199.428,265.628 199.440,265.510 167.520 C 265.388 134.422,265.556 136.392,262.671 134.242 C 261.040 133.026,193.163 132.700,190.828 133.897 M161.572 135.101 C 164.829 136.762,164.600 134.251,164.600 168.329 L 164.600 198.600 163.668 199.906 C 161.830 202.483,161.320 202.587,149.800 202.723 C 138.001 202.863,136.818 202.675,135.307 200.430 L 134.386 199.061 134.493 167.972 C 134.611 133.646,134.447 135.823,137.000 134.778 C 138.752 134.061,160.082 134.341,161.572 135.101 M261.409 135.031 C 264.291 136.399,264.187 135.244,264.313 167.175 C 264.450 201.997,264.476 201.822,259.117 202.593 C 253.843 203.351,192.468 202.607,191.329 201.772 C 188.666 199.818,188.782 201.428,188.897 167.929 C 189.012 134.261,188.839 136.345,191.639 134.906 C 193.263 134.071,259.636 134.190,261.409 135.031 M161.909 287.210 C 150.417 288.586,143.091 296.730,143.027 308.200 C 142.993 314.302,144.256 316.978,148.192 319.137 C 149.643 319.933,245.491 320.383,248.372 319.607 C 259.441 316.627,256.537 295.703,244.213 289.636 C 238.657 286.901,240.827 287.035,200.800 286.957 C 180.890 286.919,163.389 287.033,161.909 287.210 M238.704 289.002 C 249.852 291.631,257.508 305.262,252.884 314.250 C 250.383 319.111,253.837 318.829,198.334 318.706 C 143.841 318.586,148.375 318.875,145.895 315.364 C 139.933 306.924,147.616 291.808,159.309 288.975 C 162.639 288.168,235.271 288.193,238.704 289.002 " stroke="none" fill="#5eb1ef" fill-rule="evenodd"></path><path id="path3" d="M19.540 1.167 C 10.401 4.981,-0.000 17.102,-0.000 23.937 C -0.000 25.755,0.598 25.228,1.971 22.200 C 5.860 13.622,12.303 6.773,20.240 2.780 C 26.094 -0.166,25.578 -1.354,19.540 1.167 M373.399 0.398 C 373.534 0.617,374.995 1.420,376.646 2.183 C 389.013 7.897,397.003 19.271,398.012 32.600 C 398.500 39.046,398.499 359.537,398.011 365.600 C 396.777 380.922,386.799 392.862,371.364 397.485 C 368.665 398.293,45.018 398.840,32.800 398.057 C 19.512 397.205,6.810 388.096,1.918 375.913 C 0.708 372.898,0.000 372.207,0.000 374.038 C 0.000 383.464,15.297 397.491,27.415 399.177 C 31.756 399.781,366.322 399.770,370.665 399.166 C 384.419 397.253,397.372 384.008,399.187 370.000 C 399.737 365.751,399.740 32.326,399.190 28.129 C 397.672 16.562,388.369 4.757,377.600 0.734 C 375.583 -0.019,373.014 -0.224,373.399 0.398 M96.305 79.610 C 88.135 80.998,82.587 85.873,80.135 93.817 C 79.433 96.093,79.400 99.449,79.400 168.400 L 79.400 240.600 80.368 243.557 C 82.635 250.476,87.596 255.046,94.800 256.849 C 98.070 257.668,299.908 257.672,303.200 256.853 C 311.330 254.832,317.016 248.816,318.389 240.783 C 318.703 238.947,318.798 217.546,318.715 166.800 L 318.600 95.400 317.677 92.845 C 315.345 86.386,311.239 82.459,304.400 80.145 C 302.041 79.346,100.902 78.830,96.305 79.610 M302.966 81.991 C 310.184 83.837,314.525 88.202,316.197 95.292 C 316.964 98.545,317.111 237.290,316.352 240.880 C 314.874 247.862,310.143 252.878,303.154 254.872 C 300.774 255.551,102.776 255.862,97.656 255.194 C 89.928 254.187,84.973 250.379,82.467 243.520 L 81.400 240.600 81.288 169.600 C 81.190 106.758,81.248 98.278,81.795 95.800 C 83.430 88.394,87.685 83.892,94.813 82.026 C 99.534 80.790,298.139 80.757,302.966 81.991 M115.487 108.437 C 112.372 109.170,110.213 110.933,108.921 113.800 C 107.876 116.120,107.584 219.342,108.615 222.444 C 109.472 225.026,112.034 227.342,115.069 228.280 C 118.172 229.238,278.579 229.417,282.275 228.466 C 285.658 227.596,287.732 226.027,289.051 223.340 L 290.200 221.000 290.317 171.000 C 290.393 138.566,290.291 119.911,290.026 117.901 C 289.342 112.715,287.195 109.823,283.133 108.617 C 280.752 107.910,118.465 107.735,115.487 108.437 M282.690 110.604 C 285.006 111.292,286.804 113.052,287.658 115.466 C 288.275 117.211,288.485 218.055,287.877 220.924 C 287.416 223.103,285.181 225.402,282.675 226.276 C 279.878 227.252,118.624 227.420,115.800 226.450 C 113.447 225.642,111.612 224.110,110.765 222.246 C 109.845 220.219,109.559 119.307,110.463 115.714 C 111.040 113.422,113.292 111.064,115.448 110.493 C 118.250 109.752,280.181 109.859,282.690 110.604 M137.000 134.778 C 134.447 135.823,134.611 133.646,134.493 167.972 L 134.386 199.061 135.307 200.430 C 136.818 202.675,138.001 202.863,149.800 202.723 C 161.320 202.587,161.830 202.483,163.668 199.906 L 164.600 198.600 164.600 168.329 C 164.600 134.251,164.829 136.762,161.572 135.101 C 160.082 134.341,138.752 134.061,137.000 134.778 M191.639 134.906 C 188.839 136.345,189.012 134.261,188.897 167.929 C 188.782 201.428,188.666 199.818,191.329 201.772 C 192.468 202.607,253.843 203.351,259.117 202.593 C 264.476 201.822,264.450 201.997,264.313 167.175 C 264.187 135.244,264.291 136.399,261.409 135.031 C 259.636 134.190,193.263 134.071,191.639 134.906 M160.456 136.755 C 162.663 137.870,162.600 136.929,162.600 168.694 L 162.600 198.066 161.325 199.205 C 159.614 200.733,158.263 200.883,147.510 200.729 C 134.707 200.547,136.019 204.263,136.019 168.200 C 136.019 142.220,136.168 138.072,137.132 137.108 C 138.315 135.925,158.215 135.623,160.456 136.755 M260.498 136.896 C 262.349 138.109,262.396 138.885,262.396 168.400 C 262.396 197.916,262.349 198.691,260.498 199.904 C 259.040 200.859,194.452 200.991,192.680 200.043 C 190.819 199.047,190.800 198.716,190.800 168.120 C 190.800 136.390,190.749 137.090,193.107 136.571 C 193.708 136.438,194.380 136.267,194.600 136.191 C 196.343 135.584,259.527 136.260,260.498 136.896 M159.309 288.975 C 147.616 291.808,139.933 306.924,145.895 315.364 C 148.375 318.875,143.841 318.586,198.334 318.706 C 253.837 318.829,250.383 319.111,252.884 314.250 C 257.508 305.262,249.852 291.631,238.704 289.002 C 235.271 288.193,162.639 288.168,159.309 288.975 M238.308 291.003 C 245.218 292.632,249.892 297.366,251.435 304.298 C 252.628 309.661,251.790 313.754,249.106 315.668 L 247.800 316.600 199.493 316.705 C 151.670 316.808,151.171 316.801,149.599 315.999 C 146.968 314.657,146.288 312.802,146.459 307.427 C 146.727 298.998,151.257 293.202,159.200 291.126 C 162.894 290.160,234.263 290.049,238.308 291.003 " stroke="none" fill="#99ccf4" fill-rule="evenodd"></path><path id="path4" d="M26.786 0.617 C 26.505 0.956,24.458 2.146,22.237 3.262 C 12.894 7.957,8.138 12.886,2.939 23.260 C 1.908 25.317,0.825 27.144,0.532 27.320 C -0.051 27.670,-0.227 31.200,0.338 31.200 C 1.187 31.200,1.813 30.125,5.927 21.600 C 10.099 12.956,15.524 7.898,24.363 4.414 C 26.705 3.491,30.800 0.930,30.800 0.388 C 30.800 -0.263,27.353 -0.067,26.786 0.617 M367.200 0.382 C 367.200 0.939,372.060 3.699,376.074 5.421 C 384.905 9.210,391.628 17.350,394.061 27.200 L 395.000 31.000 395.114 197.000 C 395.232 368.793,395.255 366.129,393.594 372.625 C 390.942 382.992,381.326 391.971,370.400 394.281 C 365.254 395.369,32.262 395.405,27.800 394.318 C 16.770 391.630,9.793 385.495,4.538 373.862 C 1.249 366.582,0.000 365.120,0.000 368.551 C 0.000 369.583,0.235 370.497,0.573 370.778 C 0.889 371.040,1.957 372.918,2.946 374.953 C 9.670 388.774,19.229 395.616,33.462 396.795 C 39.856 397.325,358.493 397.331,364.800 396.801 C 381.070 395.435,392.332 385.729,396.124 369.803 L 396.982 366.200 397.104 202.600 C 397.180 99.261,397.082 37.292,396.837 34.363 C 395.600 19.577,389.418 10.309,376.200 3.422 C 373.780 2.161,371.600 0.875,371.356 0.565 C 370.855 -0.073,367.200 -0.233,367.200 0.382 M95.756 76.836 C 86.972 77.861,79.168 84.888,77.112 93.625 C 76.706 95.350,76.600 110.860,76.600 168.600 L 76.600 241.400 77.487 244.200 C 80.054 252.302,86.256 257.928,94.800 259.906 C 99.440 260.980,298.560 260.980,303.200 259.906 C 311.515 257.981,317.657 252.607,320.465 244.800 L 321.400 242.200 321.400 168.600 L 321.400 95.000 320.498 92.130 C 317.884 83.817,310.741 77.920,301.950 76.817 C 297.907 76.311,100.106 76.328,95.756 76.836 M302.874 78.576 C 311.304 80.079,317.666 86.285,319.411 94.705 C 319.936 97.240,319.999 106.790,319.906 169.705 L 319.800 241.800 318.874 244.400 C 315.640 253.486,309.131 257.865,297.448 258.814 C 287.580 259.617,98.436 259.124,95.000 258.287 C 86.972 256.332,81.283 251.059,78.935 243.400 C 77.951 240.187,77.773 97.911,78.749 94.000 C 80.594 86.603,86.998 80.240,94.000 78.846 C 95.210 78.605,96.560 78.337,97.000 78.250 C 99.568 77.745,299.990 78.062,302.874 78.576 M115.800 111.801 C 113.808 112.505,112.170 114.284,111.615 116.344 C 110.685 119.799,111.267 220.963,112.225 222.246 C 115.231 226.272,108.649 225.987,198.567 225.994 C 288.614 226.001,283.816 226.220,286.058 222.006 C 286.923 220.380,287.239 118.995,286.388 115.933 C 285.894 114.154,283.768 112.195,281.711 111.624 C 279.136 110.909,117.836 111.081,115.800 111.801 M281.713 113.348 C 282.421 113.650,283.450 114.385,284.000 114.981 L 285.000 116.064 285.106 168.041 C 285.222 225.026,285.357 221.687,282.893 222.945 C 280.083 224.379,278.890 224.400,198.800 224.400 C 113.596 224.400,116.958 224.488,114.445 222.186 L 113.000 220.862 112.883 170.131 C 112.746 110.881,112.520 114.401,116.533 113.239 C 118.789 112.586,280.174 112.693,281.713 113.348 M135.223 132.485 C 131.508 134.398,131.815 131.379,131.693 167.260 C 131.577 201.482,131.563 201.243,133.760 203.440 C 135.800 205.480,137.183 205.658,149.926 205.522 C 163.033 205.383,163.680 205.229,166.182 201.666 L 167.400 199.931 167.400 168.400 L 167.400 136.869 166.194 135.154 C 163.841 131.805,163.889 131.815,149.600 131.685 C 137.148 131.572,136.979 131.582,135.223 132.485 M190.169 132.359 C 188.304 133.205,187.076 134.600,186.323 136.725 C 185.389 139.358,185.576 198.021,186.526 200.481 C 188.565 205.765,187.246 205.596,226.400 205.596 C 265.230 205.596,263.585 205.784,266.118 201.050 L 267.000 199.400 267.125 169.600 C 267.264 136.631,267.259 136.553,264.923 133.967 C 262.736 131.547,263.668 131.604,226.200 131.611 C 193.575 131.617,191.716 131.656,190.169 132.359 M163.147 134.360 C 166.099 136.466,165.982 135.072,165.982 168.400 C 165.982 207.426,167.642 203.952,148.985 203.982 C 136.660 204.002,135.364 203.729,133.901 200.800 C 132.734 198.464,132.835 137.603,134.009 135.677 C 135.466 133.288,136.057 133.198,149.600 133.304 C 161.767 133.400,161.804 133.403,163.147 134.360 M262.671 134.242 C 265.556 136.392,265.388 134.422,265.510 167.520 C 265.628 199.440,265.629 199.428,263.550 201.796 C 261.596 204.021,262.039 203.995,226.185 203.998 L 192.970 204.000 191.208 203.100 C 187.504 201.207,187.800 204.221,187.800 168.400 C 187.800 132.884,187.564 135.570,190.828 133.897 C 193.163 132.700,261.040 133.026,262.671 134.242 M161.293 285.632 C 149.311 287.065,141.392 296.132,141.406 308.400 C 141.413 314.234,142.034 316.024,145.005 318.762 C 148.288 321.788,145.091 321.629,200.029 321.508 L 249.000 321.400 250.752 320.465 C 254.895 318.255,256.800 314.582,256.800 308.805 C 256.800 297.958,251.237 290.112,241.000 286.522 L 237.800 285.400 201.000 285.342 C 180.760 285.311,162.892 285.441,161.293 285.632 M239.386 287.731 C 249.509 290.716,255.000 297.985,255.000 308.400 C 255.000 315.076,253.068 318.343,248.372 319.607 C 245.491 320.383,149.643 319.933,148.192 319.137 C 144.256 316.978,142.993 314.302,143.027 308.200 C 143.091 296.730,150.417 288.586,161.909 287.210 C 167.860 286.497,236.773 286.961,239.386 287.731 " stroke="none" fill="#389cec" fill-rule="evenodd"></path></g></svg>