
<svg id="svg" version="1.1" xmlns="http://www.w3.org/2000/svg" xmlns:xlink="http://www.w3.org/1999/xlink" width="400" height="393.75" viewBox="0, 0, 400,393.75"><g id="svgg"><path id="path0" d="M0.000 197.044 L 0.000 394.089 12.301 394.089 C 25.404 394.089,25.955 393.987,21.726 392.357 C 12.606 388.840,5.053 379.263,2.447 367.912 C 1.663 364.499,1.180 37.235,1.949 30.501 C 3.243 19.161,8.716 10.007,17.760 4.056 C 19.805 2.710,21.921 1.254,22.463 0.819 L 23.448 0.028 11.724 0.014 L 0.000 0.000 0.000 197.044 M376.762 0.296 C 376.769 0.458,378.577 1.744,380.779 3.153 C 390.105 9.120,393.419 13.547,396.740 24.471 L 398.227 29.360 398.343 194.089 C 398.463 364.585,398.465 364.370,396.841 370.571 C 394.367 380.015,387.244 388.301,378.135 392.329 C 374.319 394.016,374.715 394.089,387.760 394.089 L 400.000 394.089 400.000 197.044 L 400.000 0.000 388.374 0.000 C 381.980 0.000,376.755 0.133,376.762 0.296 M107.200 81.675 C 103.228 83.705,103.159 84.206,103.348 109.698 C 103.481 127.650,103.585 130.541,104.177 132.581 C 106.194 139.542,111.631 144.634,119.409 146.849 C 123.622 148.049,275.660 148.189,280.384 146.997 C 288.229 145.017,293.690 139.919,295.826 132.581 C 296.421 130.539,296.524 127.715,296.653 110.017 C 296.876 79.452,297.602 81.051,283.420 80.872 C 269.473 80.696,269.295 80.869,268.819 95.036 C 268.493 104.752,268.241 105.781,265.485 108.681 C 262.156 112.184,252.720 112.827,246.851 109.952 C 242.419 107.781,241.642 105.673,241.187 94.601 C 240.628 80.966,240.447 80.788,227.070 80.788 C 214.289 80.788,213.601 81.301,213.589 90.831 C 213.573 103.979,212.084 108.444,207.092 110.312 C 199.932 112.990,191.925 111.563,188.992 107.085 C 187.050 104.121,186.769 102.552,186.472 93.048 C 186.085 80.630,186.264 80.788,172.583 80.788 C 159.586 80.788,159.326 81.049,158.809 94.581 C 158.493 102.854,158.135 104.878,156.567 107.247 C 152.973 112.678,138.782 113.408,134.253 108.396 C 131.562 105.416,131.497 105.141,131.192 95.264 C 130.752 81.034,130.516 80.788,117.241 80.788 C 109.405 80.788,108.837 80.838,107.200 81.675 M132.098 176.814 C 130.273 177.717,129.694 179.106,129.036 184.162 C 128.720 186.587,128.030 190.877,127.502 193.695 C 126.974 196.512,126.256 201.478,125.907 204.729 C 125.558 207.980,124.850 212.946,124.335 215.764 C 123.819 218.581,123.110 223.547,122.758 226.798 C 122.407 230.049,121.702 235.015,121.193 237.833 C 120.683 240.650,120.061 244.818,119.810 247.094 C 119.559 249.369,118.845 254.246,118.224 257.931 C 117.603 261.616,116.810 267.161,116.463 270.253 C 116.116 273.345,115.482 277.779,115.054 280.105 C 114.627 282.432,113.921 287.350,113.487 291.034 C 113.052 294.719,112.415 299.237,112.071 301.073 C 110.793 307.905,111.657 310.551,115.838 312.612 L 117.635 313.498 143.054 313.498 C 178.963 313.498,175.458 316.535,175.794 285.123 C 176.062 260.055,176.008 260.417,180.528 253.746 C 191.759 237.172,217.059 240.930,223.289 260.099 C 223.919 262.036,224.019 264.613,224.227 284.335 C 224.570 316.691,221.009 313.498,256.749 313.498 C 290.404 313.498,289.825 313.698,287.896 302.741 C 287.580 300.943,286.954 296.332,286.506 292.494 C 286.058 288.657,285.356 283.744,284.946 281.576 C 284.536 279.409,283.907 275.064,283.548 271.921 C 283.190 268.778,282.471 263.724,281.952 260.690 C 281.432 257.655,280.730 252.778,280.391 249.852 C 280.052 246.926,279.261 241.340,278.634 237.438 C 278.007 233.537,277.293 228.483,277.047 226.207 C 276.802 223.931,276.171 219.539,275.644 216.446 C 275.117 213.354,274.418 208.477,274.091 205.609 C 273.764 202.741,273.054 197.734,272.513 194.483 C 271.972 191.232,271.277 186.615,270.968 184.224 C 270.334 179.322,269.881 178.048,268.412 177.050 C 266.885 176.012,134.182 175.783,132.098 176.814 " stroke="none" fill="#fcf9f9" fill-rule="evenodd"></path><path id="path1" d="M33.747 0.887 C 33.408 2.196,31.113 3.557,27.467 4.611 C 18.063 7.329,9.999 15.501,8.296 24.039 C 8.015 25.448,7.319 28.197,6.750 30.148 L 5.714 33.695 5.714 197.241 L 5.714 360.788 6.570 363.547 C 7.041 365.064,7.717 367.886,8.073 369.818 C 9.531 377.738,17.656 386.683,25.062 388.520 C 31.691 390.165,34.286 391.574,34.286 393.528 C 34.286 394.012,56.928 394.089,199.973 394.089 L 365.659 394.089 365.785 393.242 C 366.018 391.681,368.418 390.239,372.586 389.158 C 382.138 386.679,390.338 378.519,391.892 369.944 C 392.254 367.943,392.941 365.064,393.418 363.547 L 394.286 360.788 394.286 197.241 L 394.286 33.695 393.414 31.133 C 392.934 29.724,392.196 26.848,391.773 24.742 C 389.933 15.577,382.166 7.463,372.611 4.720 C 369.222 3.747,367.101 2.455,366.412 0.945 L 365.982 0.000 199.979 0.000 L 33.977 0.000 33.747 0.887 M127.926 76.641 C 130.676 77.458,132.918 79.523,134.466 82.667 L 135.764 85.301 135.992 93.981 C 136.316 106.291,136.943 107.186,145.222 107.165 C 152.998 107.146,153.730 106.059,154.094 93.990 C 154.582 77.812,156.049 76.327,171.735 76.133 C 189.190 75.917,190.960 77.483,191.491 93.605 C 191.894 105.824,192.620 106.965,200.000 106.985 C 207.396 107.004,208.084 105.922,208.502 93.596 C 209.048 77.468,210.793 75.910,228.072 76.128 C 239.620 76.274,239.455 76.234,242.474 79.592 C 245.267 82.698,245.572 83.988,245.882 93.990 C 246.262 106.289,246.770 106.995,255.241 106.995 C 263.195 106.995,263.708 106.224,264.033 93.793 C 264.278 84.391,264.672 82.788,267.545 79.516 C 270.233 76.454,271.169 76.256,282.956 76.256 C 295.862 76.256,297.004 76.688,300.156 82.759 L 301.281 84.926 301.392 107.503 L 301.503 130.081 300.267 133.710 C 296.676 144.256,289.160 150.817,279.156 152.139 C 273.483 152.888,120.849 152.436,118.424 151.662 C 106.880 147.980,99.976 139.881,98.526 128.321 C 98.013 124.226,98.021 90.503,98.536 86.938 C 99.217 82.229,102.034 78.341,105.841 76.854 C 108.429 75.844,124.712 75.687,127.926 76.641 M269.754 172.476 C 273.947 174.739,276.381 182.149,277.240 195.271 C 277.382 197.438,277.759 200.453,278.078 201.970 C 279.280 207.697,279.808 211.222,280.376 217.340 C 280.699 220.808,281.146 224.266,281.371 225.025 C 282.107 227.512,282.932 232.995,283.534 239.409 C 283.859 242.877,284.392 246.690,284.717 247.882 C 285.447 250.553,286.363 257.077,286.709 262.069 C 286.852 264.128,287.311 267.271,287.729 269.053 C 288.629 272.890,289.500 279.012,289.846 283.941 C 289.984 285.892,290.443 289.030,290.867 290.915 C 294.440 306.783,293.495 313.649,287.291 316.902 L 285.517 317.833 257.978 317.944 C 224.802 318.078,225.266 318.155,221.681 311.944 C 219.797 308.679,219.777 308.422,219.537 284.510 L 219.310 261.829 217.798 258.770 C 211.249 245.523,192.418 244.245,184.274 256.495 C 180.427 262.282,180.720 260.082,180.465 285.123 C 180.196 311.565,180.164 311.734,174.677 315.920 C 171.923 318.020,171.262 318.061,142.053 317.942 L 115.271 317.833 113.578 316.929 C 106.598 313.202,105.471 307.136,108.802 291.232 C 109.233 289.172,109.927 284.296,110.343 280.394 C 110.760 276.493,111.537 270.995,112.070 268.177 C 112.603 265.360,113.323 260.284,113.669 256.897 C 114.015 253.511,114.641 249.432,115.059 247.833 C 115.477 246.234,116.100 242.089,116.443 238.621 C 117.125 231.720,117.623 228.337,118.441 225.025 C 118.736 223.833,119.257 220.020,119.598 216.552 C 120.279 209.638,120.776 206.257,121.598 202.956 C 121.894 201.764,122.405 198.039,122.732 194.680 C 124.179 179.846,126.060 174.536,130.640 172.365 L 132.611 171.431 200.394 171.529 L 268.177 171.626 269.754 172.476 " stroke="none" fill="#f47474" fill-rule="evenodd"></path><path id="path2" d="M22.463 0.819 C 21.921 1.254,19.805 2.710,17.760 4.056 C 8.716 10.007,3.243 19.161,1.949 30.501 C 1.180 37.235,1.663 364.499,2.447 367.912 C 5.053 379.263,12.585 388.815,21.726 392.361 C 22.673 392.728,23.728 393.267,24.070 393.559 C 24.413 393.850,25.548 394.089,26.595 394.089 C 29.208 394.089,28.198 392.911,24.541 391.694 C 14.808 388.455,7.436 380.059,4.639 369.026 L 3.350 363.941 3.247 198.030 L 3.145 32.118 4.133 28.177 C 6.557 18.510,8.446 14.548,12.723 10.164 C 14.579 8.262,21.272 3.482,23.547 2.433 C 25.469 1.547,26.798 0.675,26.798 0.299 C 26.798 -0.359,23.428 0.045,22.463 0.819 M373.229 0.623 C 373.513 0.966,374.821 1.789,376.134 2.452 C 387.414 8.144,392.124 13.979,395.254 26.139 L 396.847 32.332 396.847 197.081 L 396.847 361.830 395.625 367.412 C 392.882 379.934,385.528 388.454,374.333 392.079 C 371.600 392.964,371.140 394.089,373.512 394.089 C 374.616 394.089,375.635 393.902,375.777 393.674 C 375.918 393.445,376.979 392.840,378.135 392.329 C 387.244 388.301,394.367 380.015,396.841 370.571 C 398.465 364.370,398.463 364.585,398.343 194.089 L 398.227 29.360 396.740 24.471 C 393.444 13.629,390.273 9.346,381.084 3.328 C 378.808 1.837,376.887 0.479,376.814 0.309 C 376.742 0.139,375.789 0.000,374.697 0.000 C 372.931 0.000,372.769 0.069,373.229 0.623 M108.571 79.186 C 105.577 79.915,103.245 81.954,102.281 84.686 C 101.355 87.310,101.381 127.599,102.311 131.745 C 104.104 139.735,108.927 144.895,117.628 148.133 L 120.394 149.163 199.747 149.266 L 279.099 149.369 282.411 148.227 C 290.424 145.465,295.013 140.788,297.392 132.957 L 298.455 129.458 298.625 111.328 C 298.934 78.567,298.936 78.572,281.533 78.887 C 268.526 79.122,267.624 80.089,267.191 94.252 C 266.779 107.700,265.007 109.951,254.830 109.951 C 245.419 109.951,243.520 107.617,243.122 95.567 C 242.603 79.871,241.365 78.648,226.241 78.887 C 212.628 79.103,212.061 79.681,211.619 93.793 C 211.344 102.571,211.133 103.769,209.397 106.414 C 206.229 111.241,193.771 111.241,190.603 106.414 C 188.867 103.769,188.656 102.571,188.381 93.793 C 187.932 79.446,187.478 79.015,172.808 79.015 C 158.317 79.015,156.847 80.549,156.847 95.671 C 156.847 107.168,154.505 109.951,144.828 109.951 C 134.905 109.951,133.181 107.720,132.805 94.384 C 132.483 82.984,131.624 80.966,126.436 79.426 C 124.255 78.778,110.980 78.600,108.571 79.186 M127.306 81.675 C 130.469 83.270,130.864 84.652,131.192 95.264 C 131.497 105.141,131.562 105.416,134.253 108.396 C 138.782 113.408,152.973 112.678,156.567 107.247 C 158.135 104.878,158.493 102.854,158.809 94.581 C 159.326 81.049,159.586 80.788,172.583 80.788 C 186.264 80.788,186.085 80.630,186.472 93.048 C 186.769 102.552,187.050 104.121,188.992 107.085 C 191.925 111.563,199.932 112.990,207.092 110.312 C 212.084 108.444,213.573 103.979,213.589 90.831 C 213.601 81.301,214.289 80.788,227.070 80.788 C 240.447 80.788,240.628 80.966,241.187 94.601 C 241.642 105.673,242.419 107.781,246.851 109.952 C 252.720 112.827,262.156 112.184,265.485 108.681 C 268.241 105.781,268.493 104.752,268.819 95.036 C 269.295 80.869,269.473 80.696,283.420 80.872 C 297.602 81.051,296.876 79.452,296.653 110.017 C 296.524 127.715,296.421 130.539,295.826 132.581 C 293.690 139.919,288.229 145.017,280.384 146.997 C 275.660 148.189,123.622 148.049,119.409 146.849 C 111.631 144.634,106.194 139.542,104.177 132.581 C 103.341 129.698,102.868 90.933,103.619 86.841 C 104.595 81.522,106.247 80.788,117.241 80.788 C 125.071 80.788,125.648 80.839,127.306 81.675 M131.353 175.348 C 128.513 176.638,127.306 181.314,124.736 200.985 C 124.212 204.995,123.344 211.202,122.806 214.778 C 122.268 218.355,121.568 223.232,121.250 225.616 C 120.389 232.075,118.746 243.202,117.437 251.429 C 116.800 255.438,115.916 261.645,115.474 265.222 C 115.032 268.798,114.329 273.675,113.912 276.059 C 113.494 278.443,112.864 282.877,112.512 285.911 C 112.160 288.946,111.508 293.557,111.064 296.158 C 109.201 307.069,109.343 309.427,112.025 312.083 C 115.384 315.408,114.401 315.313,143.991 315.186 C 179.980 315.031,177.334 317.128,177.349 288.754 C 177.359 269.724,177.685 263.206,178.759 260.484 C 186.400 241.135,211.338 239.434,220.481 257.638 C 222.298 261.255,222.355 261.992,222.612 285.123 C 222.977 318.012,219.654 315.030,256.109 315.186 C 285.822 315.313,285.170 315.370,288.227 312.401 C 290.465 310.228,290.644 308.969,289.643 302.445 C 289.212 299.637,288.507 294.768,288.075 291.626 C 287.643 288.483,286.922 283.429,286.473 280.394 C 286.024 277.360,285.313 272.394,284.894 269.360 C 283.932 262.400,283.225 257.431,282.199 250.443 C 281.754 247.409,281.034 242.355,280.598 239.212 C 280.163 236.069,279.464 231.192,279.045 228.374 C 278.626 225.557,277.916 220.591,277.468 217.340 C 277.020 214.089,276.391 209.744,276.070 207.685 C 275.749 205.626,275.132 201.192,274.701 197.833 C 272.388 179.842,271.437 176.444,268.371 175.217 C 265.694 174.146,133.724 174.272,131.353 175.348 M268.412 177.050 C 269.881 178.048,270.334 179.322,270.968 184.224 C 271.277 186.615,271.972 191.232,272.513 194.483 C 273.054 197.734,273.764 202.741,274.091 205.609 C 274.418 208.477,275.117 213.354,275.644 216.446 C 276.171 219.539,276.802 223.931,277.047 226.207 C 277.293 228.483,278.007 233.537,278.634 237.438 C 279.261 241.340,280.052 246.926,280.391 249.852 C 280.730 252.778,281.432 257.655,281.952 260.690 C 282.471 263.724,283.190 268.778,283.548 271.921 C 283.907 275.064,284.536 279.409,284.946 281.576 C 285.356 283.744,286.058 288.657,286.506 292.494 C 286.954 296.332,287.580 300.943,287.896 302.741 C 289.106 309.614,288.301 311.660,283.880 312.943 C 280.661 313.878,232.182 313.750,229.722 312.801 C 224.525 310.795,224.506 310.699,224.227 284.335 C 224.019 264.613,223.919 262.036,223.289 260.099 C 217.059 240.930,191.759 237.172,180.528 253.746 C 176.008 260.417,176.062 260.055,175.794 285.123 C 175.458 316.535,178.963 313.498,143.054 313.498 L 117.635 313.498 115.838 312.612 C 111.657 310.551,110.793 307.905,112.071 301.073 C 112.415 299.237,113.052 294.719,113.487 291.034 C 113.921 287.350,114.627 282.432,115.054 280.105 C 115.482 277.779,116.116 273.345,116.463 270.253 C 116.810 267.161,117.603 261.616,118.224 257.931 C 118.845 254.246,119.559 249.369,119.810 247.094 C 120.061 244.818,120.683 240.650,121.193 237.833 C 121.702 235.015,122.407 230.049,122.758 226.798 C 123.110 223.547,123.819 218.581,124.335 215.764 C 124.850 212.946,125.558 207.980,125.907 204.729 C 126.256 201.478,126.974 196.512,127.502 193.695 C 128.030 190.877,128.720 186.587,129.036 184.162 C 129.694 179.106,130.273 177.717,132.098 176.814 C 134.182 175.783,266.885 176.012,268.412 177.050 " stroke="none" fill="#fcbcbc" fill-rule="evenodd"></path><path id="path3" d="M26.213 0.834 C 25.782 1.267,24.679 1.954,23.761 2.360 C 21.396 3.406,14.694 8.145,12.723 10.164 C 8.446 14.548,6.557 18.510,4.133 28.177 L 3.145 32.118 3.247 198.030 L 3.350 363.941 4.639 369.026 C 7.436 380.059,14.808 388.455,24.541 391.694 C 25.949 392.163,27.415 392.893,27.799 393.317 C 28.489 394.080,30.345 394.399,30.345 393.756 C 30.345 393.008,28.762 392.094,25.430 390.918 C 19.149 388.701,12.862 383.841,9.179 378.357 C 7.277 375.523,6.828 374.226,5.147 366.700 L 3.914 361.182 4.026 196.256 L 4.138 31.330 5.829 25.222 C 8.903 14.125,14.654 7.492,25.184 2.902 C 26.788 2.203,28.468 1.264,28.917 0.815 L 29.732 0.000 28.363 0.023 C 27.544 0.037,26.681 0.363,26.213 0.834 M371.240 0.925 C 371.777 1.433,373.192 2.249,374.384 2.736 C 385.290 7.198,391.332 14.399,394.384 26.574 L 396.059 33.256 396.045 197.219 C 396.034 333.261,395.941 361.585,395.500 363.547 C 395.208 364.847,394.575 367.684,394.092 369.851 C 391.939 379.524,384.488 387.456,374.120 391.111 C 371.159 392.155,369.655 393.046,369.655 393.756 C 369.655 394.400,371.512 394.080,372.203 393.315 C 372.588 392.890,373.547 392.334,374.333 392.079 C 385.528 388.454,392.882 379.934,395.625 367.412 L 396.847 361.830 396.847 197.081 L 396.847 32.332 395.254 26.139 C 393.513 19.375,392.730 17.544,389.713 13.180 C 387.081 9.374,382.185 5.505,376.134 2.452 C 374.821 1.789,373.513 0.966,373.229 0.623 C 372.944 0.280,372.161 0.000,371.488 0.000 L 370.264 0.000 371.240 0.925 M107.031 78.650 C 104.591 79.543,103.005 80.998,101.804 83.445 L 100.690 85.714 100.690 107.783 L 100.690 129.852 101.969 133.851 C 104.515 141.807,110.081 146.887,119.276 149.648 C 122.021 150.473,272.296 150.967,278.336 150.171 C 287.902 148.912,295.374 142.660,298.256 133.505 L 299.282 130.246 299.414 109.247 C 299.578 83.094,299.368 81.915,294.037 79.130 L 291.930 78.030 283.376 78.030 C 273.399 78.030,271.724 78.349,269.498 80.678 C 266.640 83.667,266.365 84.813,266.060 94.975 C 265.685 107.477,264.547 108.966,255.369 108.966 C 245.571 108.966,244.328 107.425,243.920 94.778 C 243.426 79.475,242.300 78.297,227.980 78.106 C 212.304 77.896,211.233 78.826,210.815 93.005 C 210.400 107.025,207.986 110.029,197.956 109.001 C 190.863 108.275,189.579 105.934,189.181 93.005 C 188.746 78.900,187.762 78.023,172.368 78.038 C 157.754 78.052,156.510 79.314,156.046 94.581 C 155.658 107.402,154.438 108.966,144.828 108.966 C 135.587 108.966,133.990 107.023,133.990 95.777 C 133.990 84.300,132.333 80.155,127.127 78.609 C 124.404 77.800,109.266 77.831,107.031 78.650 M126.436 79.426 C 131.624 80.966,132.483 82.984,132.805 94.384 C 133.181 107.720,134.905 109.951,144.828 109.951 C 154.505 109.951,156.847 107.168,156.847 95.671 C 156.847 80.549,158.317 79.015,172.808 79.015 C 187.478 79.015,187.932 79.446,188.381 93.793 C 188.656 102.571,188.867 103.769,190.603 106.414 C 193.771 111.241,206.229 111.241,209.397 106.414 C 211.133 103.769,211.344 102.571,211.619 93.793 C 212.061 79.681,212.628 79.103,226.241 78.887 C 241.365 78.648,242.603 79.871,243.122 95.567 C 243.520 107.617,245.419 109.951,254.830 109.951 C 265.007 109.951,266.779 107.700,267.191 94.252 C 267.624 80.089,268.526 79.122,281.533 78.887 C 298.936 78.572,298.934 78.567,298.625 111.328 L 298.455 129.458 297.392 132.957 C 295.013 140.788,290.424 145.465,282.411 148.227 L 279.099 149.369 199.747 149.266 L 120.394 149.163 117.628 148.133 C 108.927 144.895,104.104 139.735,102.311 131.745 C 101.381 127.599,101.355 87.310,102.281 84.686 C 103.245 81.954,105.577 79.915,108.571 79.186 C 110.980 78.600,124.255 78.778,126.436 79.426 M132.297 173.960 C 127.990 175.118,126.464 179.653,124.327 197.635 C 123.992 200.453,123.291 205.330,122.770 208.473 C 122.248 211.616,121.624 215.961,121.384 218.128 C 121.144 220.296,120.432 225.350,119.802 229.360 C 119.172 233.369,118.459 238.335,118.218 240.394 C 117.978 242.453,117.347 246.621,116.816 249.655 C 116.285 252.690,115.493 258.099,115.056 261.675 C 114.619 265.251,113.832 270.749,113.308 273.892 C 112.784 277.034,112.160 281.468,111.921 283.744 C 111.682 286.020,110.946 291.074,110.286 294.975 C 107.922 308.947,108.519 311.828,114.437 314.994 L 116.059 315.862 143.251 315.862 L 170.443 315.862 172.349 314.924 C 177.952 312.165,178.225 310.817,178.495 284.494 L 178.719 262.584 180.639 258.719 C 188.993 241.894,211.382 241.446,219.557 257.939 L 221.281 261.416 221.500 283.910 C 221.764 311.033,221.946 311.956,227.579 314.855 L 229.536 315.862 257.132 315.862 L 284.729 315.862 286.854 314.685 C 291.682 312.011,291.957 309.925,289.445 294.975 C 288.935 291.941,288.324 287.596,288.086 285.320 C 287.848 283.044,287.140 278.079,286.513 274.286 C 285.886 270.493,285.177 265.527,284.938 263.251 C 284.698 260.975,283.985 255.921,283.354 252.020 C 282.722 248.118,282.010 243.153,281.772 240.985 C 281.534 238.818,280.823 233.852,280.192 229.951 C 279.561 226.049,278.852 221.084,278.617 218.916 C 278.382 216.749,277.674 211.783,277.044 207.882 C 276.415 203.980,275.705 199.015,275.468 196.847 C 274.920 191.837,273.259 181.742,272.518 178.916 C 271.781 176.105,270.049 174.443,267.227 173.837 C 264.052 173.157,134.848 173.274,132.297 173.960 M268.371 175.217 C 271.437 176.444,272.388 179.842,274.701 197.833 C 275.132 201.192,275.749 205.626,276.070 207.685 C 276.391 209.744,277.020 214.089,277.468 217.340 C 277.916 220.591,278.626 225.557,279.045 228.374 C 279.464 231.192,280.163 236.069,280.598 239.212 C 281.034 242.355,281.754 247.409,282.199 250.443 C 283.225 257.431,283.932 262.400,284.894 269.360 C 285.313 272.394,286.024 277.360,286.473 280.394 C 286.922 283.429,287.643 288.483,288.075 291.626 C 288.507 294.768,289.212 299.637,289.643 302.445 C 290.644 308.969,290.465 310.228,288.227 312.401 C 285.170 315.370,285.822 315.313,256.109 315.186 C 219.654 315.030,222.977 318.012,222.612 285.123 C 222.355 261.992,222.298 261.255,220.481 257.638 C 211.338 239.434,186.400 241.135,178.759 260.484 C 177.685 263.206,177.359 269.724,177.349 288.754 C 177.338 309.915,177.019 311.345,171.663 314.210 C 169.199 315.529,119.237 315.785,115.794 314.497 C 109.639 312.194,108.848 309.130,111.064 296.158 C 111.508 293.557,112.160 288.946,112.512 285.911 C 112.864 282.877,113.494 278.443,113.912 276.059 C 114.329 273.675,115.032 268.798,115.474 265.222 C 115.916 261.645,116.800 255.438,117.437 251.429 C 118.746 243.202,120.389 232.075,121.250 225.616 C 121.568 223.232,122.268 218.355,122.806 214.778 C 123.344 211.202,124.212 204.995,124.736 200.985 C 127.306 181.314,128.513 176.638,131.353 175.348 C 133.724 174.272,265.694 174.146,268.371 175.217 " stroke="none" fill="#fcb4b4" fill-rule="evenodd"></path><path id="path4" d="M28.917 0.815 C 28.468 1.264,26.788 2.203,25.184 2.902 C 14.654 7.492,8.903 14.125,5.829 25.222 L 4.138 31.330 4.026 196.256 L 3.914 361.182 5.147 366.700 C 6.828 374.226,7.277 375.523,9.179 378.357 C 12.901 383.899,19.185 388.733,25.565 390.961 C 27.849 391.758,29.462 392.571,29.923 393.158 C 30.792 394.262,34.286 394.559,34.286 393.528 C 34.286 391.574,31.691 390.165,25.062 388.520 C 17.656 386.683,9.531 377.738,8.073 369.818 C 7.717 367.886,7.041 365.064,6.570 363.547 L 5.714 360.788 5.714 197.241 L 5.714 33.695 6.750 30.148 C 7.319 28.197,8.015 25.448,8.296 24.039 C 9.974 15.629,18.211 7.191,27.168 4.709 C 31.332 3.555,33.892 1.982,33.892 0.576 C 33.892 -0.393,29.935 -0.203,28.917 0.815 M366.108 0.455 C 366.108 1.720,369.166 3.760,372.435 4.678 C 382.111 7.394,389.916 15.491,391.773 24.742 C 392.196 26.848,392.934 29.724,393.414 31.133 L 394.286 33.695 394.286 197.241 L 394.286 360.788 393.418 363.547 C 392.941 365.064,392.254 367.943,391.892 369.944 C 390.338 378.519,382.138 386.679,372.586 389.158 C 368.418 390.239,366.018 391.681,365.785 393.242 C 365.593 394.535,369.031 394.488,370.057 393.184 C 370.478 392.648,372.071 391.825,373.959 391.168 C 384.420 387.526,391.927 379.578,394.092 369.851 C 394.575 367.684,395.208 364.847,395.500 363.547 C 395.941 361.585,396.034 333.261,396.045 197.219 L 396.059 33.256 394.384 26.574 C 391.332 14.399,385.311 7.221,374.384 2.733 C 373.192 2.243,371.764 1.428,371.210 0.921 C 370.101 -0.094,366.108 -0.458,366.108 0.455 M105.841 76.854 C 102.034 78.341,99.217 82.229,98.536 86.938 C 98.021 90.503,98.013 124.226,98.526 128.321 C 99.976 139.881,106.880 147.980,118.424 151.662 C 120.849 152.436,273.483 152.888,279.156 152.139 C 289.160 150.817,296.676 144.256,300.267 133.710 L 301.503 130.081 301.392 107.503 L 301.281 84.926 300.156 82.759 C 297.004 76.688,295.862 76.256,282.956 76.256 C 271.169 76.256,270.233 76.454,267.545 79.516 C 264.672 82.788,264.278 84.391,264.033 93.793 C 263.708 106.224,263.195 106.995,255.241 106.995 C 246.770 106.995,246.262 106.289,245.882 93.990 C 245.572 83.988,245.267 82.698,242.474 79.592 C 239.455 76.234,239.620 76.274,228.072 76.128 C 210.793 75.910,209.048 77.468,208.502 93.596 C 208.084 105.922,207.396 107.004,200.000 106.985 C 192.620 106.965,191.894 105.824,191.491 93.605 C 190.960 77.483,189.190 75.917,171.735 76.133 C 156.049 76.327,154.582 77.812,154.094 93.990 C 153.730 106.059,152.998 107.146,145.222 107.165 C 136.943 107.186,136.316 106.291,135.992 93.981 L 135.764 85.301 134.466 82.667 C 132.918 79.523,130.676 77.458,127.926 76.641 C 124.712 75.687,108.429 75.844,105.841 76.854 M127.127 78.609 C 132.333 80.155,133.990 84.300,133.990 95.777 C 133.990 107.023,135.587 108.966,144.828 108.966 C 154.438 108.966,155.658 107.402,156.046 94.581 C 156.510 79.314,157.754 78.052,172.368 78.038 C 187.762 78.023,188.746 78.900,189.181 93.005 C 189.579 105.934,190.863 108.275,197.956 109.001 C 207.986 110.029,210.400 107.025,210.815 93.005 C 211.233 78.826,212.304 77.896,227.980 78.106 C 242.300 78.297,243.426 79.475,243.920 94.778 C 244.328 107.425,245.571 108.966,255.369 108.966 C 264.547 108.966,265.685 107.477,266.060 94.975 C 266.365 84.813,266.640 83.667,269.498 80.678 C 271.724 78.349,273.399 78.030,283.376 78.030 L 291.930 78.030 294.037 79.130 C 299.368 81.915,299.578 83.094,299.414 109.247 L 299.282 130.246 298.256 133.505 C 295.374 142.660,287.902 148.912,278.336 150.171 C 272.296 150.967,122.021 150.473,119.276 149.648 C 110.081 146.887,104.515 141.807,101.969 133.851 L 100.690 129.852 100.690 107.783 L 100.690 85.714 101.804 83.445 C 103.005 80.998,104.591 79.543,107.031 78.650 C 109.266 77.831,124.404 77.800,127.127 78.609 M130.640 172.365 C 126.060 174.536,124.179 179.846,122.732 194.680 C 122.405 198.039,121.894 201.764,121.598 202.956 C 120.776 206.257,120.279 209.638,119.598 216.552 C 119.257 220.020,118.736 223.833,118.441 225.025 C 117.623 228.337,117.125 231.720,116.443 238.621 C 116.100 242.089,115.477 246.234,115.059 247.833 C 114.641 249.432,114.015 253.511,113.669 256.897 C 113.323 260.284,112.603 265.360,112.070 268.177 C 111.537 270.995,110.760 276.493,110.343 280.394 C 109.927 284.296,109.233 289.172,108.802 291.232 C 105.471 307.136,106.598 313.202,113.578 316.929 L 115.271 317.833 142.053 317.942 C 171.262 318.061,171.923 318.020,174.677 315.920 C 180.164 311.734,180.196 311.565,180.465 285.123 C 180.720 260.082,180.427 262.282,184.274 256.495 C 192.418 244.245,211.249 245.523,217.798 258.770 L 219.310 261.829 219.537 284.510 C 219.777 308.422,219.797 308.679,221.681 311.944 C 225.266 318.155,224.802 318.078,257.978 317.944 L 285.517 317.833 287.291 316.902 C 293.495 313.649,294.440 306.783,290.867 290.915 C 290.443 289.030,289.984 285.892,289.846 283.941 C 289.500 279.012,288.629 272.890,287.729 269.053 C 287.311 267.271,286.852 264.128,286.709 262.069 C 286.363 257.077,285.447 250.553,284.717 247.882 C 284.392 246.690,283.859 242.877,283.534 239.409 C 282.932 232.995,282.107 227.512,281.371 225.025 C 281.146 224.266,280.699 220.808,280.376 217.340 C 279.808 211.222,279.280 207.697,278.078 201.970 C 277.759 200.453,277.382 197.438,277.240 195.271 C 276.381 182.149,273.947 174.739,269.754 172.476 L 268.177 171.626 200.394 171.529 L 132.611 171.431 130.640 172.365 M267.227 173.837 C 270.049 174.443,271.781 176.105,272.518 178.916 C 273.259 181.742,274.920 191.837,275.468 196.847 C 275.705 199.015,276.415 203.980,277.044 207.882 C 277.674 211.783,278.382 216.749,278.617 218.916 C 278.852 221.084,279.561 226.049,280.192 229.951 C 280.823 233.852,281.534 238.818,281.772 240.985 C 282.010 243.153,282.722 248.118,283.354 252.020 C 283.985 255.921,284.698 260.975,284.938 263.251 C 285.177 265.527,285.886 270.493,286.513 274.286 C 287.140 278.079,287.848 283.044,288.086 285.320 C 288.324 287.596,288.935 291.941,289.445 294.975 C 291.957 309.925,291.682 312.011,286.854 314.685 L 284.729 315.862 257.132 315.862 L 229.536 315.862 227.579 314.855 C 221.946 311.956,221.764 311.033,221.500 283.910 L 221.281 261.416 219.557 257.939 C 211.382 241.446,188.993 241.894,180.639 258.719 L 178.719 262.584 178.495 284.494 C 178.225 310.817,177.952 312.165,172.349 314.924 L 170.443 315.862 143.251 315.862 L 116.059 315.862 114.437 314.994 C 108.519 311.828,107.922 308.947,110.286 294.975 C 110.946 291.074,111.682 286.020,111.921 283.744 C 112.160 281.468,112.784 277.034,113.308 273.892 C 113.832 270.749,114.619 265.251,115.056 261.675 C 115.493 258.099,116.285 252.690,116.816 249.655 C 117.347 246.621,117.978 242.453,118.218 240.394 C 118.459 238.335,119.172 233.369,119.802 229.360 C 120.432 225.350,121.144 220.296,121.384 218.128 C 121.624 215.961,122.248 211.616,122.770 208.473 C 123.291 205.330,123.992 200.453,124.327 197.635 C 126.464 179.653,127.990 175.118,132.297 173.960 C 134.848 173.274,264.052 173.157,267.227 173.837 " stroke="none" fill="#f49299" fill-rule="evenodd"></path></g></svg>