<svg id="svg" version="1.1" xmlns="http://www.w3.org/2000/svg" xmlns:xlink="http://www.w3.org/1999/xlink" width="400" height="398.11320754716985" viewBox="0, 0, 400,398.11320754716985"><g id="svgg"><path id="path0" d="M0.000 199.203 L 0.000 398.406 200.000 398.406 L 400.000 398.406 400.000 199.203 L 400.000 0.000 387.948 0.027 C 378.969 0.047,376.150 0.163,376.892 0.483 C 383.483 3.322,386.474 5.425,390.324 9.930 C 395.726 16.250,398.361 21.891,399.180 28.884 C 399.752 33.778,399.764 362.443,399.192 367.530 C 397.494 382.611,384.271 396.097,369.715 397.591 C 364.075 398.170,35.956 398.173,30.317 397.594 C 15.761 396.101,2.473 382.607,0.825 367.645 C 0.246 362.394,0.230 34.022,0.808 28.884 C 1.575 22.075,4.598 15.624,9.800 9.699 C 13.627 5.340,16.582 3.294,23.108 0.483 C 23.850 0.163,21.031 0.047,12.052 0.027 L 0.000 0.000 0.000 199.203 M94.636 117.572 C 85.608 118.898,78.865 124.050,75.657 132.072 L 74.701 134.462 74.588 194.821 C 74.506 238.624,74.600 255.928,74.930 257.907 C 76.255 265.867,81.937 271.880,91.036 274.954 L 93.825 275.896 198.606 276.011 L 303.386 276.126 307.079 275.283 C 316.703 273.088,323.521 266.537,325.069 257.995 C 325.789 254.025,325.644 138.401,324.915 134.962 C 323.157 126.669,317.258 120.706,308.167 118.035 C 305.513 117.255,99.829 116.809,94.636 117.572 M274.797 137.956 C 276.603 138.943,277.093 139.874,278.210 144.433 C 280.862 155.262,287.012 161.834,297.059 164.575 C 304.428 166.586,303.785 163.503,303.785 196.830 C 303.785 230.004,304.478 226.879,296.679 228.858 C 287.061 231.298,280.084 238.751,278.082 248.724 C 277.159 253.322,276.857 253.973,275.174 255.000 C 273.174 256.219,126.820 256.216,124.820 254.996 C 123.199 254.008,122.555 252.733,121.786 248.990 C 119.615 238.431,112.719 231.080,102.749 228.699 C 95.643 227.002,96.215 229.791,96.215 196.830 C 96.215 163.531,95.595 166.453,103.075 164.494 C 112.549 162.012,119.793 154.226,121.775 144.391 C 122.793 139.344,123.864 137.978,127.243 137.417 C 131.533 136.704,273.456 137.224,274.797 137.956 M192.757 157.342 C 154.806 164.674,151.136 216.920,187.649 230.066 C 211.327 238.591,236.624 221.382,237.737 195.992 C 238.819 171.330,217.073 152.644,192.757 157.342 " stroke="none" fill="#fafbfb" fill-rule="evenodd"></path><path id="path1" d="M26.312 0.577 C 26.048 0.895,25.175 1.368,24.371 1.629 C 15.430 4.533,6.356 14.736,2.891 25.782 L 1.793 29.283 1.680 194.024 C 1.608 298.442,1.709 360.661,1.955 363.944 C 3.067 378.760,11.943 390.068,26.494 395.206 L 30.478 396.614 200.000 396.614 L 369.522 396.614 373.460 395.251 C 385.291 391.156,393.337 382.803,397.093 370.717 L 398.207 367.131 398.207 198.606 L 398.207 30.080 397.308 26.693 C 394.379 15.656,384.778 4.553,375.629 1.623 C 374.825 1.365,373.952 0.895,373.688 0.577 C 373.425 0.260,372.851 0.000,372.412 0.000 C 371.024 -0.000,372.316 1.039,376.038 2.917 C 387.601 8.750,394.063 16.952,396.598 29.010 C 397.674 34.124,397.514 363.622,396.434 368.212 C 393.339 381.368,385.527 390.023,372.908 394.277 L 369.522 395.418 200.000 395.418 L 30.478 395.418 27.092 394.277 C 15.003 390.202,6.670 381.275,3.796 369.323 L 2.790 365.139 2.792 198.207 C 2.794 34.472,2.809 31.213,3.566 28.057 C 6.339 16.491,12.570 8.684,23.401 3.202 C 27.645 1.054,29.023 0.000,27.588 0.000 C 27.149 0.000,26.575 0.260,26.312 0.577 M92.629 114.930 C 79.873 117.748,72.762 125.769,71.673 138.566 C 70.920 147.417,71.426 256.681,72.234 259.686 C 74.576 268.395,80.161 274.195,89.265 277.372 L 93.028 278.685 199.801 278.685 L 306.574 278.685 309.562 277.752 C 319.293 274.714,325.614 268.207,327.775 259.005 C 328.848 254.435,328.876 138.920,327.805 134.339 C 325.650 125.119,319.617 118.815,309.761 115.484 L 306.972 114.542 200.996 114.472 C 114.254 114.414,94.586 114.497,92.629 114.930 M308.481 116.224 C 318.266 119.007,324.955 125.753,326.765 134.661 C 327.687 139.204,327.523 256.332,326.589 259.711 C 324.220 268.286,317.603 274.581,308.517 276.905 C 303.647 278.150,96.294 278.135,91.422 276.889 C 82.076 274.499,75.385 268.046,73.248 259.363 C 72.472 256.206,72.448 137.170,73.223 133.865 C 75.506 124.134,84.275 116.876,95.322 115.574 C 96.909 115.387,144.821 115.258,201.793 115.288 L 305.378 115.342 308.481 116.224 M127.120 139.445 C 125.248 139.889,124.540 140.993,123.564 144.986 C 120.826 156.187,113.179 164.007,102.509 166.515 C 97.705 167.645,97.949 165.905,98.091 197.943 L 98.207 224.372 99.264 225.281 C 99.848 225.784,101.630 226.508,103.248 226.902 C 113.489 229.395,120.632 236.697,123.320 247.423 C 124.581 252.453,125.038 253.232,127.049 253.773 C 129.762 254.504,272.876 254.138,273.992 253.397 C 275.045 252.699,275.480 251.701,276.303 248.086 C 278.816 237.047,286.181 229.412,296.752 226.889 C 298.393 226.497,300.143 225.791,300.736 225.281 L 301.793 224.372 301.793 196.856 L 301.793 169.341 300.764 168.311 C 300.076 167.624,298.448 166.906,295.867 166.150 C 286.220 163.326,279.071 155.707,276.507 145.518 C 275.488 141.469,275.082 140.553,273.976 139.819 C 272.996 139.169,129.817 138.804,127.120 139.445 M273.701 141.253 C 274.161 141.713,274.933 143.621,275.473 145.635 C 278.468 156.792,285.221 164.119,295.153 166.986 C 297.923 167.786,299.256 168.388,299.900 169.131 L 300.797 170.164 300.797 196.791 C 300.797 227.605,301.247 224.661,296.343 225.915 C 285.715 228.633,278.157 236.292,275.490 247.047 C 274.719 250.156,274.211 251.420,273.463 252.092 L 272.466 252.988 200.000 252.988 L 127.534 252.988 126.485 252.086 C 125.683 251.396,125.158 250.160,124.253 246.828 C 121.263 235.827,114.184 228.607,103.782 225.947 C 98.731 224.656,99.203 227.666,99.203 196.738 L 99.203 170.058 100.299 168.966 C 101.035 168.231,102.307 167.644,104.179 167.175 C 113.850 164.751,121.465 156.745,124.446 145.866 C 125.515 141.967,125.952 141.156,127.277 140.616 C 129.367 139.765,272.836 140.388,273.701 141.253 M193.825 154.162 C 155.044 160.584,146.258 211.329,180.678 230.092 C 207.451 244.686,239.575 226.178,240.529 195.609 C 241.331 169.918,218.897 150.010,193.825 154.162 M203.995 154.997 C 221.420 157.141,233.957 167.746,238.416 184.114 C 246.869 215.144,215.377 243.341,185.669 231.342 C 153.422 218.317,151.376 174.402,182.289 158.813 C 188.668 155.596,196.983 154.134,203.995 154.997 " stroke="none" fill="#83d0d0" fill-rule="evenodd"></path><path id="path2" d="M23.108 0.483 C 16.582 3.294,13.627 5.340,9.800 9.699 C 4.598 15.624,1.575 22.075,0.808 28.884 C 0.230 34.022,0.246 362.394,0.825 367.645 C 2.473 382.607,15.761 396.101,30.317 397.594 C 35.956 398.173,364.075 398.170,369.715 397.591 C 384.271 396.097,397.494 382.611,399.192 367.530 C 399.764 362.443,399.752 33.778,399.180 28.884 C 397.627 15.621,384.214 -0.000,374.378 0.000 C 372.817 0.000,373.556 0.959,375.629 1.623 C 384.778 4.553,394.379 15.656,397.308 26.693 L 398.207 30.080 398.207 198.606 L 398.207 367.131 397.093 370.717 C 393.337 382.803,385.291 391.156,373.460 395.251 L 369.522 396.614 200.000 396.614 L 30.478 396.614 26.494 395.206 C 11.943 390.068,3.067 378.760,1.955 363.944 C 1.709 360.661,1.608 298.442,1.680 194.024 L 1.793 29.283 2.891 25.782 C 6.356 14.736,15.430 4.533,24.371 1.629 C 26.554 0.920,27.177 -0.008,25.447 0.027 C 24.708 0.042,23.655 0.247,23.108 0.483 M95.322 115.574 C 84.275 116.876,75.506 124.134,73.223 133.865 C 72.448 137.170,72.472 256.206,73.248 259.363 C 75.385 268.046,82.076 274.499,91.422 276.889 C 96.294 278.135,303.647 278.150,308.517 276.905 C 317.603 274.581,324.220 268.286,326.589 259.711 C 327.523 256.332,327.687 139.204,326.765 134.661 C 324.955 125.753,318.266 119.007,308.481 116.224 L 305.378 115.342 201.793 115.288 C 144.821 115.258,96.909 115.387,95.322 115.574 M308.167 118.035 C 317.258 120.706,323.157 126.669,324.915 134.962 C 325.644 138.401,325.789 254.025,325.069 257.995 C 323.521 266.537,316.703 273.088,307.079 275.283 L 303.386 276.126 198.606 276.011 L 93.825 275.896 91.036 274.954 C 81.937 271.880,76.255 265.867,74.930 257.907 C 74.600 255.928,74.506 238.624,74.588 194.821 L 74.701 134.462 75.657 132.072 C 78.865 124.050,85.608 118.898,94.636 117.572 C 99.829 116.809,305.513 117.255,308.167 118.035 M127.243 137.417 C 123.864 137.978,122.793 139.344,121.775 144.391 C 119.793 154.226,112.549 162.012,103.075 164.494 C 95.595 166.453,96.215 163.531,96.215 196.830 C 96.215 229.791,95.643 227.002,102.749 228.699 C 112.719 231.080,119.615 238.431,121.786 248.990 C 122.555 252.733,123.199 254.008,124.820 254.996 C 126.820 256.216,273.174 256.219,275.174 255.000 C 276.857 253.973,277.159 253.322,278.082 248.724 C 280.084 238.751,287.061 231.298,296.679 228.858 C 304.478 226.879,303.785 230.004,303.785 196.830 C 303.785 163.503,304.428 166.586,297.059 164.575 C 287.012 161.834,280.862 155.262,278.210 144.433 C 277.093 139.874,276.603 138.943,274.797 137.956 C 273.456 137.224,131.533 136.704,127.243 137.417 M273.976 139.819 C 275.082 140.553,275.488 141.469,276.507 145.518 C 279.071 155.707,286.220 163.326,295.867 166.150 C 298.448 166.906,300.076 167.624,300.764 168.311 L 301.793 169.341 301.793 196.856 L 301.793 224.372 300.736 225.281 C 300.143 225.791,298.393 226.497,296.752 226.889 C 286.181 229.412,278.816 237.047,276.303 248.086 C 275.480 251.701,275.045 252.699,273.992 253.397 C 272.876 254.138,129.762 254.504,127.049 253.773 C 125.038 253.232,124.581 252.453,123.320 247.423 C 120.632 236.697,113.489 229.395,103.248 226.902 C 101.630 226.508,99.848 225.784,99.264 225.281 L 98.207 224.372 98.091 197.943 C 97.949 165.905,97.705 167.645,102.509 166.515 C 113.179 164.007,120.826 156.187,123.564 144.986 C 124.540 140.993,125.248 139.889,127.120 139.445 C 129.817 138.804,272.996 139.169,273.976 139.819 M195.418 155.039 C 157.205 159.930,146.993 209.614,180.285 228.663 C 207.842 244.430,241.725 223.335,239.696 191.675 C 238.251 169.124,217.771 152.179,195.418 155.039 M209.163 157.729 C 237.995 163.859,247.829 202.628,225.553 222.339 C 201.289 243.807,163.659 228.028,162.269 195.802 C 161.170 170.318,183.418 152.255,209.163 157.729 " stroke="none" fill="#a8dddd" fill-rule="evenodd"></path><path id="path3" d="M27.898 0.586 C 27.631 0.908,25.607 2.085,23.401 3.202 C 12.570 8.684,6.339 16.491,3.566 28.057 C 2.809 31.213,2.794 34.472,2.792 198.207 L 2.790 365.139 3.796 369.323 C 6.670 381.275,15.003 390.202,27.092 394.277 L 30.478 395.418 200.000 395.418 L 369.522 395.418 372.908 394.277 C 385.527 390.023,393.339 381.368,396.434 368.212 C 397.514 363.622,397.674 34.124,396.598 29.010 C 394.063 16.952,387.601 8.750,376.038 2.917 C 374.144 1.961,372.374 0.914,372.105 0.590 C 371.477 -0.167,368.526 -0.216,368.526 0.530 C 368.526 0.822,369.019 1.315,369.622 1.625 C 370.224 1.936,370.807 2.298,370.916 2.431 C 371.026 2.563,372.550 3.342,374.303 4.162 C 380.249 6.942,380.929 7.338,383.219 9.347 C 389.442 14.809,392.451 19.588,394.333 27.002 L 395.418 31.275 395.418 198.008 L 395.418 364.741 394.474 368.883 C 392.661 376.837,389.278 382.380,383.665 386.595 C 378.539 390.444,376.154 391.645,371.116 392.919 L 367.530 393.825 200.000 393.825 L 32.470 393.825 28.937 392.925 C 16.944 389.869,8.433 381.212,5.536 369.124 L 4.582 365.139 4.582 198.207 L 4.582 31.275 5.679 26.950 C 7.479 19.854,10.448 15.081,16.534 9.496 C 18.548 7.648,19.920 6.848,25.697 4.157 C 27.450 3.340,28.974 2.563,29.084 2.431 C 29.193 2.298,29.776 1.936,30.378 1.625 C 30.981 1.315,31.474 0.822,31.474 0.530 C 31.474 -0.213,28.523 -0.167,27.898 0.586 M92.856 113.180 C 81.727 115.377,73.604 122.572,70.844 132.674 L 69.920 136.056 69.920 196.414 C 69.920 251.739,69.977 257.013,70.595 259.657 C 73.188 270.738,82.446 278.751,94.222 280.105 C 98.464 280.593,301.536 280.593,305.778 280.105 C 318.908 278.595,328.260 269.281,329.871 256.109 C 330.686 249.447,330.230 137.205,329.374 133.665 C 327.086 124.205,320.733 117.583,310.558 114.054 L 307.371 112.948 200.996 112.890 C 141.572 112.858,93.842 112.986,92.856 113.180 M309.761 115.484 C 319.617 118.815,325.650 125.119,327.805 134.339 C 328.876 138.920,328.848 254.435,327.775 259.005 C 325.614 268.207,319.293 274.714,309.562 277.752 L 306.574 278.685 199.801 278.685 L 93.028 278.685 89.265 277.372 C 80.161 274.195,74.576 268.395,72.234 259.686 C 71.426 256.681,70.920 147.417,71.673 138.566 C 72.614 127.514,77.936 120.116,87.571 116.468 C 93.349 114.281,86.784 114.396,200.996 114.472 L 306.972 114.542 309.761 115.484 M127.277 140.616 C 125.952 141.156,125.515 141.967,124.446 145.866 C 121.465 156.745,113.850 164.751,104.179 167.175 C 102.307 167.644,101.035 168.231,100.299 168.966 L 99.203 170.058 99.203 196.738 C 99.203 227.666,98.731 224.656,103.782 225.947 C 114.184 228.607,121.263 235.827,124.253 246.828 C 125.158 250.160,125.683 251.396,126.485 252.086 L 127.534 252.988 200.000 252.988 L 272.466 252.988 273.463 252.092 C 274.211 251.420,274.719 250.156,275.490 247.047 C 278.157 236.292,285.715 228.633,296.343 225.915 C 301.247 224.661,300.797 227.605,300.797 196.791 L 300.797 170.164 299.900 169.131 C 299.256 168.388,297.923 167.786,295.153 166.986 C 285.221 164.119,278.468 156.792,275.473 145.635 C 274.933 143.621,274.161 141.713,273.701 141.253 C 272.836 140.388,129.367 139.765,127.277 140.616 M272.251 142.729 C 272.921 143.341,273.558 144.795,274.262 147.318 C 277.150 157.662,284.722 165.785,293.837 168.316 C 297.382 169.301,298.396 169.755,298.820 170.546 C 299.054 170.983,299.203 181.258,299.203 196.924 C 299.203 226.464,299.725 223.300,294.622 224.681 C 284.479 227.425,276.523 235.878,273.863 246.736 C 273.497 248.227,272.880 249.841,272.491 250.322 L 271.784 251.195 200.533 251.300 C 149.468 251.375,128.982 251.280,128.221 250.967 C 127.024 250.473,126.606 249.604,125.651 245.618 C 123.268 235.679,114.710 227.017,104.781 224.495 C 100.380 223.377,100.797 226.261,100.797 196.924 C 100.797 167.238,100.361 169.826,105.578 168.509 C 111.224 167.082,118.418 161.491,122.085 155.678 C 123.401 153.592,125.896 147.987,125.896 147.117 C 125.896 145.701,127.205 142.697,127.985 142.320 C 128.622 142.013,149.622 141.879,200.077 141.860 L 271.270 141.833 272.251 142.729 M192.629 152.773 C 157.819 158.271,145.277 202.994,172.056 226.132 C 194.912 245.881,230.623 236.543,239.996 208.367 C 250.382 177.148,225.227 147.625,192.629 152.773 M210.757 155.155 C 241.186 162.889,251.089 202.328,228.021 223.908 C 202.196 248.065,160.571 230.872,159.470 195.593 C 158.604 167.828,183.472 148.221,210.757 155.155 " stroke="none" fill="#68c4c4" fill-rule="evenodd"></path><path id="path4" d="M31.474 0.530 C 31.474 0.822,30.981 1.315,30.378 1.625 C 29.776 1.936,29.193 2.298,29.084 2.431 C 28.974 2.563,27.450 3.340,25.697 4.157 C 19.920 6.848,18.548 7.648,16.534 9.496 C 10.448 15.081,7.479 19.854,5.679 26.950 L 4.582 31.275 4.582 198.207 L 4.582 365.139 5.536 369.124 C 8.433 381.212,16.944 389.869,28.937 392.925 L 32.470 393.825 200.000 393.825 L 367.530 393.825 371.116 392.919 C 376.154 391.645,378.539 390.444,383.665 386.595 C 389.278 382.380,392.661 376.837,394.474 368.883 L 395.418 364.741 395.418 198.008 L 395.418 31.275 394.333 27.002 C 392.451 19.588,389.442 14.809,383.219 9.347 C 380.929 7.338,380.249 6.942,374.303 4.162 C 372.550 3.342,371.026 2.563,370.916 2.431 C 370.807 2.298,370.224 1.936,369.622 1.625 C 369.019 1.315,368.526 0.822,368.526 0.530 C 368.526 0.090,340.026 0.000,200.000 0.000 C 59.974 0.000,31.474 0.090,31.474 0.530 M310.558 114.054 C 320.733 117.583,327.086 124.205,329.374 133.665 C 330.230 137.205,330.686 249.447,329.871 256.109 C 328.260 269.281,318.908 278.595,305.778 280.105 C 301.536 280.593,98.464 280.593,94.222 280.105 C 82.446 278.751,73.188 270.738,70.595 259.657 C 69.977 257.013,69.920 251.739,69.920 196.414 L 69.920 136.056 70.844 132.674 C 73.604 122.572,81.727 115.377,92.856 113.180 C 93.842 112.986,141.572 112.858,200.996 112.890 L 307.371 112.948 310.558 114.054 M127.985 142.320 C 127.205 142.697,125.896 145.701,125.896 147.117 C 125.896 147.987,123.401 153.592,122.085 155.678 C 118.418 161.491,111.224 167.082,105.578 168.509 C 100.361 169.826,100.797 167.238,100.797 196.924 C 100.797 226.261,100.380 223.377,104.781 224.495 C 114.710 227.017,123.268 235.679,125.651 245.618 C 126.606 249.604,127.024 250.473,128.221 250.967 C 128.982 251.280,149.468 251.375,200.533 251.300 L 271.784 251.195 272.491 250.322 C 272.880 249.841,273.497 248.227,273.863 246.736 C 276.523 235.878,284.479 227.425,294.622 224.681 C 299.725 223.300,299.203 226.464,299.203 196.924 C 299.203 181.258,299.054 170.983,298.820 170.546 C 298.396 169.755,297.382 169.301,293.837 168.316 C 284.722 165.785,277.150 157.662,274.262 147.318 C 273.558 144.795,272.921 143.341,272.251 142.729 L 271.270 141.833 200.077 141.860 C 149.622 141.879,128.622 142.013,127.985 142.320 M206.246 152.608 C 242.605 157.468,255.329 204.283,226.550 227.310 C 201.549 247.313,164.718 233.856,158.342 202.389 C 152.561 173.856,176.795 148.671,206.246 152.608 " stroke="none" fill="#44b4b4" fill-rule="evenodd"></path></g></svg>