<?xml version="1.0" encoding="UTF-8" standalone="no"?>

<svg id="svg" version="1.1" xmlns="http://www.w3.org/2000/svg" xmlns:xlink="http://www.w3.org/1999/xlink" width="400" height="400" viewBox="0, 0, 400,400"><g id="svgg"><path id="path0" d="M0.026 11.700 C 0.050 22.757,0.086 23.323,0.692 22.000 C 4.971 12.648,10.851 5.906,17.587 2.628 C 19.652 1.622,21.569 0.800,21.847 0.800 C 22.125 0.800,22.464 0.620,22.600 0.400 C 22.763 0.137,18.937 -0.000,11.424 -0.000 L 0.000 0.000 0.026 11.700 M375.373 0.356 C 375.494 0.551,376.089 0.835,376.696 0.986 C 384.554 2.941,394.270 13.250,397.727 23.300 L 399.000 27.000 399.000 199.000 L 399.000 371.000 397.853 374.400 C 393.330 387.807,381.611 397.732,368.978 398.854 C 366.672 399.059,292.784 399.166,195.778 399.106 L 26.600 399.000 23.400 397.852 C 13.481 394.292,2.589 384.036,0.989 376.748 C 0.247 373.372,0.000 376.077,0.000 387.576 L 0.000 400.000 200.000 400.000 L 400.000 400.000 400.000 200.000 L 400.000 0.000 387.576 0.000 C 380.428 0.000,375.246 0.151,375.373 0.356 M145.166 112.184 C 130.555 126.806,118.105 138.951,117.500 139.175 C 115.564 139.888,114.476 139.022,103.177 127.774 C 89.607 114.264,90.896 114.611,83.107 122.384 C 75.143 130.331,74.683 129.207,93.730 148.332 C 111.001 165.674,111.401 165.991,116.021 165.996 C 121.508 166.003,119.830 167.444,153.711 133.641 C 190.730 96.708,188.930 99.434,181.441 91.646 C 172.851 82.715,176.913 80.415,145.166 112.184 M200.785 121.300 C 197.415 122.999,197.000 124.525,197.000 135.200 C 197.000 145.727,197.442 147.421,200.600 149.000 C 202.939 150.170,304.251 150.495,308.130 149.346 C 313.243 147.830,314.000 145.952,314.000 134.776 C 314.000 126.184,313.843 125.332,311.875 123.251 C 308.976 120.185,313.661 120.419,254.985 120.409 L 202.570 120.400 200.785 121.300 M114.200 192.353 C 112.389 192.820,111.398 193.570,110.245 195.348 L 109.200 196.960 109.201 206.780 C 109.204 221.272,108.928 221.000,123.629 221.000 L 133.458 221.000 135.161 219.873 C 137.848 218.095,138.001 217.382,137.991 206.713 C 137.978 192.189,138.025 192.240,124.400 192.122 C 119.450 192.079,114.860 192.184,114.200 192.353 M176.674 192.576 C 172.825 193.957,172.280 195.454,172.078 205.200 C 171.848 216.287,172.381 218.452,175.800 220.338 C 177.019 221.010,302.944 221.643,307.459 221.000 C 312.978 220.213,314.000 218.005,314.000 206.866 C 314.000 196.265,313.613 194.975,309.800 192.864 C 308.132 191.941,179.223 191.662,176.674 192.576 M114.000 263.838 C 109.535 265.772,109.126 267.036,109.176 278.744 L 109.218 288.600 110.313 290.400 C 112.310 293.680,113.494 294.001,123.585 293.996 L 132.200 293.992 134.256 292.813 C 137.781 290.792,138.000 289.962,138.000 278.661 C 138.000 263.850,137.371 263.193,123.200 263.218 C 117.135 263.228,115.089 263.366,114.000 263.838 M177.074 263.780 C 172.736 265.327,172.200 266.934,172.200 278.400 C 172.200 289.026,172.377 289.963,174.798 292.151 C 177.002 294.142,173.000 294.040,243.629 293.914 L 308.259 293.800 309.926 292.697 C 310.843 292.090,312.090 290.843,312.697 289.927 L 313.800 288.261 313.928 279.431 C 314.092 268.055,312.926 265.072,307.753 263.636 C 305.213 262.930,179.065 263.069,177.074 263.780 " stroke="none" fill="#f9fbfa" fill-rule="evenodd"></path><path id="path1" d="M33.316 0.800 C 33.537 1.644,31.999 3.200,30.946 3.200 C 30.646 3.200,30.400 3.349,30.400 3.531 C 30.400 3.713,28.915 4.088,27.100 4.364 C 16.502 5.980,6.009 16.550,4.431 27.200 C 3.831 31.249,2.301 34.200,0.800 34.200 C 0.268 34.200,0.200 52.841,0.200 199.565 L 0.200 364.930 1.323 364.979 C 2.430 365.028,3.182 365.720,3.194 366.700 C 3.197 366.975,3.361 367.200,3.559 367.200 C 3.756 367.200,4.138 368.757,4.408 370.659 C 6.018 382.001,16.344 391.967,28.600 394.009 C 35.540 395.165,364.517 395.062,370.560 393.902 C 381.690 391.766,392.145 381.462,393.601 371.194 C 393.825 369.614,394.192 367.574,394.416 366.661 C 395.222 363.376,394.705 32.545,393.887 27.957 C 391.838 16.467,381.987 6.159,371.400 4.425 C 367.889 3.850,362.452 1.200,364.784 1.200 C 365.013 1.200,365.200 0.930,365.200 0.600 C 365.200 0.068,346.484 0.000,199.153 0.000 C 33.279 0.000,33.107 0.001,33.316 0.800 M176.995 81.497 C 178.981 82.519,189.046 92.807,189.763 94.549 C 190.695 96.814,190.591 100.789,189.539 103.104 C 188.627 105.112,129.941 164.462,125.913 167.450 C 120.863 171.195,115.679 171.904,110.200 169.598 L 107.000 168.252 91.170 152.426 C 69.069 130.331,69.042 130.249,80.100 118.933 C 89.901 108.903,91.471 109.199,105.966 123.804 C 111.117 128.995,115.643 133.409,116.025 133.613 C 116.675 133.961,167.200 84.150,167.200 83.162 C 167.200 81.021,173.866 79.888,176.995 81.497 M311.459 117.171 C 317.235 119.794,318.569 123.000,318.720 134.631 C 318.883 147.179,317.710 150.123,311.287 153.285 L 308.617 154.600 254.808 154.600 L 201.000 154.600 199.200 153.756 C 196.957 152.704,195.201 151.025,193.734 148.529 L 192.600 146.600 192.600 135.182 L 192.600 123.764 194.304 121.182 C 196.090 118.476,197.352 117.329,199.133 116.791 C 201.749 116.001,309.687 116.366,311.459 117.171 M136.099 188.547 C 141.772 191.374,142.937 194.181,143.127 205.476 C 143.425 223.194,140.739 225.984,123.370 225.995 C 106.485 226.006,105.000 224.470,105.000 207.000 C 105.000 192.921,105.481 191.350,110.600 188.706 C 113.316 187.303,113.916 187.241,124.000 187.322 L 133.800 187.401 136.099 188.547 M310.692 188.299 C 317.453 191.043,318.800 194.210,318.800 207.362 C 318.800 219.629,317.748 221.965,310.949 224.796 L 308.056 226.000 243.329 226.000 L 178.603 226.000 175.401 224.952 C 168.368 222.651,167.600 220.841,167.600 206.578 C 167.600 193.235,168.280 191.368,174.163 188.549 L 176.977 187.200 242.481 187.200 L 307.984 187.200 310.692 188.299 M135.400 259.558 C 137.872 260.703,139.835 262.632,141.489 265.541 L 143.000 268.200 143.000 278.600 C 143.000 291.358,141.719 294.700,135.691 297.669 C 133.060 298.965,113.956 299.122,111.654 297.866 C 109.633 296.763,106.842 294.040,105.866 292.218 C 104.624 289.899,104.516 267.487,105.736 265.250 C 106.769 263.356,109.901 260.410,111.800 259.546 C 114.230 258.440,133.007 258.450,135.400 259.558 M310.277 259.407 C 313.069 260.573,315.876 263.416,317.394 266.614 L 318.800 269.577 318.798 278.689 C 318.796 285.668,318.665 288.048,318.241 288.861 C 317.937 289.445,317.478 290.559,317.221 291.337 C 316.630 293.128,312.199 297.327,310.129 298.060 C 307.278 299.068,176.679 298.838,174.630 297.821 C 168.654 294.857,167.599 291.977,167.602 278.627 C 167.605 265.201,168.785 262.129,175.000 259.365 C 176.924 258.509,308.227 258.550,310.277 259.407 " stroke="none" fill="#4cbc7c" fill-rule="evenodd"></path><path id="path2" d="M25.014 0.785 C 24.623 1.217,23.650 1.783,22.852 2.045 C 13.901 4.971,5.553 13.276,2.188 22.600 C 1.791 23.700,1.120 24.989,0.697 25.464 C 0.274 25.940,-0.011 26.647,0.064 27.036 C 0.278 28.150,1.386 26.828,2.184 24.507 C 5.768 14.078,13.813 5.667,23.125 2.616 C 25.640 1.791,27.961 0.034,26.562 0.013 C 26.101 0.006,25.404 0.353,25.014 0.785 M371.200 0.391 C 371.200 0.976,372.780 1.898,375.223 2.739 C 386.405 6.586,394.479 16.383,396.599 28.674 C 397.138 31.798,397.195 51.404,397.098 200.600 L 396.990 369.000 396.049 372.600 C 393.142 383.721,383.639 393.261,372.679 396.060 L 369.000 397.000 198.600 397.000 L 28.200 397.000 24.676 395.931 C 14.814 392.940,5.750 384.260,2.595 374.785 C 1.533 371.597,0.000 369.413,0.000 371.089 C -0.000 371.536,0.263 372.120,0.585 372.387 C 0.907 372.654,1.551 373.891,2.016 375.136 C 5.961 385.687,14.865 393.835,25.800 396.902 L 29.000 397.800 195.200 397.911 C 298.776 397.980,363.229 397.877,366.253 397.638 C 383.598 396.266,395.902 384.003,397.595 366.400 C 398.127 360.868,398.135 36.969,397.603 31.600 C 396.264 18.086,388.685 7.505,376.821 2.587 C 374.832 1.763,373.002 0.843,372.754 0.544 C 372.232 -0.084,371.200 -0.186,371.200 0.391 M170.804 83.589 C 170.475 83.797,158.325 95.854,143.804 110.384 C 122.895 131.303,117.191 136.801,116.397 136.800 C 115.619 136.800,113.194 134.591,105.597 126.959 C 90.519 111.813,90.885 111.917,82.256 120.353 C 72.077 130.305,71.819 129.553,92.532 150.277 C 112.186 169.942,113.999 170.932,122.600 166.705 C 125.209 165.423,185.826 104.743,187.039 102.200 C 189.137 97.799,188.186 95.454,181.748 89.152 C 175.873 83.401,173.228 82.057,170.804 83.589 M175.316 84.439 C 177.400 85.477,185.380 93.264,186.429 95.284 C 187.429 97.209,187.421 100.092,186.410 102.174 C 185.159 104.749,124.391 165.210,121.857 166.400 C 119.201 167.648,115.241 167.899,112.170 167.015 C 109.767 166.323,79.103 136.804,77.363 133.507 C 75.273 129.547,76.348 126.944,82.591 120.843 C 90.902 112.722,90.063 112.483,104.964 127.209 C 112.801 134.955,115.721 137.600,116.432 137.600 C 117.161 137.600,123.715 131.283,144.193 110.844 C 158.937 96.129,171.270 83.993,171.600 83.876 C 172.747 83.469,173.642 83.605,175.316 84.439 M201.075 118.836 C 195.978 120.047,195.030 122.493,194.881 134.828 L 194.762 144.656 196.088 147.219 C 197.265 149.491,197.683 149.919,199.779 150.991 L 202.143 152.200 254.572 152.200 C 314.293 152.200,309.563 152.475,313.249 148.790 C 315.955 146.083,316.199 144.954,316.188 135.200 C 316.176 124.446,315.305 121.972,310.657 119.486 L 309.000 118.600 255.800 118.537 C 225.147 118.500,201.954 118.627,201.075 118.836 M311.256 120.612 C 312.205 121.279,313.525 122.705,314.191 123.781 L 315.400 125.737 315.400 135.169 L 315.400 144.600 314.300 146.471 C 311.059 151.985,315.512 151.600,254.931 151.600 C 198.458 151.600,201.108 151.711,198.360 149.228 C 194.008 145.294,193.702 125.944,197.921 121.451 C 200.136 119.093,196.733 119.219,255.466 119.313 L 309.531 119.400 311.256 120.612 M112.655 190.586 C 107.866 192.293,107.220 194.231,107.209 206.916 C 107.195 222.645,107.730 223.176,123.600 223.185 C 139.454 223.195,140.200 222.458,140.200 206.800 C 140.200 194.379,139.261 191.854,134.111 190.424 C 131.773 189.775,114.566 189.905,112.655 190.586 M174.783 191.095 C 173.145 191.926,172.306 192.688,171.402 194.167 L 170.200 196.135 170.073 205.967 C 169.935 216.739,170.106 217.982,172.037 220.181 C 174.707 223.222,169.107 223.000,243.200 223.000 L 309.400 223.000 311.027 222.129 C 315.636 219.662,316.200 217.969,316.200 206.600 C 316.200 195.782,315.572 193.828,311.286 191.309 L 309.400 190.200 243.181 190.095 L 176.962 189.991 174.783 191.095 M134.713 191.421 C 139.092 193.250,139.800 195.447,139.800 207.200 C 139.800 221.745,138.908 222.583,123.400 222.594 C 108.291 222.604,107.604 221.918,107.604 206.800 C 107.604 195.496,108.230 193.402,112.200 191.408 C 113.985 190.511,132.560 190.522,134.713 191.421 M310.125 191.343 C 311.665 191.986,313.751 193.987,314.712 195.742 C 315.567 197.306,315.961 213.575,315.210 216.362 C 314.635 218.497,312.844 220.510,310.482 221.673 L 308.600 222.600 244.800 222.712 C 176.691 222.831,176.615 222.829,173.836 220.891 C 170.823 218.790,170.600 217.860,170.600 207.400 C 170.600 195.507,171.306 193.137,175.375 191.365 C 177.212 190.565,308.211 190.543,310.125 191.343 M115.024 261.202 C 112.611 261.634,110.226 263.249,108.611 265.545 L 107.400 267.267 107.281 277.926 C 107.133 291.150,107.697 292.964,112.740 295.473 C 115.141 296.668,132.335 296.560,134.600 295.335 C 139.621 292.620,140.381 290.478,140.389 279.000 C 140.398 266.949,139.759 265.032,134.807 262.250 L 132.614 261.018 124.807 260.933 C 120.513 260.887,116.111 261.008,115.024 261.202 M178.400 261.170 C 171.512 262.210,170.000 265.362,170.000 278.681 L 170.000 288.709 171.117 290.847 C 172.381 293.266,174.857 295.369,177.177 295.994 C 178.223 296.275,199.610 296.376,243.460 296.305 L 308.200 296.200 309.818 295.334 C 315.192 292.456,316.197 289.851,316.199 278.800 C 316.200 267.180,315.350 265.031,309.518 261.917 L 307.800 261.000 244.000 260.949 C 208.910 260.921,179.390 261.021,178.400 261.170 M132.840 262.063 C 135.496 262.969,137.486 264.687,138.670 267.098 L 139.800 269.400 139.794 278.800 C 139.787 289.015,139.679 289.627,137.409 292.320 C 134.929 295.260,133.499 295.600,123.600 295.600 C 113.839 295.600,112.907 295.421,110.466 293.080 C 107.853 290.573,107.813 290.383,107.668 279.629 C 107.495 266.803,108.032 265.051,112.878 262.636 C 115.241 261.459,129.837 261.040,132.840 262.063 M309.521 262.521 C 311.216 263.446,313.754 265.984,314.679 267.679 C 315.872 269.865,315.757 287.539,314.535 289.800 C 313.460 291.788,311.503 293.672,309.371 294.769 L 307.741 295.607 242.339 295.504 L 176.937 295.400 175.011 294.200 C 173.671 293.365,172.707 292.330,171.842 290.800 L 170.600 288.600 170.600 278.600 C 170.600 266.428,171.486 264.098,176.855 262.145 C 179.358 261.235,307.832 261.599,309.521 262.521 " stroke="none" fill="#84d0a1" fill-rule="evenodd"></path><path id="path3" d="M26.325 0.972 C 25.733 1.493,24.293 2.233,23.125 2.616 C 13.807 5.669,5.772 14.072,2.177 24.524 C 1.814 25.582,1.160 26.779,0.725 27.184 C 0.245 27.631,-0.008 28.291,0.081 28.860 C 0.288 30.190,1.776 27.838,2.649 24.800 C 5.533 14.763,13.921 6.176,24.125 2.815 C 27.050 1.852,29.718 0.025,28.200 0.025 C 27.760 0.025,26.916 0.451,26.325 0.972 M369.600 0.354 C 369.600 0.933,371.327 1.891,373.882 2.730 C 385.175 6.437,393.284 15.468,395.855 27.200 C 396.575 30.486,396.600 36.231,396.600 199.000 L 396.600 367.400 395.672 371.600 C 393.102 383.223,383.816 392.720,372.097 395.708 L 368.600 396.600 199.000 396.600 L 29.400 396.600 25.806 395.685 C 15.348 393.023,6.400 384.516,2.839 373.850 C 2.203 371.944,1.351 369.893,0.946 369.292 L 0.209 368.200 0.072 369.139 C -0.009 369.693,0.275 370.441,0.765 370.963 C 1.222 371.449,2.049 373.180,2.603 374.809 C 5.855 384.369,14.810 392.939,24.676 395.931 L 28.200 397.000 198.600 397.000 L 369.000 397.000 372.679 396.060 C 383.639 393.261,393.142 383.721,396.049 372.600 L 396.990 369.000 397.098 200.600 C 397.195 51.404,397.138 31.798,396.599 28.674 C 394.457 16.251,386.159 6.314,374.825 2.599 C 373.628 2.207,372.225 1.461,371.706 0.943 C 370.769 0.005,369.600 -0.322,369.600 0.354 M171.000 82.963 C 170.340 83.270,157.921 95.419,143.401 109.961 C 128.410 124.974,116.697 136.400,116.297 136.400 C 115.909 136.400,110.778 131.616,104.896 125.769 C 93.589 114.529,93.424 114.400,90.443 114.400 C 87.888 114.400,86.006 115.688,80.915 120.920 C 75.040 126.959,74.174 129.231,76.161 133.400 C 77.153 135.482,107.421 166.104,109.582 167.212 C 114.252 169.607,120.381 169.063,124.681 165.872 C 128.615 162.952,186.708 104.323,187.573 102.400 C 189.575 97.947,188.583 95.282,182.691 89.295 C 176.622 83.129,173.859 81.632,171.000 82.963 M175.720 83.852 C 177.696 84.859,186.393 93.577,187.240 95.400 C 189.742 100.791,190.744 99.553,155.143 135.059 C 123.357 166.759,123.094 166.999,118.883 167.990 C 112.186 169.566,111.043 168.798,92.532 150.277 C 71.819 129.553,72.077 130.305,82.256 120.353 C 90.885 111.917,90.519 111.813,105.597 126.959 C 113.194 134.591,115.619 136.800,116.397 136.800 C 117.191 136.801,122.895 131.303,143.804 110.384 C 158.325 95.854,170.475 83.797,170.804 83.589 C 171.739 82.998,174.313 83.136,175.720 83.852 M201.800 118.193 C 201.580 118.268,200.900 118.440,200.290 118.575 C 195.639 119.602,194.200 123.532,194.200 135.200 C 194.200 145.900,194.541 147.389,197.631 150.181 C 200.704 152.957,197.648 152.824,255.623 152.706 L 307.800 152.600 310.473 151.334 C 315.878 148.773,316.932 145.899,316.730 134.276 C 316.554 124.150,315.533 121.552,310.694 118.907 C 309.517 118.264,203.619 117.569,201.800 118.193 M310.657 119.486 C 315.305 121.972,316.176 124.446,316.188 135.200 C 316.199 144.954,315.955 146.083,313.249 148.790 C 309.563 152.475,314.293 152.200,254.572 152.200 L 202.143 152.200 199.779 150.991 C 197.683 149.919,197.265 149.491,196.088 147.219 L 194.762 144.656 194.881 134.828 C 195.014 123.826,195.341 122.408,198.251 120.188 C 200.488 118.482,200.863 118.471,255.800 118.537 L 309.000 118.600 310.657 119.486 M112.212 190.238 C 110.222 190.966,108.630 192.472,107.599 194.602 C 106.675 196.511,106.368 216.003,107.225 218.274 C 108.909 222.729,113.992 224.272,125.734 223.893 C 139.480 223.450,141.005 221.741,140.991 206.800 C 140.979 194.737,139.777 191.658,134.457 190.064 C 132.067 189.348,114.262 189.487,112.212 190.238 M175.000 190.360 C 170.203 192.586,169.600 194.436,169.600 206.924 C 169.600 220.421,170.394 222.016,177.809 223.412 C 183.343 224.455,307.426 224.099,310.186 223.033 C 315.864 220.841,316.933 218.027,316.736 205.800 C 316.562 195.025,315.265 191.988,310.085 190.223 C 307.003 189.172,177.275 189.304,175.000 190.360 M134.111 190.424 C 139.261 191.854,140.200 194.379,140.200 206.800 C 140.200 222.458,139.454 223.195,123.600 223.185 C 107.730 223.176,107.195 222.645,107.209 206.916 C 107.220 194.231,107.866 192.293,112.655 190.586 C 114.566 189.905,131.773 189.775,134.111 190.424 M311.286 191.309 C 315.572 193.828,316.200 195.782,316.200 206.600 C 316.200 217.969,315.636 219.662,311.027 222.129 L 309.400 223.000 243.200 223.000 C 169.107 223.000,174.707 223.222,172.037 220.181 C 170.106 217.982,169.935 216.739,170.073 205.967 L 170.200 196.135 171.402 194.167 C 172.306 192.688,173.145 191.926,174.783 191.095 L 176.962 189.991 243.181 190.095 L 309.400 190.200 311.286 191.309 M114.200 260.831 C 111.990 261.353,108.843 263.849,107.729 265.963 C 106.441 268.408,106.296 288.254,107.546 291.000 C 108.475 293.039,110.969 295.293,113.269 296.171 C 116.573 297.433,132.817 296.943,135.258 295.508 C 140.303 292.542,141.000 290.490,141.000 278.600 L 141.000 269.000 139.649 266.508 C 138.300 264.022,137.047 262.793,134.400 261.362 C 132.806 260.499,117.324 260.092,114.200 260.831 M177.567 260.769 C 174.739 261.328,171.340 264.210,170.150 267.058 C 169.463 268.703,169.354 288.092,170.022 289.874 C 170.804 291.959,172.479 293.967,174.537 295.288 L 176.582 296.600 242.591 296.600 L 308.600 296.600 310.433 295.522 C 315.755 292.394,316.600 290.048,316.600 278.400 C 316.600 267.039,315.619 264.562,309.917 261.517 L 308.200 260.600 243.600 260.543 C 208.070 260.512,178.355 260.613,177.567 260.769 M134.807 262.250 C 139.759 265.032,140.398 266.949,140.389 279.000 C 140.381 290.478,139.621 292.620,134.600 295.335 C 132.335 296.560,115.141 296.668,112.740 295.473 C 107.697 292.964,107.133 291.150,107.281 277.926 L 107.400 267.267 108.611 265.545 C 111.514 261.417,113.636 260.813,124.807 260.933 L 132.614 261.018 134.807 262.250 M309.518 261.917 C 315.350 265.031,316.200 267.180,316.199 278.800 C 316.197 289.851,315.192 292.456,309.818 295.334 L 308.200 296.200 243.460 296.305 C 199.610 296.376,178.223 296.275,177.177 295.994 C 174.857 295.369,172.381 293.266,171.117 290.847 L 170.000 288.709 170.000 278.681 C 170.000 266.553,170.625 264.613,175.342 262.109 C 177.571 260.927,179.279 260.898,244.000 260.949 L 307.800 261.000 309.518 261.917 " stroke="none" fill="#73cc93" fill-rule="evenodd"></path><path id="path4" d="M24.400 0.351 C 24.400 0.545,23.815 0.936,23.100 1.220 C 12.953 5.258,4.461 13.663,1.631 22.468 C 1.371 23.275,0.898 24.152,0.580 24.417 C 0.261 24.682,0.000 25.186,0.000 25.538 C 0.000 26.678,1.404 24.797,2.192 22.600 C 5.531 13.299,13.900 4.971,22.852 2.045 C 24.564 1.485,26.169 0.000,25.062 0.000 C 24.698 0.000,24.400 0.158,24.400 0.351 M372.754 0.544 C 373.002 0.843,374.832 1.763,376.821 2.587 C 388.685 7.505,396.264 18.086,397.603 31.600 C 398.135 36.969,398.127 360.868,397.595 366.400 C 395.902 384.003,383.598 396.266,366.253 397.638 C 363.229 397.877,298.776 397.980,195.200 397.911 L 29.000 397.800 25.800 396.902 C 14.865 393.835,5.961 385.687,2.016 375.136 C 1.149 372.817,0.000 371.316,0.000 372.502 C -0.000 372.832,0.261 373.318,0.580 373.583 C 0.898 373.848,1.370 374.725,1.629 375.532 C 4.564 384.711,13.652 393.395,24.000 396.909 L 27.800 398.200 196.000 398.312 C 371.953 398.430,369.648 398.451,375.015 396.654 C 383.913 393.675,393.906 384.030,396.173 376.235 C 398.389 368.610,398.200 385.150,398.200 199.000 L 398.200 29.000 397.283 25.600 C 394.327 14.636,385.453 4.673,375.932 1.629 C 375.125 1.370,374.248 0.898,373.983 0.580 C 373.718 0.261,373.232 0.000,372.902 0.000 C 372.441 0.000,372.407 0.126,372.754 0.544 M171.600 83.876 C 171.270 83.993,158.937 96.129,144.193 110.844 C 123.715 131.283,117.161 137.600,116.432 137.600 C 115.721 137.600,112.801 134.955,104.964 127.209 C 90.063 112.483,90.902 112.722,82.591 120.843 C 76.348 126.944,75.273 129.547,77.363 133.507 C 79.103 136.804,109.767 166.323,112.170 167.015 C 115.241 167.899,119.201 167.648,121.857 166.400 C 124.391 165.210,185.159 104.749,186.410 102.174 C 188.395 98.086,187.336 95.452,181.329 89.539 C 176.155 84.446,173.822 83.088,171.600 83.876 M175.516 85.171 C 177.589 86.248,185.434 94.275,186.184 96.087 C 188.129 100.782,189.598 99.022,154.492 134.058 C 119.817 168.664,121.768 166.986,116.200 166.986 C 110.934 166.986,110.973 167.015,94.250 150.429 C 73.279 129.629,73.538 130.363,83.681 120.536 C 90.880 113.562,90.062 113.293,104.261 127.302 C 114.762 137.662,115.679 138.468,116.699 138.224 C 117.448 138.045,126.254 129.509,144.211 111.559 C 175.148 80.633,171.957 83.322,175.516 85.171 M200.200 119.765 C 196.247 121.537,195.452 123.902,195.278 134.417 C 195.082 146.177,196.353 149.581,201.516 151.128 C 204.756 152.098,306.307 151.773,308.952 150.784 C 311.760 149.733,312.944 148.779,314.300 146.471 L 315.400 144.600 315.400 135.169 L 315.400 125.737 314.191 123.781 C 313.525 122.705,312.205 121.279,311.256 120.612 L 309.531 119.400 255.466 119.313 C 210.901 119.242,201.189 119.321,200.200 119.765 M309.313 120.139 C 314.162 122.172,314.800 123.921,314.800 135.200 C 314.800 146.696,314.410 147.769,309.395 150.080 L 307.400 151.000 254.800 151.000 C 204.245 151.000,202.146 150.971,200.800 150.254 C 196.438 147.931,195.800 146.010,195.800 135.200 C 195.800 124.565,196.650 121.901,200.600 120.160 C 202.396 119.369,307.426 119.348,309.313 120.139 M112.200 191.408 C 108.230 193.402,107.604 195.496,107.604 206.800 C 107.604 221.918,108.291 222.604,123.400 222.594 C 138.908 222.583,139.800 221.745,139.800 207.200 C 139.800 195.447,139.092 193.250,134.713 191.421 C 132.560 190.522,113.985 190.511,112.200 191.408 M175.375 191.365 C 171.306 193.137,170.600 195.507,170.600 207.400 C 170.600 217.860,170.823 218.790,173.836 220.891 C 176.615 222.829,176.691 222.831,244.800 222.712 L 308.600 222.600 310.482 221.673 C 312.844 220.510,314.635 218.497,315.210 216.362 C 315.961 213.575,315.567 197.306,314.712 195.742 C 313.751 193.987,311.665 191.986,310.125 191.343 C 308.211 190.543,177.212 190.565,175.375 191.365 M134.313 191.821 C 138.527 193.581,139.200 195.663,139.200 206.926 C 139.200 221.341,138.523 221.996,123.600 221.996 C 108.289 221.996,107.793 221.452,108.068 204.980 C 108.291 191.599,108.639 191.289,123.513 191.234 C 131.085 191.206,133.104 191.316,134.313 191.821 M310.437 192.123 C 311.519 192.689,312.702 193.788,313.500 194.968 L 314.800 196.890 314.800 206.786 C 314.800 218.033,314.780 218.111,311.260 220.585 L 309.531 221.800 244.666 221.919 C 176.203 222.045,176.383 222.048,174.326 220.662 C 171.353 218.658,171.180 217.844,171.296 206.400 L 171.400 196.200 172.538 194.523 C 175.014 190.874,168.095 191.201,242.837 191.200 L 308.674 191.200 310.437 192.123 M112.878 262.636 C 108.032 265.051,107.495 266.803,107.668 279.629 C 107.813 290.383,107.853 290.573,110.466 293.080 C 112.907 295.421,113.839 295.600,123.600 295.600 C 133.499 295.600,134.929 295.260,137.409 292.320 C 139.679 289.627,139.787 289.015,139.794 278.800 L 139.800 269.400 138.670 267.098 C 136.376 262.427,134.053 261.600,123.219 261.600 C 115.131 261.600,114.913 261.622,112.878 262.636 M176.855 262.145 C 171.486 264.098,170.600 266.428,170.600 278.600 L 170.600 288.600 171.842 290.800 C 172.707 292.330,173.671 293.365,175.011 294.200 L 176.937 295.400 242.339 295.504 L 307.741 295.607 309.371 294.769 C 311.503 293.672,313.460 291.788,314.535 289.800 C 315.757 287.539,315.872 269.865,314.679 267.679 C 313.754 265.984,311.216 263.446,309.521 262.521 C 307.832 261.599,179.358 261.235,176.855 262.145 M132.123 262.427 C 137.958 263.911,138.967 266.141,139.127 277.916 C 139.342 293.773,138.097 295.177,123.800 295.189 C 113.490 295.197,111.148 294.419,108.883 290.230 C 108.036 288.664,107.640 272.246,108.371 268.977 C 109.097 265.726,111.642 263.192,115.000 262.374 C 116.894 261.913,130.265 261.954,132.123 262.427 M307.160 262.429 C 309.699 262.973,312.110 264.715,313.619 267.095 L 314.800 268.957 314.800 278.518 C 314.800 289.445,314.742 289.699,311.592 292.531 C 308.427 295.377,313.016 295.201,242.354 295.191 C 178.717 295.183,178.186 295.176,176.407 294.369 C 171.714 292.241,171.209 290.717,171.204 278.687 C 171.199 266.215,172.222 263.829,178.200 262.374 C 180.215 261.883,304.864 261.936,307.160 262.429 " stroke="none" fill="#a4dcbc" fill-rule="evenodd"></path><path id="path5" d="M22.400 0.385 C 22.070 0.571,20.063 1.534,17.939 2.525 C 10.462 6.016,0.021 18.718,0.002 24.349 C -0.002 25.348,1.122 24.050,1.631 22.468 C 4.461 13.663,12.953 5.258,23.100 1.220 C 23.815 0.936,24.400 0.545,24.400 0.351 C 24.400 -0.087,23.201 -0.066,22.400 0.385 M373.983 0.580 C 374.248 0.898,375.125 1.370,375.932 1.629 C 385.453 4.673,394.327 14.636,397.283 25.600 L 398.200 29.000 398.200 199.000 C 398.200 385.150,398.389 368.610,396.173 376.235 C 393.906 384.030,383.913 393.675,375.015 396.654 C 369.648 398.451,371.953 398.430,196.000 398.312 L 27.800 398.200 24.000 396.909 C 13.652 393.395,4.564 384.711,1.629 375.532 C 1.039 373.687,0.000 372.682,0.000 373.956 C 0.000 374.426,0.158 375.123,0.351 375.505 C 0.544 375.887,1.465 377.773,2.399 379.695 C 6.241 387.608,14.320 394.593,23.400 397.852 L 26.600 399.000 195.778 399.106 C 292.784 399.166,366.672 399.059,368.978 398.854 C 381.611 397.732,393.330 387.807,397.853 374.400 L 399.000 371.000 399.000 199.000 L 399.000 27.000 397.727 23.300 C 394.270 13.250,384.554 2.941,376.696 0.986 C 376.089 0.835,375.494 0.551,375.373 0.356 C 375.252 0.160,374.781 0.000,374.327 0.000 C 373.652 0.000,373.589 0.105,373.983 0.580 M171.211 84.785 C 170.887 84.990,158.737 97.038,144.211 111.559 C 126.254 129.509,117.448 138.045,116.699 138.224 C 115.679 138.468,114.762 137.662,104.261 127.302 C 90.062 113.293,90.880 113.562,83.681 120.536 C 76.616 127.381,75.645 129.838,78.350 134.022 C 80.372 137.148,108.703 164.915,111.000 166.022 C 113.826 167.384,118.547 167.391,121.400 166.037 C 124.556 164.539,185.334 103.759,186.192 101.243 C 187.494 97.421,186.779 95.824,181.284 90.271 C 175.940 84.870,173.326 83.447,171.211 84.785 M176.664 87.146 C 182.038 91.439,185.600 96.026,185.600 98.654 C 185.600 101.754,184.880 102.544,153.711 133.641 C 119.830 167.444,121.508 166.003,116.021 165.996 C 111.401 165.991,111.001 165.674,93.730 148.332 C 74.683 129.207,75.143 130.331,83.107 122.384 C 90.896 114.611,89.607 114.264,103.177 127.774 C 114.476 139.022,115.564 139.888,117.500 139.175 C 118.105 138.951,130.555 126.806,145.166 112.184 C 175.401 81.928,172.760 84.028,176.664 87.146 M200.600 120.160 C 196.650 121.901,195.800 124.565,195.800 135.200 C 195.800 146.010,196.438 147.931,200.800 150.254 C 202.146 150.971,204.245 151.000,254.800 151.000 L 307.400 151.000 309.395 150.080 C 314.410 147.769,314.800 146.696,314.800 135.200 C 314.800 123.921,314.162 122.172,309.313 120.139 C 307.426 119.348,202.396 119.369,200.600 120.160 M309.000 121.160 C 313.360 123.183,314.000 124.925,314.000 134.776 C 314.000 145.952,313.243 147.830,308.130 149.346 C 304.251 150.495,202.939 150.170,200.600 149.000 C 197.442 147.421,197.000 145.727,197.000 135.200 C 197.000 124.525,197.415 122.999,200.785 121.300 L 202.570 120.400 254.985 120.409 C 305.192 120.417,307.467 120.449,309.000 121.160 M113.042 191.615 C 112.405 191.806,111.354 192.466,110.706 193.081 C 108.337 195.333,108.220 195.858,108.068 204.980 C 107.793 221.452,108.289 221.996,123.600 221.996 C 138.523 221.996,139.200 221.341,139.200 206.926 C 139.200 195.663,138.527 193.581,134.313 191.821 C 132.642 191.123,115.249 190.955,113.042 191.615 M175.338 192.023 C 174.391 192.492,173.186 193.567,172.538 194.523 L 171.400 196.200 171.296 206.400 C 171.180 217.844,171.353 218.658,174.326 220.662 C 176.383 222.048,176.203 222.045,244.666 221.919 L 309.531 221.800 311.260 220.585 C 314.780 218.111,314.800 218.033,314.800 206.786 L 314.800 196.890 313.500 194.968 C 312.702 193.788,311.519 192.689,310.437 192.123 L 308.674 191.200 242.837 191.200 C 177.199 191.201,176.995 191.203,175.338 192.023 M134.947 193.162 C 137.727 194.890,137.981 196.023,137.991 206.713 C 138.001 217.382,137.848 218.095,135.161 219.873 L 133.458 221.000 123.629 221.000 C 108.928 221.000,109.204 221.272,109.201 206.780 L 109.200 196.960 110.245 195.348 C 112.283 192.206,113.078 192.024,124.400 192.122 C 133.142 192.198,133.444 192.228,134.947 193.162 M309.800 192.864 C 313.613 194.975,314.000 196.265,314.000 206.866 C 314.000 218.005,312.978 220.213,307.459 221.000 C 302.944 221.643,177.019 221.010,175.800 220.338 C 172.381 218.452,171.848 216.287,172.078 205.200 C 172.280 195.454,172.825 193.957,176.674 192.576 C 179.223 191.662,308.132 191.941,309.800 192.864 M115.000 262.374 C 111.642 263.192,109.097 265.726,108.371 268.977 C 107.640 272.246,108.036 288.664,108.883 290.230 C 111.148 294.419,113.490 295.197,123.800 295.189 C 138.097 295.177,139.342 293.773,139.127 277.916 C 138.967 266.141,137.958 263.911,132.123 262.427 C 130.265 261.954,116.894 261.913,115.000 262.374 M178.200 262.374 C 172.222 263.829,171.199 266.215,171.204 278.687 C 171.209 290.717,171.714 292.241,176.407 294.369 C 178.186 295.176,178.717 295.183,242.354 295.191 C 313.016 295.201,308.427 295.377,311.592 292.531 C 314.742 289.699,314.800 289.445,314.800 278.518 L 314.800 268.957 313.619 267.095 C 312.110 264.715,309.699 262.973,307.160 262.429 C 304.864 261.936,180.215 261.883,178.200 262.374 M132.511 263.624 C 137.268 264.945,138.000 266.950,138.000 278.661 C 138.000 289.962,137.781 290.792,134.256 292.813 L 132.200 293.992 123.585 293.996 C 113.494 294.001,112.310 293.680,110.313 290.400 L 109.218 288.600 109.176 278.744 C 109.126 267.036,109.535 265.772,114.000 263.838 C 115.688 263.107,130.050 262.941,132.511 263.624 M307.753 263.636 C 312.926 265.072,314.092 268.055,313.928 279.431 L 313.800 288.261 312.697 289.927 C 312.090 290.843,310.843 292.090,309.926 292.697 L 308.259 293.800 243.629 293.914 C 173.000 294.040,177.002 294.142,174.798 292.151 C 172.377 289.963,172.200 289.026,172.200 278.400 C 172.200 266.934,172.736 265.327,177.074 263.780 C 179.065 263.069,305.213 262.930,307.753 263.636 " stroke="none" fill="#b4e4c4" fill-rule="evenodd"></path><path id="path6" d="M27.925 0.972 C 27.334 1.492,25.624 2.322,24.125 2.815 C 13.905 6.181,5.486 14.812,2.649 24.831 C 2.302 26.058,1.564 27.731,1.009 28.549 C -0.219 30.358,-0.297 30.987,0.779 30.411 C 1.311 30.127,2.003 28.571,2.967 25.497 C 6.527 14.140,13.798 6.674,24.888 2.990 C 28.836 1.678,31.627 -0.017,29.789 0.013 C 29.355 0.020,28.516 0.451,27.925 0.972 M368.233 0.541 C 368.473 1.166,371.225 2.454,374.400 3.426 C 385.008 6.674,393.137 16.108,395.429 27.832 L 396.406 32.824 396.296 200.312 L 396.187 367.800 395.267 371.790 C 392.742 382.740,383.392 392.362,372.449 395.272 L 369.000 396.190 201.000 396.310 C 20.412 396.439,29.818 396.531,23.276 394.584 C 15.482 392.266,6.074 382.758,3.623 374.722 C 2.175 369.975,1.566 368.423,0.882 367.739 C -0.113 366.744,-0.183 367.785,0.791 369.102 C 1.255 369.730,2.166 371.835,2.816 373.780 C 6.401 384.520,15.318 393.015,25.806 395.685 L 29.400 396.600 199.000 396.600 L 368.600 396.600 372.097 395.708 C 383.816 392.720,393.102 383.223,395.672 371.600 L 396.600 367.400 396.600 199.000 C 396.600 36.231,396.575 30.486,395.855 27.200 C 393.260 15.358,384.866 6.122,373.499 2.602 C 372.233 2.210,370.739 1.465,370.178 0.945 C 369.069 -0.084,367.900 -0.326,368.233 0.541 M171.068 82.507 C 170.445 82.780,158.025 94.929,143.468 109.505 C 128.910 124.081,116.738 136.005,116.417 136.003 C 116.097 136.001,111.147 131.346,105.417 125.657 C 93.433 113.759,93.734 114.000,90.895 114.000 C 87.794 114.000,86.395 114.911,80.981 120.461 C 74.509 127.096,73.694 129.191,75.794 133.800 C 77.093 136.649,107.239 166.507,110.162 167.839 C 115.071 170.076,120.919 169.346,125.202 165.960 C 129.611 162.476,186.820 104.734,187.821 102.759 C 190.228 98.008,189.171 95.269,182.334 88.552 C 176.180 82.504,173.881 81.271,171.068 82.507 M176.600 83.796 C 178.850 85.112,187.058 93.562,187.791 95.316 C 188.629 97.323,188.539 100.251,187.573 102.400 C 186.708 104.323,128.615 162.952,124.681 165.872 C 120.381 169.063,114.252 169.607,109.582 167.212 C 107.421 166.104,77.153 135.482,76.161 133.400 C 74.174 129.231,75.040 126.959,80.915 120.920 C 86.006 115.688,87.888 114.400,90.443 114.400 C 93.424 114.400,93.589 114.529,104.896 125.769 C 110.778 131.616,115.909 136.400,116.297 136.400 C 116.697 136.400,128.410 124.974,143.401 109.961 C 173.540 79.776,171.917 81.056,176.600 83.796 M228.500 117.900 C 242.965 117.958,266.635 117.958,281.100 117.900 C 295.565 117.842,283.730 117.794,254.800 117.794 C 225.870 117.794,214.035 117.842,228.500 117.900 M198.794 118.736 C 196.604 119.894,194.423 123.348,194.206 126.003 L 194.027 128.200 194.371 126.368 C 195.059 122.695,197.775 119.129,200.307 118.571 C 202.069 118.183,202.262 118.065,201.194 118.032 C 200.640 118.014,199.560 118.331,198.794 118.736 M309.108 118.392 C 314.804 119.743,316.800 124.161,316.800 135.415 C 316.800 146.040,315.676 148.869,310.473 151.334 L 307.800 152.600 255.400 152.808 L 203.000 153.016 255.600 153.008 L 308.200 153.000 310.457 151.892 C 313.516 150.389,315.789 147.850,316.614 145.011 C 317.551 141.788,317.297 126.553,316.268 124.291 C 314.835 121.140,310.969 117.940,308.716 118.041 C 308.032 118.072,308.132 118.161,309.108 118.392 M193.765 135.600 C 193.765 139.450,193.825 141.025,193.898 139.100 C 193.971 137.175,193.971 134.025,193.898 132.100 C 193.825 130.175,193.765 131.750,193.765 135.600 M194.044 143.640 C 193.882 147.483,197.774 152.162,201.543 152.655 C 202.811 152.820,202.725 152.745,200.878 152.077 C 197.440 150.831,195.174 148.092,194.417 144.263 C 194.188 143.109,194.074 142.918,194.044 143.640 M114.361 189.183 C 107.480 190.429,106.420 192.777,106.409 206.815 C 106.395 223.093,107.653 224.376,123.636 224.393 C 134.301 224.404,138.018 223.088,140.269 218.503 L 141.400 216.200 141.395 206.800 C 141.388 194.773,140.239 191.803,134.800 189.757 C 132.761 188.991,117.755 188.569,114.361 189.183 M177.337 189.213 C 174.923 189.696,172.593 191.001,171.436 192.518 C 169.305 195.311,169.199 195.994,169.209 206.887 C 169.219 218.269,169.379 219.070,172.139 221.493 C 175.425 224.378,170.744 224.200,243.200 224.200 L 308.200 224.200 310.457 223.287 C 316.140 220.989,317.195 218.427,317.198 206.915 C 317.201 195.420,316.104 192.526,310.801 190.034 L 308.600 189.000 243.800 188.940 C 208.160 188.907,178.252 189.030,177.337 189.213 M134.457 190.064 C 139.777 191.658,140.979 194.737,140.991 206.800 C 141.005 221.741,139.480 223.450,125.734 223.893 C 113.992 224.272,108.909 222.729,107.225 218.274 C 106.368 216.003,106.675 196.511,107.599 194.602 C 108.630 192.472,110.222 190.966,112.212 190.238 C 114.262 189.487,132.067 189.348,134.457 190.064 M310.085 190.223 C 315.265 191.988,316.562 195.025,316.736 205.800 C 316.933 218.027,315.864 220.841,310.186 223.033 C 307.426 224.099,183.343 224.455,177.809 223.412 C 170.394 222.016,169.600 220.421,169.600 206.924 C 169.600 194.436,170.203 192.586,175.000 190.360 C 177.275 189.304,307.003 189.172,310.085 190.223 M119.700 260.298 C 121.845 260.370,125.355 260.370,127.500 260.298 C 129.645 260.226,127.890 260.167,123.600 260.167 C 119.310 260.167,117.555 260.226,119.700 260.298 M177.559 260.373 C 175.514 260.773,172.710 262.518,171.442 264.180 C 169.218 267.097,169.153 267.543,169.282 279.163 L 169.400 289.865 170.609 291.819 C 172.037 294.128,174.624 296.214,176.777 296.794 C 177.823 297.075,199.336 297.176,243.460 297.105 L 308.600 297.000 310.200 296.132 C 312.805 294.720,315.497 291.664,316.400 289.096 C 317.620 285.626,317.592 271.478,316.359 268.182 C 314.963 264.450,311.120 260.918,308.089 260.580 C 306.726 260.428,306.702 260.442,307.800 260.740 C 314.763 262.632,316.600 266.319,316.600 278.400 C 316.600 290.048,315.755 292.394,310.433 295.522 L 308.600 296.600 242.591 296.600 L 176.582 296.600 174.537 295.288 C 172.479 293.967,170.804 291.959,170.022 289.874 C 169.354 288.092,169.463 268.703,170.150 267.058 C 170.937 265.174,173.016 262.942,175.155 261.685 L 177.000 260.600 241.800 260.395 L 306.600 260.191 242.800 260.141 C 207.710 260.114,178.352 260.219,177.559 260.373 M112.542 260.979 C 107.164 263.319,106.418 265.466,106.418 278.600 C 106.418 291.821,107.016 293.634,112.239 296.225 C 114.746 297.469,132.666 297.397,135.000 296.134 C 140.496 293.159,141.400 290.711,141.400 278.800 L 141.400 269.000 140.317 266.795 C 138.631 263.361,134.870 260.341,132.406 260.441 C 131.478 260.479,131.493 260.504,132.600 260.771 C 135.599 261.495,137.981 263.434,139.649 266.508 L 141.000 269.000 141.000 278.600 C 141.000 290.490,140.303 292.542,135.258 295.508 C 132.817 296.943,116.573 297.433,113.269 296.171 C 110.969 295.293,108.475 293.039,107.546 291.000 C 106.296 288.254,106.441 268.408,107.729 265.963 C 108.849 263.838,112.004 261.343,114.200 260.847 C 115.292 260.601,115.482 260.477,114.800 260.458 C 114.250 260.444,113.234 260.678,112.542 260.979 " stroke="none" fill="#64c48c" fill-rule="evenodd"></path><path id="path7" d="M29.754 0.823 C 29.302 1.276,27.112 2.251,24.888 2.990 C 13.798 6.674,6.527 14.140,2.967 25.497 C 2.003 28.571,1.311 30.127,0.779 30.411 C -0.028 30.843,-0.304 32.000,0.400 32.000 C 1.405 32.000,2.352 30.227,3.199 26.759 C 6.017 15.219,14.469 6.400,25.556 3.433 C 29.213 2.454,30.788 1.797,31.294 1.040 C 32.136 -0.221,30.963 -0.386,29.754 0.823 M366.406 0.300 C 366.429 1.437,367.803 2.149,372.300 3.352 C 384.506 6.619,392.644 15.640,395.042 28.562 L 396.000 33.724 396.000 199.174 L 396.000 364.625 394.994 369.874 C 392.402 383.403,382.952 392.823,369.595 395.190 C 365.000 396.005,364.574 396.006,197.595 395.896 L 30.200 395.785 26.429 394.890 C 15.625 392.327,5.916 382.744,3.441 372.200 C 2.568 368.483,1.676 366.513,0.755 366.272 C -0.219 366.018,-0.222 366.832,0.749 367.663 C 1.526 368.329,2.113 369.770,3.623 374.722 C 6.074 382.758,15.482 392.266,23.276 394.584 C 29.818 396.531,20.412 396.439,201.000 396.310 L 369.000 396.190 372.449 395.272 C 383.392 392.362,392.742 382.740,395.267 371.790 L 396.187 367.800 396.296 200.312 L 396.406 32.824 395.429 27.832 C 393.095 15.895,385.004 6.654,373.913 3.257 C 370.771 2.295,368.729 1.312,368.280 0.546 C 367.947 -0.022,366.395 -0.226,366.406 0.300 M170.600 82.170 C 169.940 82.466,157.614 94.519,143.210 108.954 C 128.805 123.389,116.755 135.200,116.432 135.200 C 116.109 135.200,111.065 130.460,105.222 124.667 C 90.601 110.170,90.244 110.107,80.382 120.264 C 74.004 126.834,73.089 129.397,75.440 134.113 C 76.711 136.663,105.872 166.041,108.809 167.729 C 113.946 170.683,120.253 170.257,125.143 166.626 C 128.558 164.091,187.455 104.735,188.361 102.916 C 190.784 98.050,189.455 94.701,182.328 87.715 C 176.423 81.926,173.852 80.710,170.600 82.170 M176.186 83.086 C 177.937 83.976,187.129 93.130,188.034 94.884 C 189.145 97.037,189.056 100.322,187.821 102.759 C 186.820 104.734,129.611 162.476,125.202 165.960 C 120.919 169.346,115.071 170.076,110.162 167.839 C 107.239 166.507,77.093 136.649,75.794 133.800 C 73.694 129.191,74.509 127.096,80.981 120.461 C 86.395 114.911,87.794 114.000,90.895 114.000 C 93.734 114.000,93.433 113.759,105.417 125.657 C 111.147 131.346,116.097 136.001,116.417 136.003 C 116.738 136.005,128.910 124.081,143.468 109.505 C 173.255 79.680,171.800 80.855,176.186 83.086 M200.800 117.568 C 198.171 118.101,196.002 119.991,194.335 123.200 C 193.428 124.947,193.400 125.297,193.400 135.039 L 193.400 145.078 194.804 147.838 C 197.983 154.085,193.438 153.667,256.600 153.520 L 308.600 153.400 310.886 152.278 C 316.486 149.528,317.600 146.688,317.600 135.169 C 317.600 124.199,316.604 121.400,311.671 118.500 L 309.800 117.400 256.000 117.342 C 226.410 117.310,201.570 117.411,200.800 117.568 M311.027 118.671 C 315.956 121.309,316.917 123.774,317.111 134.280 C 317.333 146.263,316.288 149.028,310.457 151.892 L 308.200 153.000 256.230 153.107 C 196.153 153.231,198.691 153.408,195.870 148.897 C 192.812 144.007,192.661 126.580,195.637 121.943 C 198.568 117.374,194.349 117.668,256.000 117.739 L 309.400 117.800 311.027 118.671 M112.473 189.161 C 106.715 191.149,106.020 193.043,106.009 206.774 C 105.995 223.801,107.236 225.019,124.268 224.705 C 135.532 224.497,137.886 223.659,140.715 218.845 L 141.800 217.000 141.800 207.000 C 141.800 193.815,140.531 190.864,134.079 189.054 C 130.526 188.057,115.453 188.132,112.473 189.161 M175.065 189.379 C 172.219 190.549,171.437 191.226,169.957 193.800 L 168.808 195.800 168.813 206.600 C 168.818 218.741,168.953 219.447,171.732 221.886 C 175.040 224.791,169.957 224.588,242.384 224.705 L 307.367 224.810 309.953 223.949 C 316.619 221.731,317.675 219.326,317.520 206.732 L 317.400 197.000 316.200 194.617 C 314.788 191.813,313.027 190.301,309.897 189.200 C 307.655 188.412,306.612 188.400,242.510 188.409 L 177.400 188.419 175.065 189.379 M134.800 189.757 C 140.239 191.803,141.388 194.773,141.395 206.800 L 141.400 216.200 140.269 218.503 C 138.018 223.088,134.301 224.404,123.636 224.393 C 107.653 224.376,106.395 223.093,106.409 206.815 C 106.419 194.062,106.891 192.428,111.206 190.197 C 114.200 188.648,131.018 188.335,134.800 189.757 M310.801 190.034 C 316.104 192.526,317.201 195.420,317.198 206.915 C 317.195 218.427,316.140 220.989,310.457 223.287 L 308.200 224.200 243.200 224.200 C 170.744 224.200,175.425 224.378,172.139 221.493 C 169.379 219.070,169.219 218.269,169.209 206.887 C 169.198 194.621,169.810 192.538,174.061 190.369 C 176.931 188.905,178.147 188.880,243.800 188.940 L 308.600 189.000 310.801 190.034 M113.164 260.205 C 107.067 262.137,105.999 264.822,106.002 278.226 C 106.005 291.071,106.072 291.414,109.190 294.468 C 112.260 297.476,112.817 297.595,123.821 297.598 C 134.298 297.600,135.584 297.286,138.557 293.995 C 141.748 290.462,141.800 290.221,141.800 278.800 L 141.800 268.600 140.620 266.271 C 139.336 263.737,137.714 262.104,135.089 260.704 C 132.908 259.541,116.443 259.166,113.164 260.205 M177.000 259.971 C 170.147 261.656,168.797 264.730,168.809 278.626 C 168.820 291.962,169.466 293.867,174.896 296.573 L 176.957 297.600 242.579 297.591 C 306.214 297.583,308.251 297.559,309.876 296.821 C 312.438 295.658,315.176 292.905,316.460 290.200 L 317.599 287.800 317.600 278.915 C 317.600 267.068,316.166 263.516,310.200 260.586 C 308.535 259.768,180.233 259.176,177.000 259.971 M134.932 261.191 C 140.471 264.009,141.400 266.539,141.400 278.800 C 141.400 290.711,140.496 293.159,135.000 296.134 C 132.666 297.397,114.746 297.469,112.239 296.225 C 107.027 293.640,106.420 291.811,106.409 278.687 C 106.398 265.725,106.767 264.476,111.474 261.557 C 114.567 259.639,131.366 259.376,134.932 261.191 M309.800 260.991 C 315.705 263.912,317.200 267.475,317.200 278.625 C 317.200 289.757,315.883 293.050,310.200 296.132 L 308.600 297.000 243.460 297.105 C 199.336 297.176,177.823 297.075,176.777 296.794 C 174.624 296.214,172.037 294.128,170.609 291.819 L 169.400 289.865 169.282 279.163 C 169.153 267.543,169.218 267.097,171.442 264.180 C 172.708 262.520,175.510 260.775,177.559 260.370 C 181.556 259.579,308.148 260.174,309.800 260.991 " stroke="none" fill="#5cc484" fill-rule="evenodd"></path><path id="path8" d="M31.418 0.743 C 31.134 1.639,29.255 2.482,25.083 3.583 C 14.811 6.297,5.884 15.528,3.405 26.000 C 2.436 30.092,1.822 31.476,0.837 31.788 C -0.243 32.131,-0.382 34.342,0.681 34.256 C 2.336 34.121,3.819 31.329,4.431 27.200 C 6.009 16.550,16.502 5.980,27.100 4.364 C 28.915 4.088,30.400 3.713,30.400 3.531 C 30.400 3.349,30.646 3.200,30.946 3.200 C 31.999 3.200,33.537 1.644,33.316 0.800 C 33.052 -0.207,31.732 -0.247,31.418 0.743 M365.200 0.600 C 365.200 0.930,365.013 1.200,364.784 1.200 C 362.452 1.200,367.889 3.850,371.400 4.425 C 381.987 6.159,391.838 16.467,393.887 27.957 C 394.705 32.545,395.222 363.376,394.416 366.661 C 394.192 367.574,393.825 369.614,393.601 371.194 C 392.145 381.462,381.690 391.766,370.560 393.902 C 364.517 395.062,35.540 395.165,28.600 394.009 C 16.344 391.967,6.018 382.001,4.408 370.659 C 4.138 368.757,3.756 367.200,3.559 367.200 C 3.361 367.200,3.197 366.975,3.194 366.700 C 3.182 365.707,2.436 365.048,1.230 364.965 C -0.160 364.869,-0.547 365.932,0.755 366.272 C 1.676 366.513,2.568 368.483,3.441 372.200 C 5.916 382.744,15.625 392.327,26.429 394.890 L 30.200 395.785 197.595 395.896 C 364.574 396.006,365.000 396.005,369.595 395.190 C 382.952 392.823,392.402 383.403,394.994 369.874 L 396.000 364.625 396.000 199.174 L 396.000 33.724 395.042 28.562 C 392.735 16.130,383.947 6.087,373.200 3.601 C 369.490 2.743,366.860 1.620,366.593 0.779 C 366.303 -0.134,365.200 -0.276,365.200 0.600 M170.946 80.766 C 169.617 81.099,167.200 82.645,167.200 83.162 C 167.200 84.150,116.675 133.961,116.025 133.613 C 115.643 133.409,111.117 128.995,105.966 123.804 C 95.650 113.409,94.123 112.229,90.998 112.229 C 85.107 112.229,73.200 123.919,73.200 129.703 C 73.200 134.355,73.600 134.861,91.170 152.426 L 107.000 168.252 110.200 169.598 C 115.679 171.904,120.863 171.195,125.913 167.450 C 129.941 164.462,188.627 105.112,189.539 103.104 C 191.937 97.823,190.711 94.580,183.663 87.559 C 176.951 80.873,174.898 79.776,170.946 80.766 M175.976 82.423 C 178.038 83.359,186.299 91.263,188.052 93.978 C 189.542 96.286,189.680 100.269,188.361 102.916 C 187.455 104.735,128.558 164.091,125.143 166.626 C 120.253 170.257,113.946 170.683,108.809 167.729 C 105.872 166.041,76.711 136.663,75.440 134.113 C 73.089 129.397,74.004 126.834,80.382 120.264 C 90.244 110.107,90.601 110.170,105.222 124.667 C 111.065 130.460,116.109 135.200,116.432 135.200 C 116.755 135.200,128.805 123.389,143.210 108.954 C 172.708 79.394,171.483 80.385,175.976 82.423 M199.133 116.791 C 197.352 117.329,196.090 118.476,194.304 121.182 L 192.600 123.764 192.600 135.182 L 192.600 146.600 193.734 148.529 C 195.201 151.025,196.957 152.704,199.200 153.756 L 201.000 154.600 254.808 154.600 L 308.617 154.600 311.287 153.285 C 317.710 150.123,318.883 147.179,318.720 134.631 C 318.569 123.000,317.235 119.794,311.459 117.171 C 309.687 116.366,201.749 116.001,199.133 116.791 M311.671 118.500 C 316.604 121.400,317.600 124.199,317.600 135.169 C 317.600 146.688,316.486 149.528,310.886 152.278 L 308.600 153.400 256.600 153.520 C 193.438 153.667,197.983 154.085,194.804 147.838 L 193.400 145.078 193.400 135.039 C 193.400 123.860,193.532 123.231,196.535 120.067 C 199.353 117.098,195.469 117.276,256.000 117.342 L 309.800 117.400 311.671 118.500 M113.200 187.561 C 105.927 189.874,105.000 192.071,105.000 207.000 C 105.000 224.470,106.485 226.006,123.370 225.995 C 140.739 225.984,143.425 223.194,143.127 205.476 C 142.937 194.181,141.772 191.374,136.099 188.547 L 133.800 187.401 124.000 187.322 C 118.610 187.279,113.750 187.386,113.200 187.561 M174.163 188.549 C 168.280 191.368,167.600 193.235,167.600 206.578 C 167.600 220.841,168.368 222.651,175.401 224.952 L 178.603 226.000 243.329 226.000 L 308.056 226.000 310.949 224.796 C 317.748 221.965,318.800 219.629,318.800 207.362 C 318.800 194.210,317.453 191.043,310.692 188.299 L 307.984 187.200 242.481 187.200 L 176.977 187.200 174.163 188.549 M134.079 189.054 C 140.531 190.864,141.800 193.815,141.800 207.000 L 141.800 217.000 140.715 218.845 C 137.886 223.659,135.532 224.497,124.268 224.705 C 107.236 225.019,105.995 223.801,106.009 206.774 C 106.020 193.043,106.715 191.149,112.473 189.161 C 115.453 188.132,130.526 188.057,134.079 189.054 M309.897 189.200 C 313.027 190.301,314.788 191.813,316.200 194.617 L 317.400 197.000 317.520 206.732 C 317.675 219.326,316.619 221.731,309.953 223.949 L 307.367 224.810 242.384 224.705 C 169.957 224.588,175.040 224.791,171.732 221.886 C 168.953 219.447,168.818 218.741,168.813 206.600 L 168.808 195.800 169.957 193.800 C 171.437 191.226,172.219 190.549,175.065 189.379 L 177.400 188.419 242.510 188.409 C 306.612 188.400,307.655 188.412,309.897 189.200 M111.800 259.546 C 109.901 260.410,106.769 263.356,105.736 265.250 C 104.516 267.487,104.624 289.899,105.866 292.218 C 106.842 294.040,109.633 296.763,111.654 297.866 C 113.956 299.122,133.060 298.965,135.691 297.669 C 141.719 294.700,143.000 291.358,143.000 278.600 L 143.000 268.200 141.489 265.541 C 139.835 262.632,137.872 260.703,135.400 259.558 C 133.007 258.450,114.230 258.440,111.800 259.546 M175.000 259.365 C 168.785 262.129,167.605 265.201,167.602 278.627 C 167.599 291.977,168.654 294.857,174.630 297.821 C 176.679 298.838,307.278 299.068,310.129 298.060 C 312.199 297.327,316.630 293.128,317.221 291.337 C 317.478 290.559,317.937 289.445,318.241 288.861 C 318.665 288.048,318.796 285.668,318.798 278.689 L 318.800 269.577 317.394 266.614 C 315.876 263.416,313.069 260.573,310.277 259.407 C 308.227 258.550,176.924 258.509,175.000 259.365 M135.089 260.704 C 137.714 262.104,139.336 263.737,140.620 266.271 L 141.800 268.600 141.800 278.800 C 141.800 290.221,141.748 290.462,138.557 293.995 C 135.584 297.286,134.298 297.600,123.821 297.598 C 112.817 297.595,112.260 297.476,109.190 294.468 C 106.072 291.414,106.005 291.071,106.002 278.226 C 105.999 264.822,107.067 262.137,113.164 260.205 C 116.443 259.166,132.908 259.541,135.089 260.704 M310.200 260.586 C 316.166 263.516,317.600 267.068,317.600 278.915 L 317.599 287.800 316.460 290.200 C 315.176 292.905,312.438 295.658,309.876 296.821 C 308.251 297.559,306.214 297.583,242.579 297.591 L 176.957 297.600 174.896 296.573 C 169.466 293.867,168.820 291.962,168.809 278.626 C 168.797 264.730,170.147 261.656,177.000 259.971 C 180.233 259.176,308.535 259.768,310.200 260.586 " stroke="none" fill="#54c080" fill-rule="evenodd"></path></g></svg>