<?xml version="1.0" encoding="UTF-8" standalone="no"?>

<svg id="svg" version="1.1" xmlns="http://www.w3.org/2000/svg" xmlns:xlink="http://www.w3.org/1999/xlink" width="400" height="389.3333333333333" viewBox="0, 0, 400,389.3333333333333"><g id="svgg"><path id="path0" d="M0.000 194.742 L 0.000 389.484 13.987 389.484 C 24.963 389.484,27.955 389.379,27.887 388.997 C 27.535 387.019,25.950 385.764,22.805 384.975 C 22.233 384.832,21.343 384.254,20.827 383.691 C 17.639 380.217,16.147 378.147,14.804 375.330 C 13.970 373.582,12.667 371.188,11.907 370.010 C 9.417 366.149,9.595 378.357,9.447 200.974 C 9.291 14.190,9.022 27.685,13.012 22.249 C 13.789 21.191,14.777 19.476,15.209 18.437 C 16.130 16.221,21.648 10.868,24.037 9.874 C 24.848 9.537,26.650 8.504,28.043 7.580 C 33.941 3.664,22.397 3.906,202.726 3.907 C 381.135 3.907,372.324 3.737,376.934 7.266 C 377.731 7.875,379.555 8.987,380.987 9.737 C 384.318 11.480,388.911 15.837,389.964 18.252 C 390.398 19.245,391.500 21.116,392.415 22.409 C 396.320 27.929,396.085 16.710,396.087 197.468 C 396.089 375.716,396.272 365.670,392.933 370.822 C 392.042 372.196,390.834 374.331,390.248 375.566 C 389.662 376.802,388.501 378.554,387.668 379.461 C 386.835 380.368,385.774 381.723,385.309 382.473 C 384.330 384.054,383.631 384.533,380.715 385.625 C 378.558 386.432,377.410 387.532,377.410 388.792 C 377.410 389.439,378.141 389.484,388.705 389.484 L 400.000 389.484 400.000 194.742 L 400.000 0.000 200.000 0.000 L 0.000 0.000 0.000 194.742 M235.833 85.884 C 228.815 86.698,226.914 87.199,223.848 89.043 C 222.299 89.974,219.687 91.188,218.043 91.739 C 216.154 92.373,214.435 93.274,213.370 94.189 C 212.443 94.986,210.983 96.089,210.127 96.641 C 209.270 97.193,207.429 98.604,206.037 99.775 C 204.645 100.947,202.692 102.372,201.697 102.941 C 200.426 103.669,199.540 104.586,198.716 106.029 C 198.072 107.158,196.727 109.030,195.728 110.188 C 194.729 111.347,193.392 113.324,192.758 114.582 C 192.123 115.839,190.974 117.565,190.205 118.416 C 189.153 119.580,188.482 120.988,187.495 124.099 C 186.773 126.374,185.561 129.526,184.802 131.104 C 182.617 135.647,182.473 136.955,182.473 152.288 C 182.473 167.303,182.568 168.133,184.648 171.407 C 185.970 173.486,186.176 176.295,185.183 178.688 C 184.760 179.708,171.643 193.113,140.879 223.966 C 87.924 277.074,92.659 271.817,90.573 279.813 L 89.158 285.234 90.564 291.108 C 91.337 294.338,92.234 297.390,92.558 297.890 C 93.917 299.987,100.320 306.622,101.852 307.519 C 106.644 310.328,121.565 310.381,127.167 307.609 C 128.187 307.104,144.565 291.020,174.684 260.946 C 216.996 218.694,220.781 215.016,222.391 214.594 C 224.837 213.953,226.941 214.299,229.211 215.715 C 234.685 219.129,261.349 218.801,269.118 215.223 C 271.161 214.282,274.599 212.974,276.756 212.316 C 279.086 211.606,280.983 210.785,281.428 210.293 C 281.839 209.838,283.358 208.776,284.802 207.932 C 286.246 207.089,288.546 205.450,289.915 204.289 C 291.283 203.128,293.250 201.680,294.285 201.072 C 295.538 200.336,296.539 199.334,297.277 198.078 C 297.887 197.040,299.472 194.918,300.800 193.363 C 306.065 187.193,307.036 185.721,308.363 181.889 C 309.068 179.854,310.237 177.313,310.961 176.241 C 313.494 172.496,314.704 164.321,314.702 150.977 C 314.699 135.836,313.423 131.536,309.359 132.970 C 306.589 133.948,305.573 134.643,304.278 136.445 C 303.583 137.414,302.399 138.586,301.647 139.051 C 300.896 139.515,299.746 140.674,299.091 141.625 C 298.436 142.577,297.236 143.795,296.425 144.332 C 295.613 144.869,294.411 146.058,293.753 146.973 C 293.096 147.889,291.869 149.116,291.028 149.699 C 290.186 150.282,288.960 151.509,288.301 152.425 C 287.643 153.342,286.405 154.576,285.550 155.169 C 284.695 155.761,283.542 156.932,282.988 157.769 C 282.433 158.607,281.305 159.739,280.480 160.285 C 279.655 160.831,278.442 162.026,277.785 162.942 C 277.127 163.858,275.900 165.085,275.059 165.668 C 274.218 166.251,272.984 167.488,272.317 168.416 C 270.228 171.324,265.399 172.529,260.508 171.362 C 258.117 170.792,258.735 171.345,243.701 156.304 C 228.424 141.019,229.186 141.872,228.680 139.512 C 227.261 132.894,228.003 131.220,235.752 123.572 C 236.136 123.192,237.412 121.918,238.587 120.740 C 239.761 119.562,240.874 118.448,241.060 118.265 C 241.246 118.081,242.337 116.984,243.484 115.826 C 244.631 114.668,245.853 113.437,246.200 113.090 C 246.547 112.743,247.795 111.495,248.973 110.317 C 250.152 109.139,251.409 107.891,251.768 107.544 C 252.126 107.197,253.381 105.949,254.555 104.771 C 255.730 103.593,256.869 102.454,257.085 102.240 C 257.819 101.514,261.722 97.569,262.216 97.053 C 262.486 96.771,263.496 95.799,264.460 94.893 C 269.419 90.235,270.467 87.812,267.887 86.969 C 263.013 85.377,245.366 84.780,235.833 85.884 " stroke="none" fill="#fafafb" fill-rule="evenodd"></path><path id="path1" d="M39.612 4.318 C 33.873 4.706,31.262 5.442,28.043 7.580 C 26.650 8.504,24.848 9.537,24.037 9.874 C 21.648 10.868,16.130 16.221,15.209 18.437 C 14.777 19.476,13.789 21.191,13.012 22.249 C 9.022 27.685,9.291 14.190,9.447 200.974 C 9.595 378.357,9.417 366.149,11.907 370.010 C 12.667 371.188,13.970 373.582,14.804 375.330 C 16.147 378.147,17.639 380.217,20.827 383.691 C 21.343 384.254,22.233 384.832,22.805 384.975 C 25.891 385.750,27.745 387.198,27.829 388.900 C 27.839 389.114,29.036 389.341,30.488 389.405 C 33.057 389.517,33.123 389.496,32.957 388.626 C 32.519 386.331,31.123 385.320,26.892 384.228 C 23.284 383.297,22.434 382.747,21.031 380.439 C 20.343 379.309,19.361 377.935,18.847 377.387 C 18.333 376.838,17.251 374.910,16.443 373.102 C 15.636 371.294,14.338 368.676,13.559 367.283 C 11.164 363.002,11.294 372.795,11.309 197.199 C 11.324 15.252,11.010 32.155,14.504 25.122 C 15.674 22.765,16.837 20.312,17.087 19.669 C 18.560 15.890,29.498 8.828,37.196 6.687 C 40.888 5.660,364.691 5.687,368.297 6.714 C 372.879 8.020,381.327 12.315,383.275 14.328 C 384.252 15.338,385.654 16.717,386.391 17.394 C 388.834 19.637,393.264 29.765,393.775 34.275 C 394.069 36.872,394.159 86.191,394.078 199.805 C 393.951 377.793,394.139 364.028,391.798 367.315 C 391.365 367.923,390.242 370.078,389.301 372.105 C 388.361 374.131,386.998 376.461,386.273 377.281 C 385.548 378.102,384.477 379.605,383.893 380.621 C 382.727 382.653,381.866 383.215,378.389 384.215 C 374.293 385.393,372.347 386.777,372.347 388.510 C 372.347 390.246,377.102 389.983,377.622 388.218 C 378.000 386.932,378.346 386.692,382.556 384.801 C 383.757 384.261,384.696 383.481,385.273 382.543 C 385.757 381.755,386.835 380.368,387.668 379.461 C 388.501 378.554,389.662 376.802,390.248 375.566 C 390.834 374.331,392.042 372.196,392.933 370.822 C 396.272 365.670,396.089 375.716,396.087 197.468 C 396.085 16.710,396.320 27.929,392.415 22.409 C 391.500 21.116,390.398 19.245,389.964 18.252 C 388.911 15.837,384.318 11.480,380.987 9.737 C 379.555 8.987,377.731 7.875,376.934 7.266 C 374.689 5.547,371.419 4.731,365.030 4.297 C 358.120 3.827,46.577 3.847,39.612 4.318 M238.948 82.577 C 237.235 82.994,233.331 83.864,230.274 84.509 C 224.127 85.807,222.780 86.280,219.888 88.154 C 218.803 88.857,216.687 89.903,215.185 90.478 C 213.683 91.054,211.580 92.249,210.511 93.134 C 209.443 94.018,207.605 95.400,206.426 96.204 C 205.248 97.008,203.934 98.059,203.505 98.539 C 203.077 99.020,201.726 100.094,200.503 100.927 C 199.280 101.760,197.722 103.272,197.039 104.288 C 196.357 105.303,195.223 106.748,194.519 107.498 C 193.815 108.247,192.499 110.175,191.595 111.782 C 190.691 113.389,189.363 115.423,188.644 116.304 C 187.926 117.184,187.012 118.849,186.614 120.004 C 186.217 121.159,185.095 123.688,184.122 125.625 C 179.575 134.674,178.430 158.455,181.903 171.714 C 182.613 174.425,182.636 175.448,182.053 178.289 C 181.949 178.799,164.010 197.053,139.330 221.763 C 90.881 270.271,91.480 269.630,89.733 274.781 C 89.370 275.852,88.500 277.812,87.801 279.136 C 85.615 283.272,85.636 287.535,87.866 292.299 C 88.370 293.375,89.251 295.482,89.824 296.981 C 90.900 299.798,92.853 303.019,93.483 303.019 C 93.681 303.019,94.740 304.139,95.838 305.508 C 99.260 309.778,106.105 312.718,113.340 313.024 C 118.442 313.240,119.137 313.103,125.702 310.584 L 130.470 308.755 169.519 269.632 C 190.996 248.114,209.139 229.969,209.835 229.309 C 210.532 228.650,213.161 226.024,215.678 223.474 C 221.726 217.346,223.423 216.681,228.882 218.302 C 234.058 219.839,249.082 220.889,254.113 220.065 C 255.385 219.857,258.627 219.499,261.319 219.269 C 267.878 218.710,270.510 218.049,274.455 215.968 C 276.282 215.005,278.710 213.945,279.851 213.613 C 280.991 213.282,282.684 212.481,283.611 211.833 C 284.538 211.186,286.524 209.852,288.023 208.870 C 289.523 207.887,291.721 206.190,292.907 205.099 C 294.094 204.008,295.608 202.829,296.271 202.478 C 296.934 202.127,298.219 200.835,299.126 199.607 C 300.033 198.379,301.067 197.083,301.424 196.726 C 301.781 196.369,302.585 195.383,303.212 194.533 C 303.839 193.684,305.087 192.182,305.986 191.195 C 307.794 189.209,308.811 187.386,309.804 184.348 C 310.168 183.237,311.172 181.234,312.035 179.898 C 314.082 176.731,314.241 176.276,315.150 170.983 C 315.573 168.520,316.390 164.927,316.966 162.999 C 317.964 159.661,318.013 159.094,318.004 151.120 L 317.995 142.746 316.172 136.904 C 312.371 124.725,312.721 124.565,287.142 150.143 C 266.855 170.428,267.311 170.051,263.462 169.732 C 260.418 169.479,259.493 168.708,245.555 154.791 C 231.981 141.238,230.545 139.538,230.271 136.689 C 229.909 132.923,229.566 133.338,250.239 112.561 C 272.906 89.780,273.233 89.378,271.291 86.606 C 268.874 83.154,247.506 80.492,238.948 82.577 M261.866 85.898 C 271.113 87.110,271.461 88.317,264.460 94.893 C 263.496 95.799,262.486 96.771,262.216 97.053 C 261.722 97.569,257.819 101.514,257.085 102.240 C 256.869 102.454,255.730 103.593,254.555 104.771 C 253.381 105.949,252.126 107.197,251.768 107.544 C 251.409 107.891,250.152 109.139,248.973 110.317 C 247.795 111.495,246.547 112.743,246.200 113.090 C 245.853 113.437,244.631 114.668,243.484 115.826 C 242.337 116.984,241.246 118.081,241.060 118.265 C 240.874 118.448,239.761 119.562,238.587 120.740 C 237.412 121.918,236.136 123.192,235.752 123.572 C 228.003 131.220,227.261 132.894,228.680 139.512 C 229.186 141.872,228.424 141.019,243.701 156.304 C 258.735 171.345,258.117 170.792,260.508 171.362 C 265.399 172.529,270.228 171.324,272.317 168.416 C 272.984 167.488,274.218 166.251,275.059 165.668 C 275.900 165.085,277.127 163.858,277.785 162.942 C 278.442 162.026,279.655 160.831,280.480 160.285 C 281.305 159.739,282.433 158.607,282.988 157.769 C 283.542 156.932,284.695 155.761,285.550 155.169 C 286.405 154.576,287.643 153.342,288.301 152.425 C 288.960 151.509,290.186 150.282,291.028 149.699 C 291.869 149.116,293.096 147.889,293.753 146.973 C 294.411 146.058,295.613 144.869,296.425 144.332 C 297.236 143.795,298.436 142.577,299.091 141.625 C 299.746 140.674,300.896 139.515,301.647 139.051 C 302.399 138.586,303.583 137.414,304.278 136.445 C 306.979 132.684,311.649 131.490,312.948 134.228 C 316.320 141.334,314.948 170.345,310.961 176.241 C 310.237 177.313,309.068 179.854,308.363 181.889 C 307.036 185.721,306.065 187.193,300.800 193.363 C 299.472 194.918,297.887 197.040,297.277 198.078 C 296.539 199.334,295.538 200.336,294.285 201.072 C 293.250 201.680,291.283 203.128,289.915 204.289 C 288.546 205.450,286.246 207.089,284.802 207.932 C 283.358 208.776,281.839 209.838,281.428 210.293 C 280.983 210.785,279.086 211.606,276.756 212.316 C 274.599 212.974,271.161 214.282,269.118 215.223 C 261.349 218.801,234.685 219.129,229.211 215.715 C 226.941 214.299,224.837 213.953,222.391 214.594 C 220.781 215.016,216.996 218.694,174.684 260.946 C 144.565 291.020,128.187 307.104,127.167 307.609 C 121.565 310.381,106.644 310.328,101.852 307.519 C 100.320 306.622,93.917 299.987,92.558 297.890 C 92.234 297.390,91.337 294.338,90.564 291.108 L 89.158 285.234 90.573 279.813 C 92.659 271.817,87.924 277.074,140.879 223.966 C 171.643 193.113,184.760 179.708,185.183 178.688 C 186.176 176.295,185.970 173.486,184.648 171.407 C 182.568 168.133,182.473 167.303,182.473 152.288 C 182.473 136.955,182.617 135.647,184.802 131.104 C 185.561 129.526,186.773 126.374,187.495 124.099 C 188.482 120.988,189.153 119.580,190.205 118.416 C 190.974 117.565,192.123 115.839,192.758 114.582 C 193.392 113.324,194.729 111.347,195.728 110.188 C 196.727 109.030,198.072 107.158,198.716 106.029 C 199.540 104.586,200.426 103.669,201.697 102.941 C 202.692 102.372,204.645 100.947,206.037 99.775 C 207.429 98.604,209.270 97.193,210.127 96.641 C 210.983 96.089,212.443 94.986,213.370 94.189 C 214.435 93.274,216.154 92.373,218.043 91.739 C 219.687 91.188,222.299 89.974,223.848 89.043 C 229.364 85.725,248.487 84.143,261.866 85.898 " stroke="none" fill="#c4ccd4" fill-rule="evenodd"></path><path id="path2" d="M39.551 6.273 C 31.883 7.397,18.837 15.177,17.087 19.669 C 16.837 20.312,15.674 22.765,14.504 25.122 C 11.010 32.155,11.324 15.252,11.309 197.199 C 11.294 372.795,11.164 363.002,13.559 367.283 C 14.338 368.676,15.636 371.294,16.443 373.102 C 17.251 374.910,18.333 376.838,18.847 377.387 C 19.361 377.935,20.343 379.309,21.031 380.439 C 22.434 382.747,23.284 383.297,26.892 384.228 C 31.272 385.358,32.735 386.513,33.057 389.094 C 33.190 390.158,35.054 389.468,35.054 388.356 C 35.054 386.624,33.064 385.132,29.386 384.106 C 22.765 382.259,23.271 382.582,20.946 378.719 C 20.577 378.106,19.675 376.779,18.941 375.770 C 18.207 374.761,17.122 372.668,16.530 371.119 C 15.938 369.569,14.961 367.503,14.359 366.527 C 11.649 362.135,11.879 377.821,11.879 197.468 C 11.879 17.114,11.650 32.750,14.364 27.878 C 14.970 26.790,16.046 24.432,16.755 22.636 C 17.644 20.388,18.468 18.994,19.405 18.157 C 20.152 17.489,21.676 16.066,22.791 14.995 C 23.906 13.924,25.850 12.579,27.112 12.005 C 28.374 11.432,30.633 10.406,32.132 9.725 C 33.632 9.045,35.823 8.112,37.001 7.652 L 39.143 6.816 201.485 6.716 C 379.614 6.606,366.152 6.433,371.081 8.899 C 372.313 9.515,374.021 10.243,374.878 10.516 C 382.783 13.035,387.516 18.625,392.357 31.159 L 393.184 33.301 393.290 195.910 C 393.408 375.342,393.577 362.509,391.045 366.504 C 390.434 367.468,389.452 369.469,388.863 370.950 C 388.274 372.432,386.966 374.721,385.957 376.038 C 384.947 377.355,383.748 379.164,383.292 380.058 C 382.219 382.161,381.430 382.637,377.314 383.665 C 372.768 384.800,370.549 386.203,370.330 388.082 C 370.176 389.397,370.234 389.484,371.256 389.484 C 372.160 389.484,372.347 389.317,372.347 388.510 C 372.347 386.777,374.293 385.393,378.389 384.215 C 381.866 383.215,382.727 382.653,383.893 380.621 C 384.477 379.605,385.548 378.102,386.273 377.281 C 386.998 376.461,388.361 374.131,389.301 372.105 C 390.242 370.078,391.365 367.923,391.798 367.315 C 394.139 364.028,393.951 377.793,394.078 199.805 C 394.159 86.191,394.069 36.872,393.775 34.275 C 393.264 29.765,388.834 19.637,386.391 17.394 C 385.654 16.717,384.252 15.338,383.275 14.328 C 381.404 12.394,373.197 8.171,368.498 6.724 C 366.063 5.974,44.593 5.534,39.551 6.273 M239.533 81.187 C 238.354 81.454,236.251 82.029,234.859 82.466 C 233.466 82.903,230.136 83.739,227.459 84.322 C 222.298 85.447,221.072 85.928,218.889 87.682 C 218.138 88.285,216.487 89.135,215.220 89.571 C 212.412 90.537,210.063 91.885,208.764 93.275 C 208.229 93.847,206.827 94.902,205.648 95.618 C 204.470 96.335,202.975 97.504,202.326 98.217 C 201.678 98.930,200.321 100.078,199.310 100.769 C 198.300 101.460,196.956 102.866,196.324 103.893 C 195.691 104.921,194.674 106.131,194.064 106.583 C 193.453 107.034,192.366 108.520,191.649 109.885 C 190.931 111.250,189.510 113.505,188.491 114.898 C 187.472 116.290,186.338 118.351,185.971 119.478 C 185.603 120.604,184.612 122.671,183.767 124.072 C 181.651 127.580,181.196 129.066,180.504 134.721 C 180.174 137.421,179.649 141.338,179.338 143.425 C 178.281 150.523,179.040 162.719,181.151 172.562 C 181.390 173.678,181.464 175.495,181.317 176.670 L 181.053 178.777 138.336 221.582 C 90.934 269.081,91.101 268.906,89.597 272.840 C 89.023 274.343,87.864 276.797,87.022 278.293 L 85.492 281.013 85.492 285.492 L 85.492 289.971 87.297 293.671 C 88.290 295.706,89.425 298.247,89.818 299.318 C 90.274 300.560,91.314 302.064,92.686 303.469 C 93.870 304.680,95.483 306.450,96.270 307.401 C 97.466 308.849,98.581 309.538,103.086 311.616 L 108.471 314.100 114.508 314.109 C 120.317 314.118,120.612 314.080,122.298 313.102 C 123.262 312.543,125.609 311.503,127.513 310.790 L 130.976 309.495 176.199 264.258 L 221.422 219.022 223.525 218.772 C 224.682 218.635,226.391 218.694,227.324 218.903 C 235.666 220.773,251.562 221.873,255.115 220.826 C 255.863 220.605,259.176 220.162,262.476 219.840 C 270.948 219.014,272.452 218.597,276.525 215.942 C 277.279 215.450,279.085 214.668,280.538 214.205 C 281.991 213.741,284.006 212.772,285.017 212.051 C 286.028 211.330,288.070 209.919,289.556 208.917 C 291.042 207.914,292.701 206.567,293.243 205.923 C 293.785 205.279,295.146 204.164,296.269 203.446 C 297.391 202.728,298.624 201.680,299.009 201.116 C 299.393 200.553,300.509 199.195,301.489 198.099 C 302.468 197.002,303.682 195.492,304.186 194.742 C 304.690 193.992,306.023 192.398,307.147 191.199 C 308.797 189.440,309.357 188.475,310.047 186.202 C 310.518 184.652,311.519 182.478,312.272 181.371 C 314.307 178.378,314.955 176.653,315.657 172.347 C 316.007 170.204,316.943 166.611,317.737 164.362 L 319.182 160.273 319.181 151.120 L 319.180 141.967 317.770 138.462 C 316.995 136.534,315.974 133.775,315.501 132.332 C 314.502 129.279,313.338 128.136,311.243 128.149 C 308.023 128.168,307.180 128.894,286.855 149.136 C 264.787 171.114,265.653 170.440,261.851 168.619 C 259.745 167.610,233.886 142.127,231.939 139.141 C 229.197 134.938,228.910 135.325,251.523 112.680 C 271.634 92.539,272.639 91.381,272.639 88.347 C 272.639 83.220,251.123 78.567,239.533 81.187 M262.902 83.496 C 271.143 85.591,271.860 86.002,271.860 88.636 C 271.860 90.665,270.220 92.480,250.239 112.561 C 229.566 133.338,229.909 132.923,230.271 136.689 C 230.545 139.538,231.981 141.238,245.555 154.791 C 259.493 168.708,260.418 169.479,263.462 169.732 C 267.311 170.051,266.855 170.428,287.142 150.143 C 312.721 124.565,312.371 124.725,316.172 136.904 L 317.995 142.746 318.004 151.120 C 318.013 159.094,317.964 159.661,316.966 162.999 C 316.390 164.927,315.573 168.520,315.150 170.983 C 314.241 176.276,314.082 176.731,312.035 179.898 C 311.172 181.234,310.168 183.237,309.804 184.348 C 308.811 187.386,307.794 189.209,305.986 191.195 C 305.087 192.182,303.839 193.684,303.212 194.533 C 302.585 195.383,301.781 196.369,301.424 196.726 C 301.067 197.083,300.033 198.379,299.126 199.607 C 298.219 200.835,296.934 202.127,296.271 202.478 C 295.608 202.829,294.094 204.008,292.907 205.099 C 291.721 206.190,289.523 207.887,288.023 208.870 C 286.524 209.852,284.538 211.186,283.611 211.833 C 282.684 212.481,280.991 213.282,279.851 213.613 C 278.710 213.945,276.282 215.005,274.455 215.968 C 270.510 218.049,267.878 218.710,261.319 219.269 C 258.627 219.499,255.385 219.857,254.113 220.065 C 249.082 220.889,234.058 219.839,228.882 218.302 C 223.423 216.681,221.726 217.346,215.678 223.474 C 213.161 226.024,210.532 228.650,209.835 229.309 C 209.139 229.969,190.996 248.114,169.519 269.632 L 130.470 308.755 125.702 310.584 C 119.137 313.103,118.442 313.240,113.340 313.024 C 106.105 312.718,99.260 309.778,95.838 305.508 C 94.740 304.139,93.681 303.019,93.483 303.019 C 92.853 303.019,90.900 299.798,89.824 296.981 C 89.251 295.482,88.370 293.375,87.866 292.299 C 85.636 287.535,85.615 283.272,87.801 279.136 C 88.500 277.812,89.370 275.852,89.733 274.781 C 91.480 269.630,90.881 270.271,139.330 221.763 C 164.010 197.053,181.949 178.799,182.053 178.289 C 182.636 175.448,182.613 174.425,181.903 171.714 C 178.430 158.455,179.575 134.674,184.122 125.625 C 185.095 123.688,186.217 121.159,186.614 120.004 C 187.012 118.849,187.926 117.184,188.644 116.304 C 189.363 115.423,190.691 113.389,191.595 111.782 C 192.499 110.175,193.815 108.247,194.519 107.498 C 195.223 106.748,196.357 105.303,197.039 104.288 C 197.722 103.272,199.280 101.760,200.503 100.927 C 201.726 100.094,203.077 99.020,203.505 98.539 C 203.934 98.059,205.248 97.008,206.426 96.204 C 207.605 95.400,209.443 94.018,210.511 93.134 C 211.580 92.249,213.683 91.054,215.185 90.478 C 216.687 89.903,218.803 88.857,219.888 88.154 C 222.780 86.280,224.127 85.807,230.274 84.509 C 233.331 83.864,237.235 82.994,238.948 82.577 C 244.502 81.224,255.645 81.652,262.902 83.496 " stroke="none" fill="#acbcc4" fill-rule="evenodd"></path><path id="path3" d="M42.687 7.831 C 41.382 8.021,39.251 8.754,37.759 9.527 C 36.313 10.275,33.754 11.262,32.073 11.720 C 25.168 13.603,19.358 19.182,17.123 26.076 C 16.495 28.013,15.459 30.632,14.822 31.895 C 12.781 35.939,12.859 29.347,12.858 197.468 C 12.857 369.200,12.697 358.391,15.336 364.115 C 16.288 366.179,17.341 368.832,17.675 370.010 C 18.061 371.370,18.924 372.929,20.039 374.282 C 21.006 375.454,22.259 377.501,22.824 378.831 C 23.996 381.588,24.346 381.801,28.822 382.476 C 35.292 383.452,38.762 385.342,39.022 388.029 L 39.143 389.289 202.621 389.387 L 366.100 389.485 366.326 388.413 C 367.092 384.785,368.731 383.917,378.299 382.069 C 380.897 381.567,381.632 380.918,382.554 378.315 C 382.919 377.281,384.108 375.386,385.194 374.103 C 386.677 372.351,387.373 371.087,387.983 369.039 C 388.430 367.538,389.462 364.982,390.278 363.360 C 392.735 358.471,392.601 368.135,392.586 196.953 C 392.571 24.109,392.746 36.098,390.166 30.950 C 389.418 29.458,388.504 27.191,388.135 25.912 C 387.053 22.157,386.207 20.909,382.319 17.319 C 377.643 13.002,377.033 12.616,373.716 11.871 C 372.213 11.534,369.655 10.583,368.032 9.759 C 366.129 8.793,364.095 8.107,362.309 7.830 C 358.928 7.305,46.283 7.306,42.687 7.831 M261.426 79.636 C 262.626 79.949,264.440 80.732,265.457 81.377 C 266.473 82.022,267.936 82.750,268.706 82.996 C 272.734 84.278,273.807 85.454,273.807 88.584 C 273.807 92.769,273.853 92.714,254.083 112.451 C 229.307 137.188,230.822 135.224,233.788 138.746 C 235.903 141.259,258.672 164.019,261.263 166.212 C 264.816 169.218,262.719 170.829,287.356 146.156 C 305.676 127.809,305.975 127.532,308.017 127.060 C 313.082 125.891,314.879 126.715,316.459 130.930 C 317.049 132.502,318.021 134.601,318.619 135.595 C 322.250 141.629,322.442 159.564,318.950 166.569 C 317.721 169.035,317.200 170.732,316.629 174.124 C 315.690 179.710,315.340 180.729,313.880 182.117 C 312.436 183.490,311.848 184.598,311.236 187.102 C 310.532 189.980,309.475 191.754,307.751 192.949 C 306.893 193.543,305.889 194.672,305.520 195.457 C 305.151 196.242,303.955 197.767,302.862 198.847 C 301.770 199.926,300.584 201.362,300.226 202.038 C 299.827 202.791,298.837 203.640,297.668 204.233 C 296.619 204.764,295.119 205.982,294.334 206.939 C 293.550 207.897,291.948 209.222,290.775 209.884 C 289.602 210.546,288.456 211.436,288.228 211.861 C 287.623 212.992,284.813 214.510,282.367 215.027 C 279.698 215.591,279.014 215.933,277.313 217.556 C 275.338 219.440,273.211 220.035,266.212 220.662 C 259.313 221.280,257.298 221.670,255.039 222.822 C 252.593 224.070,242.596 223.767,237.862 222.303 C 228.634 219.447,222.292 219.534,220.016 222.546 C 219.225 223.592,217.885 224.894,217.037 225.439 C 216.189 225.984,215.018 227.184,214.435 228.105 C 213.852 229.027,212.681 230.171,211.832 230.648 C 210.939 231.149,209.815 232.285,209.165 233.341 C 208.528 234.376,207.392 235.532,206.539 236.011 C 205.712 236.475,204.550 237.623,203.957 238.562 C 203.363 239.500,202.126 240.743,201.207 241.324 C 200.289 241.905,199.058 243.139,198.472 244.065 C 197.886 244.991,196.712 246.140,195.863 246.617 C 194.971 247.118,193.846 248.254,193.197 249.309 C 192.532 250.389,191.422 251.501,190.479 252.031 C 189.557 252.549,188.481 253.617,187.926 254.563 C 187.398 255.463,186.202 256.683,185.268 257.275 C 184.333 257.866,183.093 259.101,182.512 260.019 C 181.931 260.938,180.688 262.175,179.750 262.769 C 178.811 263.362,177.665 264.522,177.202 265.345 C 176.739 266.168,175.590 267.322,174.648 267.908 C 173.706 268.494,172.425 269.778,171.802 270.760 C 171.179 271.743,169.989 272.929,169.158 273.396 C 168.326 273.864,167.160 275.014,166.566 275.952 C 165.973 276.890,164.733 278.135,163.812 278.718 C 162.891 279.301,161.691 280.517,161.145 281.420 C 160.599 282.324,159.478 283.444,158.655 283.909 C 157.831 284.374,156.597 285.605,155.912 286.644 C 155.228 287.683,153.995 288.912,153.172 289.374 C 152.350 289.837,151.191 290.983,150.597 291.921 C 150.004 292.859,148.750 294.113,147.812 294.706 C 146.874 295.300,145.727 296.459,145.265 297.281 C 144.803 298.104,143.583 299.334,142.554 300.015 C 141.525 300.696,140.244 301.980,139.707 302.869 C 139.170 303.758,138.051 304.867,137.219 305.334 C 136.388 305.801,135.202 306.983,134.584 307.960 C 133.629 309.470,132.969 309.962,130.178 311.246 C 128.372 312.076,125.831 313.413,124.530 314.216 L 122.165 315.677 115.430 315.806 C 107.941 315.950,105.725 315.566,102.988 313.652 C 102.148 313.064,100.235 311.964,98.738 311.206 C 96.613 310.131,95.750 309.423,94.808 307.984 C 94.145 306.970,92.858 305.602,91.948 304.943 C 90.744 304.070,89.968 303.039,89.089 301.142 C 88.426 299.711,87.208 297.460,86.383 296.140 C 82.975 290.693,82.772 280.439,85.988 276.226 C 86.746 275.232,87.797 273.361,88.322 272.068 C 89.926 268.118,90.638 266.973,92.101 265.989 C 92.874 265.469,94.013 264.228,94.633 263.231 C 95.253 262.233,96.545 260.877,97.504 260.217 C 98.463 259.558,99.639 258.385,100.117 257.612 C 100.595 256.839,101.706 255.696,102.586 255.073 C 103.467 254.450,104.726 253.196,105.385 252.287 C 106.044 251.377,107.323 250.133,108.228 249.523 C 109.133 248.912,110.298 247.741,110.816 246.921 C 111.334 246.100,112.536 244.894,113.487 244.239 C 114.439 243.584,115.608 242.416,116.086 241.643 C 116.564 240.870,117.675 239.727,118.555 239.104 C 119.436 238.481,120.690 237.236,121.344 236.337 C 121.997 235.438,123.267 234.168,124.166 233.515 C 125.064 232.862,126.326 231.585,126.968 230.678 C 127.611 229.771,128.817 228.599,129.649 228.074 C 130.481 227.549,131.558 226.477,132.043 225.694 C 132.527 224.910,133.644 223.758,134.524 223.135 C 135.404 222.512,136.664 221.258,137.324 220.349 C 137.984 219.439,139.211 218.230,140.051 217.662 C 140.890 217.094,142.112 215.876,142.765 214.955 C 143.418 214.034,144.688 212.747,145.587 212.093 C 146.486 211.440,147.731 210.185,148.354 209.305 C 148.978 208.425,150.129 207.308,150.913 206.824 C 151.697 206.339,152.768 205.262,153.293 204.430 C 153.818 203.598,154.990 202.391,155.897 201.749 C 156.804 201.106,158.081 199.845,158.734 198.946 C 159.387 198.048,160.657 196.778,161.556 196.124 C 162.455 195.471,163.716 194.195,164.358 193.288 C 165.001 192.381,166.207 191.209,167.039 190.683 C 167.872 190.158,168.949 189.087,169.433 188.303 C 169.918 187.519,171.034 186.368,171.915 185.745 C 172.795 185.122,174.050 183.877,174.703 182.978 C 175.356 182.079,176.671 180.796,177.624 180.127 C 180.546 178.077,180.543 170.986,177.615 161.473 C 175.882 155.846,175.881 148.347,177.610 142.729 C 178.255 140.632,178.964 137.237,179.185 135.184 C 180.183 125.896,180.481 124.889,183.065 122.063 C 184.089 120.943,184.656 119.858,184.960 118.441 C 185.513 115.864,186.157 114.634,188.179 112.299 C 189.075 111.265,190.203 109.524,190.687 108.430 C 191.226 107.211,192.186 105.951,193.169 105.173 C 194.050 104.475,195.122 103.216,195.551 102.375 C 196.051 101.394,197.081 100.367,198.424 99.508 C 199.576 98.771,200.899 97.634,201.364 96.980 C 201.830 96.326,203.028 95.373,204.026 94.862 C 205.025 94.351,206.668 93.051,207.676 91.974 C 209.259 90.284,209.950 89.876,212.714 89.003 C 215.088 88.253,216.352 87.589,217.601 86.438 C 219.644 84.555,220.134 84.358,224.776 83.558 C 227.148 83.148,229.595 82.394,231.743 81.410 C 235.551 79.666,236.149 79.495,240.005 79.050 C 244.281 78.557,258.808 78.955,261.426 79.636 " stroke="none" fill="#849cac" fill-rule="evenodd"></path><path id="path4" d="M39.456 7.030 C 38.557 7.207,36.804 7.783,35.561 8.309 C 34.318 8.835,32.067 9.788,30.560 10.425 C 26.047 12.334,24.687 13.139,22.683 15.086 C 21.633 16.107,20.160 17.489,19.410 18.157 C 18.466 18.997,17.648 20.377,16.755 22.636 C 16.046 24.432,14.970 26.790,14.364 27.878 C 11.650 32.750,11.879 17.114,11.879 197.468 C 11.879 377.821,11.649 362.135,14.359 366.527 C 14.961 367.503,15.938 369.569,16.530 371.119 C 17.122 372.668,18.207 374.761,18.941 375.770 C 19.675 376.779,20.577 378.106,20.946 378.719 C 23.271 382.582,22.765 382.259,29.386 384.106 C 33.064 385.132,35.054 386.624,35.054 388.356 C 35.054 389.458,35.100 389.484,37.118 389.484 L 39.181 389.484 39.021 388.106 C 38.693 385.296,35.375 383.465,28.822 382.476 C 24.346 381.801,23.996 381.588,22.824 378.831 C 22.259 377.501,21.006 375.454,20.039 374.282 C 18.924 372.929,18.061 371.370,17.675 370.010 C 17.341 368.832,16.288 366.179,15.336 364.115 C 12.697 358.391,12.857 369.200,12.858 197.468 C 12.859 29.347,12.781 35.939,14.822 31.895 C 15.459 30.632,16.495 28.013,17.123 26.076 C 19.358 19.182,25.168 13.603,32.073 11.720 C 33.754 11.262,36.297 10.283,37.723 9.545 C 42.028 7.317,34.371 7.416,202.652 7.408 C 373.438 7.400,363.096 7.252,368.032 9.759 C 369.655 10.583,372.213 11.534,373.716 11.871 C 377.033 12.616,377.643 13.002,382.319 17.319 C 386.207 20.909,387.053 22.157,388.135 25.912 C 388.504 27.191,389.418 29.458,390.166 30.950 C 392.746 36.098,392.571 24.109,392.586 196.953 C 392.601 368.135,392.735 358.471,390.278 363.360 C 389.462 364.982,388.428 367.542,387.980 369.049 C 387.380 371.063,386.681 372.353,385.342 373.918 C 384.339 375.089,383.185 376.835,382.776 377.799 C 381.109 381.733,381.365 381.567,375.269 382.676 C 369.219 383.776,366.958 385.190,366.373 388.238 L 366.126 389.524 368.165 389.407 C 370.162 389.292,370.207 389.262,370.328 387.998 C 370.497 386.240,372.854 384.779,377.314 383.665 C 381.430 382.637,382.219 382.161,383.292 380.058 C 383.748 379.164,384.947 377.355,385.957 376.038 C 386.966 374.721,388.274 372.432,388.863 370.950 C 389.452 369.469,390.434 367.468,391.045 366.504 C 393.577 362.509,393.408 375.342,393.290 195.910 L 393.184 33.301 392.357 31.159 C 387.516 18.625,382.783 13.035,374.878 10.516 C 374.021 10.243,372.314 9.516,371.085 8.901 C 366.194 6.454,379.447 6.629,202.532 6.670 C 113.739 6.690,40.355 6.852,39.456 7.030 M240.005 79.050 C 236.149 79.495,235.551 79.666,231.743 81.410 C 229.595 82.394,227.148 83.148,224.776 83.558 C 220.134 84.358,219.644 84.555,217.601 86.438 C 216.352 87.589,215.088 88.253,212.714 89.003 C 209.950 89.876,209.259 90.284,207.676 91.974 C 206.668 93.051,205.025 94.351,204.026 94.862 C 203.028 95.373,201.830 96.326,201.364 96.980 C 200.899 97.634,199.576 98.771,198.424 99.508 C 197.081 100.367,196.051 101.394,195.551 102.375 C 195.122 103.216,194.050 104.475,193.169 105.173 C 192.186 105.951,191.226 107.211,190.687 108.430 C 190.203 109.524,189.075 111.265,188.179 112.299 C 186.157 114.634,185.513 115.864,184.960 118.441 C 184.656 119.858,184.089 120.943,183.065 122.063 C 180.481 124.889,180.183 125.896,179.185 135.184 C 178.964 137.237,178.255 140.632,177.610 142.729 C 175.881 148.347,175.882 155.846,177.615 161.473 C 180.543 170.986,180.546 178.077,177.624 180.127 C 176.671 180.796,175.356 182.079,174.703 182.978 C 174.050 183.877,172.795 185.122,171.915 185.745 C 171.034 186.368,169.918 187.519,169.433 188.303 C 168.949 189.087,167.872 190.158,167.039 190.683 C 166.207 191.209,165.001 192.381,164.358 193.288 C 163.716 194.195,162.455 195.471,161.556 196.124 C 160.657 196.778,159.387 198.048,158.734 198.946 C 158.081 199.845,156.804 201.106,155.897 201.749 C 154.990 202.391,153.818 203.598,153.293 204.430 C 152.768 205.262,151.697 206.339,150.913 206.824 C 150.129 207.308,148.978 208.425,148.354 209.305 C 147.731 210.185,146.486 211.440,145.587 212.093 C 144.688 212.747,143.418 214.034,142.765 214.955 C 142.112 215.876,140.890 217.094,140.051 217.662 C 139.211 218.230,137.984 219.439,137.324 220.349 C 136.664 221.258,135.404 222.512,134.524 223.135 C 133.644 223.758,132.527 224.910,132.043 225.694 C 131.558 226.477,130.481 227.549,129.649 228.074 C 128.817 228.599,127.611 229.771,126.968 230.678 C 126.326 231.585,125.064 232.862,124.166 233.515 C 123.267 234.168,121.997 235.438,121.344 236.337 C 120.690 237.236,119.436 238.481,118.555 239.104 C 117.675 239.727,116.564 240.870,116.086 241.643 C 115.608 242.416,114.439 243.584,113.487 244.239 C 112.536 244.894,111.334 246.100,110.816 246.921 C 110.298 247.741,109.133 248.912,108.228 249.523 C 107.323 250.133,106.044 251.377,105.385 252.287 C 104.726 253.196,103.467 254.450,102.586 255.073 C 101.706 255.696,100.595 256.839,100.117 257.612 C 99.639 258.385,98.463 259.558,97.504 260.217 C 96.545 260.877,95.253 262.233,94.633 263.231 C 94.013 264.228,92.874 265.469,92.101 265.989 C 90.638 266.973,89.926 268.118,88.322 272.068 C 87.797 273.361,86.746 275.232,85.988 276.226 C 82.772 280.439,82.975 290.693,86.383 296.140 C 87.208 297.460,88.426 299.711,89.089 301.142 C 89.968 303.039,90.744 304.070,91.948 304.943 C 92.858 305.602,94.145 306.970,94.808 307.984 C 95.750 309.423,96.613 310.131,98.738 311.206 C 100.235 311.964,102.148 313.064,102.988 313.652 C 105.725 315.566,107.941 315.950,115.430 315.806 L 122.165 315.677 124.530 314.216 C 125.831 313.413,128.372 312.076,130.178 311.246 C 132.969 309.962,133.629 309.470,134.584 307.960 C 135.202 306.983,136.388 305.801,137.219 305.334 C 138.051 304.867,139.170 303.758,139.707 302.869 C 140.244 301.980,141.525 300.696,142.554 300.015 C 143.583 299.334,144.803 298.104,145.265 297.281 C 145.727 296.459,146.874 295.300,147.812 294.706 C 148.750 294.113,150.004 292.859,150.597 291.921 C 151.191 290.983,152.350 289.837,153.172 289.374 C 153.995 288.912,155.228 287.683,155.912 286.644 C 156.597 285.605,157.831 284.374,158.655 283.909 C 159.478 283.444,160.599 282.324,161.145 281.420 C 161.691 280.517,162.891 279.301,163.812 278.718 C 164.733 278.135,165.973 276.890,166.566 275.952 C 167.160 275.014,168.326 273.864,169.158 273.396 C 169.989 272.929,171.179 271.743,171.802 270.760 C 172.425 269.778,173.706 268.494,174.648 267.908 C 175.590 267.322,176.739 266.168,177.202 265.345 C 177.665 264.522,178.811 263.362,179.750 262.769 C 180.688 262.175,181.931 260.938,182.512 260.019 C 183.093 259.101,184.333 257.866,185.268 257.275 C 186.202 256.683,187.398 255.463,187.926 254.563 C 188.481 253.617,189.557 252.549,190.479 252.031 C 191.422 251.501,192.532 250.389,193.197 249.309 C 193.846 248.254,194.971 247.118,195.863 246.617 C 196.712 246.140,197.886 244.991,198.472 244.065 C 199.058 243.139,200.289 241.905,201.207 241.324 C 202.126 240.743,203.363 239.500,203.957 238.562 C 204.550 237.623,205.712 236.475,206.539 236.011 C 207.392 235.532,208.528 234.376,209.165 233.341 C 209.815 232.285,210.939 231.149,211.832 230.648 C 212.681 230.171,213.852 229.027,214.435 228.105 C 215.018 227.184,216.189 225.984,217.037 225.439 C 217.885 224.894,219.225 223.592,220.016 222.546 C 222.292 219.534,228.634 219.447,237.862 222.303 C 242.596 223.767,252.593 224.070,255.039 222.822 C 257.298 221.670,259.313 221.280,266.212 220.662 C 273.211 220.035,275.338 219.440,277.313 217.556 C 279.014 215.933,279.698 215.591,282.367 215.027 C 284.813 214.510,287.623 212.992,288.228 211.861 C 288.456 211.436,289.602 210.546,290.775 209.884 C 291.948 209.222,293.550 207.897,294.334 206.939 C 295.119 205.982,296.619 204.764,297.668 204.233 C 298.837 203.640,299.827 202.791,300.226 202.038 C 300.584 201.362,301.770 199.926,302.862 198.847 C 303.955 197.767,305.151 196.242,305.520 195.457 C 305.889 194.672,306.893 193.543,307.751 192.949 C 309.475 191.754,310.532 189.980,311.236 187.102 C 311.848 184.598,312.436 183.490,313.880 182.117 C 315.340 180.729,315.690 179.710,316.629 174.124 C 317.200 170.732,317.721 169.035,318.950 166.569 C 322.442 159.564,322.250 141.629,318.619 135.595 C 318.021 134.601,317.049 132.502,316.459 130.930 C 314.879 126.715,313.082 125.891,308.017 127.060 C 305.975 127.532,305.676 127.809,287.356 146.156 C 262.719 170.829,264.816 169.218,261.263 166.212 C 258.672 164.019,235.903 141.259,233.788 138.746 C 230.822 135.224,229.307 137.188,254.083 112.451 C 273.853 92.714,273.807 92.769,273.807 88.584 C 273.807 85.454,272.734 84.278,268.706 82.996 C 267.936 82.750,266.473 82.022,265.457 81.377 C 262.003 79.187,249.069 78.004,240.005 79.050 M257.366 81.026 C 261.379 81.678,270.745 84.926,271.756 86.017 C 274.691 89.183,273.760 90.410,251.523 112.680 C 228.910 135.325,229.197 134.938,231.939 139.141 C 233.886 142.127,259.745 167.610,261.851 168.619 C 265.653 170.440,264.787 171.114,286.855 149.136 C 307.180 128.894,308.023 128.168,311.243 128.149 C 313.338 128.136,314.502 129.279,315.501 132.332 C 315.974 133.775,316.995 136.534,317.770 138.462 L 319.180 141.967 319.181 151.120 L 319.182 160.273 317.737 164.362 C 316.943 166.611,316.007 170.204,315.657 172.347 C 314.955 176.653,314.307 178.378,312.272 181.371 C 311.519 182.478,310.518 184.652,310.047 186.202 C 309.357 188.475,308.797 189.440,307.147 191.199 C 306.023 192.398,304.690 193.992,304.186 194.742 C 303.682 195.492,302.468 197.002,301.489 198.099 C 300.509 199.195,299.393 200.553,299.009 201.116 C 298.624 201.680,297.391 202.728,296.269 203.446 C 295.146 204.164,293.785 205.279,293.243 205.923 C 292.701 206.567,291.042 207.914,289.556 208.917 C 288.070 209.919,286.028 211.330,285.017 212.051 C 284.006 212.772,281.991 213.741,280.538 214.205 C 279.085 214.668,277.279 215.450,276.525 215.942 C 272.452 218.597,270.948 219.014,262.476 219.840 C 259.176 220.162,255.863 220.605,255.115 220.826 C 251.562 221.873,235.666 220.773,227.324 218.903 C 226.391 218.694,224.682 218.635,223.525 218.772 L 221.422 219.022 176.199 264.258 L 130.976 309.495 127.513 310.790 C 125.609 311.503,123.262 312.543,122.298 313.102 C 120.612 314.080,120.317 314.118,114.508 314.109 L 108.471 314.100 103.086 311.616 C 98.581 309.538,97.466 308.849,96.270 307.401 C 95.483 306.450,93.870 304.680,92.686 303.469 C 91.314 302.064,90.274 300.560,89.818 299.318 C 89.425 298.247,88.290 295.706,87.297 293.671 L 85.492 289.971 85.492 285.492 L 85.492 281.013 87.022 278.293 C 87.864 276.797,89.023 274.343,89.597 272.840 C 91.101 268.906,90.934 269.081,138.336 221.582 L 181.053 178.777 181.317 176.670 C 181.464 175.495,181.390 173.678,181.151 172.562 C 179.040 162.719,178.281 150.523,179.338 143.425 C 179.649 141.338,180.174 137.421,180.504 134.721 C 181.196 129.066,181.651 127.580,183.767 124.072 C 184.612 122.671,185.603 120.604,185.971 119.478 C 186.338 118.351,187.472 116.290,188.491 114.898 C 189.510 113.505,190.931 111.250,191.649 109.885 C 192.366 108.520,193.453 107.034,194.064 106.583 C 194.674 106.131,195.691 104.921,196.324 103.893 C 196.956 102.866,198.300 101.460,199.310 100.769 C 200.321 100.078,201.678 98.930,202.326 98.217 C 202.975 97.504,204.470 96.335,205.648 95.618 C 206.827 94.902,208.229 93.847,208.764 93.275 C 210.063 91.885,212.412 90.537,215.220 89.571 C 216.487 89.135,218.138 88.285,218.889 87.682 C 221.072 85.928,222.298 85.447,227.459 84.322 C 230.136 83.739,233.466 82.903,234.859 82.466 C 236.251 82.029,238.354 81.454,239.533 81.187 C 242.177 80.590,254.016 80.483,257.366 81.026 " stroke="none" fill="#a4b4c4" fill-rule="evenodd"></path></g></svg>