<?xml version="1.0" encoding="UTF-8" standalone="no"?>

<svg id="svg" version="1.1" xmlns="http://www.w3.org/2000/svg" xmlns:xlink="http://www.w3.org/1999/xlink" width="400" height="398.1042654028436" viewBox="0, 0, 400,398.1042654028436"><g id="svgg"><path id="path0" d="M0.000 199.203 L 0.000 398.406 12.044 398.406 L 24.089 398.406 21.108 396.907 C 9.735 391.184,2.086 381.010,0.815 369.913 C 0.238 364.875,0.240 33.664,0.817 28.488 C 1.511 22.259,4.319 16.281,9.425 10.159 C 13.096 5.758,16.578 3.296,23.108 0.483 C 23.850 0.163,21.031 0.047,12.052 0.027 L 0.000 0.000 0.000 199.203 M378.884 0.473 C 388.216 4.397,395.281 11.602,399.520 21.514 C 399.837 22.254,399.953 19.619,399.973 11.255 L 400.000 0.000 388.944 0.027 C 380.826 0.047,378.153 0.165,378.884 0.473 M167.407 82.082 C 160.068 84.004,154.212 89.756,152.030 97.184 C 151.518 98.926,151.394 101.414,151.394 109.948 C 151.394 122.321,151.609 123.227,154.980 125.100 L 156.773 126.096 200.996 126.096 L 245.219 126.096 247.073 125.006 C 250.521 122.979,250.797 121.880,250.797 110.159 C 250.797 100.833,250.738 100.009,249.864 97.211 C 247.309 89.023,241.718 83.798,233.466 81.887 C 229.053 80.864,171.404 81.034,167.407 82.082 M109.562 101.647 C 101.686 102.721,94.305 109.434,92.227 117.412 C 91.496 120.218,91.314 296.204,92.038 300.045 C 93.149 305.938,97.562 311.690,103.086 314.443 C 108.940 317.360,101.497 317.165,202.390 317.042 L 293.028 316.932 295.572 316.013 C 303.556 313.130,309.039 306.559,309.983 298.742 C 310.245 296.576,310.345 264.553,310.272 206.773 L 310.159 118.127 309.261 115.769 C 305.492 105.873,298.658 101.579,286.255 101.313 C 277.002 101.115,277.316 100.730,277.300 112.299 C 277.266 137.312,266.530 150.493,244.467 152.612 C 234.811 153.539,156.207 152.888,151.594 151.843 C 132.705 147.564,124.303 134.467,124.303 109.304 L 124.303 102.847 123.253 102.021 C 122.085 101.103,114.976 100.908,109.562 101.647 M207.886 178.878 C 210.335 179.942,212.387 182.140,213.422 184.807 C 214.284 187.031,214.761 257.035,213.949 262.284 C 212.197 273.618,194.556 276.538,189.130 266.391 L 188.247 264.741 188.247 225.299 C 188.247 180.877,188.063 183.591,191.279 180.685 C 194.745 177.554,202.814 176.676,207.886 178.878 M248.463 195.514 C 250.670 196.681,252.771 199.213,253.439 201.511 C 254.384 204.763,254.226 261.567,253.263 264.684 C 250.496 273.643,233.934 275.483,229.160 267.362 L 228.088 265.538 228.088 233.865 C 228.088 208.224,228.191 201.900,228.628 200.663 C 229.578 197.975,231.990 195.766,235.057 194.776 C 237.279 194.059,246.690 194.577,248.463 195.514 M167.159 214.929 C 169.827 215.725,171.841 217.496,173.182 220.227 L 174.303 222.510 174.303 243.028 C 174.303 266.124,174.292 266.219,171.407 269.030 C 165.507 274.778,152.187 272.990,149.149 266.042 C 148.271 264.033,147.787 227.399,148.572 222.355 C 149.218 218.210,151.523 215.675,155.514 214.724 C 157.800 214.179,165.076 214.307,167.159 214.929 M399.255 377.490 C 396.613 385.211,386.898 394.908,378.880 397.828 C 378.233 398.064,381.684 398.229,388.805 398.304 C 394.809 398.368,399.787 398.354,399.867 398.274 C 399.947 398.194,399.965 393.126,399.907 387.012 C 399.811 377.011,399.746 376.056,399.255 377.490 " stroke="none" fill="#fbfbfb" fill-rule="evenodd"></path><path id="path1" d="M29.601 0.549 C 29.426 0.851,26.870 2.356,23.920 3.893 C 13.410 9.373,7.638 16.126,4.856 26.200 L 3.785 30.080 3.682 197.932 C 3.580 365.464,3.582 365.791,4.392 369.768 C 6.765 381.415,11.930 387.789,24.701 394.835 C 27.221 396.225,29.426 397.597,29.601 397.884 C 30.106 398.711,371.933 398.654,372.396 397.827 C 372.574 397.509,374.411 396.330,376.477 395.207 C 387.601 389.163,391.455 385.323,396.400 375.357 C 397.917 372.298,399.348 369.679,399.579 369.536 C 400.129 369.196,400.177 29.240,399.627 28.900 C 399.422 28.774,397.919 26.087,396.287 22.930 C 391.102 12.902,386.902 8.478,378.521 4.216 C 375.622 2.742,372.953 1.190,372.592 0.768 C 371.721 -0.249,30.191 -0.467,29.601 0.549 M234.050 78.282 C 243.623 79.988,252.071 88.456,253.849 98.128 C 254.560 102.000,254.583 119.461,253.879 121.776 C 252.502 126.308,248.996 129.081,243.625 129.887 C 238.272 130.689,157.996 130.218,155.496 129.369 C 152.620 128.393,150.229 126.450,149.026 124.110 L 148.008 122.131 148.008 109.571 C 148.008 97.536,148.045 96.913,148.900 94.649 C 152.221 85.846,160.255 79.196,168.921 78.077 C 173.459 77.491,230.619 77.671,234.050 78.282 M125.183 98.283 C 127.900 99.870,128.059 100.586,128.347 112.550 C 128.728 128.337,130.274 133.134,137.220 140.080 C 146.269 149.130,148.128 149.402,200.739 149.402 C 253.118 149.402,255.437 149.084,264.080 140.707 C 271.453 133.561,273.257 128.208,273.566 112.550 C 273.873 97.042,274.025 96.876,287.251 97.579 C 301.448 98.333,310.296 104.891,313.343 116.916 C 314.254 120.515,314.254 297.812,313.343 301.410 C 311.190 309.906,304.521 317.003,296.215 319.634 L 293.426 320.518 201.195 320.518 C 97.343 320.518,106.911 320.813,100.848 317.423 C 95.130 314.226,90.766 308.838,88.880 302.647 L 88.048 299.916 88.048 209.142 L 88.048 118.368 89.040 115.228 C 91.594 107.141,98.158 100.914,106.591 98.579 C 111.564 97.201,123.019 97.019,125.183 98.283 M197.654 181.676 C 195.006 182.073,193.691 182.995,192.530 185.267 L 191.633 187.021 191.633 224.640 C 191.633 252.259,191.758 262.673,192.101 263.818 C 193.969 270.053,206.444 270.425,209.704 264.343 L 210.558 262.749 210.558 225.100 L 210.558 187.450 209.562 185.458 C 207.941 182.217,203.484 180.801,197.654 181.676 M235.045 198.904 C 233.742 199.561,233.026 200.279,232.363 201.593 L 231.460 203.385 231.567 234.063 C 231.671 264.025,231.692 264.766,232.470 265.831 C 235.844 270.445,247.161 269.351,249.552 264.180 C 250.567 261.986,251.115 208.194,250.168 203.636 C 249.112 198.545,240.870 195.967,235.045 198.904 M155.964 218.331 C 151.838 219.601,151.791 219.876,151.802 242.915 C 151.811 264.469,151.829 264.651,154.101 266.671 C 156.394 268.711,163.722 269.257,166.944 267.629 C 170.947 265.607,171.014 265.154,170.844 241.235 L 170.717 223.307 169.721 221.534 C 167.968 218.414,160.979 216.787,155.964 218.331 " stroke="none" fill="#7c8ce4" fill-rule="evenodd"></path><path id="path2" d="M25.498 0.598 C 25.225 0.926,24.822 1.195,24.602 1.195 C 24.382 1.195,23.105 1.753,21.764 2.434 C 12.753 7.013,6.142 14.819,2.735 24.900 L 1.793 27.689 1.793 199.203 L 1.793 370.717 2.944 374.104 C 6.341 384.092,14.505 392.982,23.846 396.864 C 24.974 397.332,25.896 397.871,25.896 398.061 C 25.896 398.251,26.076 398.406,26.295 398.406 C 27.351 398.406,26.467 397.564,24.432 396.633 C 15.536 392.560,7.466 384.428,4.380 376.424 C 1.792 369.714,1.977 384.130,2.089 197.921 L 2.191 28.088 3.452 24.502 C 7.143 14.003,14.821 5.627,24.289 1.768 C 25.486 1.280,26.532 0.683,26.613 0.441 C 26.827 -0.203,26.075 -0.097,25.498 0.598 M375.299 0.420 C 375.299 0.572,376.815 1.425,378.668 2.314 C 386.902 6.265,394.969 14.618,398.108 22.443 C 398.948 24.535,400.000 26.073,400.000 25.208 C 400.000 24.955,399.847 24.654,399.661 24.539 C 399.474 24.423,398.999 23.485,398.605 22.454 C 396.502 16.947,389.820 8.571,384.796 5.143 C 382.351 3.474,375.299 -0.033,375.299 0.420 M167.928 79.909 C 159.383 81.598,151.567 89.303,149.809 97.769 C 148.906 102.117,149.433 121.397,150.509 123.412 C 151.646 125.540,153.978 127.255,156.681 127.950 C 159.595 128.699,242.779 128.744,245.225 127.998 C 248.299 127.060,250.407 125.369,251.645 122.848 L 252.789 120.518 252.781 110.558 C 252.772 99.743,252.495 97.554,250.612 93.426 C 247.381 86.344,241.292 81.468,233.729 79.906 C 229.519 79.037,172.329 79.039,167.928 79.909 M231.673 80.094 C 245.447 82.057,251.924 90.804,252.461 108.167 C 252.848 120.690,251.850 124.175,247.211 126.494 L 244.821 127.689 201.825 127.798 C 151.384 127.925,153.647 128.138,150.893 122.985 C 149.479 120.340,149.518 99.528,150.944 95.618 C 154.062 87.069,161.268 81.227,170.120 80.072 C 173.577 79.621,228.490 79.641,231.673 80.094 M108.782 99.813 C 100.811 101.255,93.681 107.242,90.744 114.957 L 89.841 117.331 89.737 207.964 C 89.635 297.193,89.645 298.645,90.423 301.720 C 92.382 309.469,98.552 315.610,106.972 318.191 C 109.264 318.894,113.162 318.924,201.195 318.924 L 293.028 318.924 295.947 317.968 C 302.962 315.670,308.298 310.490,311.124 303.235 L 312.151 300.598 312.257 210.660 C 312.374 110.978,312.546 117.743,309.745 112.053 C 305.525 103.480,298.301 99.598,286.056 99.324 C 275.188 99.080,275.310 98.943,275.292 111.355 C 275.256 136.646,265.915 148.372,244.024 150.605 C 236.332 151.390,156.865 150.912,152.628 150.056 C 142.532 148.015,134.481 142.005,130.345 133.422 C 127.447 127.410,127.048 125.149,126.726 112.948 C 126.430 101.692,126.223 100.640,124.115 99.679 C 122.698 99.034,112.602 99.122,108.782 99.813 M124.542 100.956 L 125.896 102.311 125.896 109.425 C 125.896 133.955,133.682 146.328,151.628 150.317 C 157.810 151.691,244.154 151.698,250.326 150.325 C 268.334 146.319,276.096 133.744,276.096 108.577 C 276.096 99.530,276.279 99.369,286.172 99.720 C 298.962 100.173,306.446 104.778,310.432 114.647 L 311.355 116.932 311.460 208.367 C 311.565 298.823,311.558 299.829,310.770 302.390 C 308.613 309.399,302.821 315.188,295.598 317.554 L 292.629 318.526 201.394 318.526 C 115.504 318.526,110.011 318.485,107.619 317.824 C 99.779 315.658,93.562 309.948,91.204 302.746 L 90.239 299.801 90.239 209.163 L 90.239 118.526 91.204 115.581 C 94.718 104.850,103.288 99.806,118.267 99.652 L 123.187 99.602 124.542 100.956 M195.522 179.850 C 193.287 180.647,192.147 181.517,190.936 183.347 L 189.841 185.001 189.735 224.476 L 189.630 263.952 190.532 265.718 C 193.751 272.020,206.468 272.789,210.707 266.938 C 212.772 264.088,212.777 263.967,212.659 223.694 L 212.550 186.255 211.617 184.506 C 209.183 179.943,201.493 177.718,195.522 179.850 M204.817 180.086 C 207.942 180.679,209.826 182.092,211.091 184.790 L 212.151 187.052 212.279 223.307 C 212.418 262.778,212.377 263.685,210.330 266.510 C 205.878 272.655,192.369 271.121,190.462 264.254 C 189.889 262.189,189.883 187.633,190.456 185.570 C 191.754 180.895,197.503 178.699,204.817 180.086 M236.615 195.995 C 233.095 196.640,230.705 198.601,229.898 201.506 C 229.321 203.585,229.328 264.083,229.906 265.612 C 232.252 271.820,246.055 272.892,250.366 267.200 C 252.614 264.233,252.619 264.140,252.500 231.836 C 252.378 198.907,252.528 200.732,249.735 198.127 C 247.657 196.189,241.243 195.147,236.615 195.995 M246.414 196.857 C 248.774 197.505,251.199 200.192,251.752 202.773 C 252.507 206.291,252.350 260.179,251.577 263.148 C 250.449 267.479,248.220 269.317,243.061 270.169 C 237.472 271.092,232.336 269.364,230.716 266.015 C 229.751 264.023,229.380 205.207,230.310 201.855 C 231.579 197.286,239.278 194.896,246.414 196.857 M158.167 215.921 C 153.865 216.299,151.742 217.639,150.417 220.809 C 149.661 222.620,149.487 262.000,150.223 264.652 C 152.340 272.275,167.936 273.278,171.802 266.041 L 172.709 264.343 172.709 243.426 C 172.709 223.539,172.671 222.433,171.938 220.955 C 169.797 216.641,165.956 215.237,158.167 215.921 M166.677 216.823 C 172.134 218.458,172.510 220.135,172.510 242.847 C 172.510 262.455,172.342 264.638,170.669 266.832 C 167.066 271.555,155.993 271.614,152.053 266.932 C 150.231 264.767,150.165 263.834,150.285 242.137 L 150.398 221.713 151.332 220.084 C 153.262 216.716,160.903 215.093,166.677 216.823 M399.330 373.397 C 399.118 373.676,398.550 374.880,398.068 376.072 C 394.923 383.856,385.803 392.954,377.439 396.653 C 376.262 397.174,375.299 397.809,375.299 398.065 C 375.299 398.357,375.558 398.297,375.996 397.902 C 376.379 397.556,377.217 397.142,377.858 396.982 C 383.906 395.473,395.724 383.657,398.498 376.346 C 398.925 375.222,399.463 374.074,399.694 373.795 C 399.925 373.516,400.024 373.198,399.914 373.088 C 399.805 372.979,399.542 373.118,399.330 373.397 " stroke="none" fill="#bcc4ec" fill-rule="evenodd"></path><path id="path3" d="M23.108 0.483 C 16.578 3.296,13.096 5.758,9.425 10.159 C 4.319 16.281,1.511 22.259,0.817 28.488 C 0.240 33.664,0.238 364.875,0.815 369.913 C 1.684 377.499,5.050 383.957,11.211 389.861 C 15.594 394.061,22.663 398.406,25.111 398.406 C 26.499 398.406,25.952 397.739,23.846 396.864 C 14.505 392.982,6.341 384.092,2.944 374.104 L 1.793 370.717 1.793 199.203 L 1.793 27.689 2.735 24.900 C 6.142 14.819,12.753 7.013,21.764 2.434 C 23.105 1.753,24.382 1.195,24.602 1.195 C 24.822 1.195,25.225 0.926,25.498 0.598 C 26.109 -0.138,24.706 -0.206,23.108 0.483 M375.697 0.203 C 375.697 0.314,377.199 1.099,379.033 1.946 C 387.383 5.804,395.491 14.300,398.605 22.454 C 399.430 24.614,400.000 25.165,400.000 23.804 C 400.000 18.984,390.384 6.420,383.974 2.863 C 380.208 0.774,375.697 -0.676,375.697 0.203 M170.120 80.072 C 161.268 81.227,154.062 87.069,150.944 95.618 C 149.518 99.528,149.479 120.340,150.893 122.985 C 153.647 128.138,151.384 127.925,201.825 127.798 L 244.821 127.689 247.211 126.494 C 251.850 124.175,252.848 120.690,252.461 108.167 C 251.924 90.804,245.447 82.057,231.673 80.094 C 228.490 79.641,173.577 79.621,170.120 80.072 M233.466 81.887 C 241.718 83.798,247.309 89.023,249.864 97.211 C 250.738 100.009,250.797 100.833,250.797 110.159 C 250.797 121.880,250.521 122.979,247.073 125.006 L 245.219 126.096 200.996 126.096 L 156.773 126.096 154.980 125.100 C 151.609 123.227,151.394 122.321,151.394 109.948 C 151.394 101.414,151.518 98.926,152.030 97.184 C 154.212 89.756,160.068 84.004,167.407 82.082 C 171.404 81.034,229.053 80.864,233.466 81.887 M110.912 100.020 C 101.392 101.262,93.975 107.119,91.204 115.581 L 90.239 118.526 90.239 209.163 L 90.239 299.801 91.204 302.746 C 93.562 309.948,99.779 315.658,107.619 317.824 C 110.011 318.485,115.504 318.526,201.394 318.526 L 292.629 318.526 295.598 317.554 C 302.821 315.188,308.613 309.399,310.770 302.390 C 311.558 299.829,311.565 298.823,311.460 208.367 L 311.355 116.932 310.432 114.647 C 306.446 104.778,298.962 100.173,286.172 99.720 C 276.279 99.369,276.096 99.530,276.096 108.577 C 276.096 133.744,268.334 146.319,250.326 150.325 C 244.154 151.698,157.810 151.691,151.628 150.317 C 133.682 146.328,125.896 133.955,125.896 109.425 L 125.896 102.311 124.542 100.956 L 123.187 99.602 118.267 99.652 C 115.561 99.680,112.251 99.846,110.912 100.020 M123.253 102.021 L 124.303 102.847 124.303 109.304 C 124.303 134.467,132.705 147.564,151.594 151.843 C 156.207 152.888,234.811 153.539,244.467 152.612 C 266.530 150.493,277.266 137.312,277.300 112.299 C 277.316 100.730,277.002 101.115,286.255 101.313 C 298.658 101.579,305.492 105.873,309.261 115.769 L 310.159 118.127 310.272 206.773 C 310.345 264.553,310.245 296.576,309.983 298.742 C 309.039 306.559,303.556 313.130,295.572 316.013 L 293.028 316.932 202.390 317.042 C 101.497 317.165,108.940 317.360,103.086 314.443 C 97.562 311.690,93.149 305.938,92.038 300.045 C 91.314 296.204,91.496 120.218,92.227 117.412 C 94.305 109.434,101.686 102.721,109.562 101.647 C 114.976 100.908,122.085 101.103,123.253 102.021 M196.414 178.054 C 194.096 178.590,192.946 179.179,191.279 180.685 C 188.063 183.591,188.247 180.877,188.247 225.299 L 188.247 264.741 189.130 266.391 C 194.556 276.538,212.197 273.618,213.949 262.284 C 214.761 257.035,214.284 187.031,213.422 184.807 C 211.266 179.249,203.904 176.326,196.414 178.054 M206.203 179.868 C 208.534 180.562,210.337 182.106,211.617 184.506 L 212.550 186.255 212.659 223.694 C 212.777 263.967,212.772 264.088,210.707 266.938 C 206.468 272.789,193.751 272.020,190.532 265.718 L 189.630 263.952 189.735 224.476 L 189.841 185.001 190.936 183.347 C 193.395 179.631,200.200 178.081,206.203 179.868 M235.057 194.776 C 231.990 195.766,229.578 197.975,228.628 200.663 C 228.191 201.900,228.088 208.224,228.088 233.865 L 228.088 265.538 229.160 267.362 C 233.934 275.483,250.496 273.643,253.263 264.684 C 254.226 261.567,254.384 204.763,253.439 201.511 C 252.771 199.213,250.670 196.681,248.463 195.514 C 246.690 194.577,237.279 194.059,235.057 194.776 M247.344 196.643 C 252.587 198.834,252.373 197.372,252.500 231.836 C 252.619 264.140,252.614 264.233,250.366 267.200 C 246.055 272.892,232.252 271.820,229.906 265.612 C 229.328 264.083,229.321 203.585,229.898 201.506 C 231.294 196.481,240.688 193.862,247.344 196.643 M155.514 214.724 C 151.523 215.675,149.218 218.210,148.572 222.355 C 147.787 227.399,148.271 264.033,149.149 266.042 C 152.187 272.990,165.507 274.778,171.407 269.030 C 174.292 266.219,174.303 266.124,174.303 243.028 L 174.303 222.510 173.182 220.227 C 170.714 215.201,163.258 212.879,155.514 214.724 M166.886 216.423 C 168.876 216.928,170.793 218.648,171.938 220.955 C 172.671 222.433,172.709 223.539,172.709 243.426 L 172.709 264.343 171.802 266.041 C 167.936 273.278,152.340 272.275,150.223 264.652 C 149.487 262.000,149.661 222.620,150.417 220.809 C 152.332 216.226,159.058 214.435,166.886 216.423 M399.535 373.912 C 399.389 374.135,398.922 375.234,398.496 376.354 C 395.700 383.713,383.655 395.702,377.756 396.997 C 376.043 397.374,375.232 398.406,376.650 398.406 C 377.227 398.406,378.011 398.243,378.392 398.043 C 378.772 397.843,380.111 397.204,381.366 396.623 C 388.650 393.254,396.464 384.902,399.217 377.545 C 399.969 375.533,400.201 372.892,399.535 373.912 " stroke="none" fill="#c4ccf4" fill-rule="evenodd"></path><path id="path4" d="M26.586 0.498 C 26.480 0.772,25.567 1.300,24.558 1.672 C 15.404 5.042,7.158 13.961,3.452 24.502 L 2.191 28.088 2.089 197.921 C 1.977 384.130,1.792 369.714,4.380 376.424 C 7.466 384.428,15.536 392.560,24.432 396.633 C 25.676 397.202,26.693 397.834,26.693 398.037 C 26.693 398.240,27.405 398.406,28.274 398.406 C 30.642 398.406,30.015 397.711,25.404 395.219 C 12.151 388.058,6.798 381.573,4.392 369.768 C 3.582 365.791,3.580 365.464,3.682 197.932 L 3.785 30.080 4.856 26.200 C 7.647 16.097,13.540 9.226,24.076 3.796 C 29.925 0.782,30.798 -0.000,28.317 0.000 C 27.455 0.000,26.694 0.219,26.586 0.498 M372.358 0.576 C 372.479 0.894,375.112 2.455,378.209 4.046 C 386.992 8.560,391.047 12.796,396.287 22.930 C 397.919 26.087,399.422 28.774,399.627 28.900 C 400.209 29.260,400.067 25.839,399.471 25.131 C 399.180 24.785,398.569 23.575,398.112 22.443 C 394.951 14.598,386.900 6.264,378.668 2.314 C 376.815 1.425,375.299 0.541,375.299 0.349 C 375.299 0.157,374.587 0.000,373.718 0.000 C 372.502 0.000,372.188 0.133,372.358 0.576 M168.921 78.077 C 160.255 79.196,152.221 85.846,148.900 94.649 C 148.045 96.913,148.008 97.536,148.008 109.571 L 148.008 122.131 149.026 124.110 C 150.229 126.450,152.620 128.393,155.496 129.369 C 157.996 130.218,238.272 130.689,243.625 129.887 C 248.996 129.081,252.502 126.308,253.879 121.776 C 254.583 119.461,254.560 102.000,253.849 98.128 C 252.071 88.456,243.623 79.988,234.050 78.282 C 230.619 77.671,173.459 77.491,168.921 78.077 M233.729 79.906 C 241.292 81.468,247.381 86.344,250.612 93.426 C 252.495 97.554,252.772 99.743,252.781 110.558 L 252.789 120.518 251.645 122.848 C 250.407 125.369,248.299 127.060,245.225 127.998 C 242.779 128.744,159.595 128.699,156.681 127.950 C 153.978 127.255,151.646 125.540,150.509 123.412 C 149.433 121.397,148.906 102.117,149.809 97.769 C 151.567 89.303,159.383 81.598,167.928 79.909 C 172.329 79.039,229.519 79.037,233.729 79.906 M114.143 97.608 C 101.095 98.397,92.437 104.474,89.040 115.228 L 88.048 118.368 88.048 209.142 L 88.048 299.916 88.880 302.647 C 90.766 308.838,95.130 314.226,100.848 317.423 C 106.911 320.813,97.343 320.518,201.195 320.518 L 293.426 320.518 296.215 319.634 C 304.521 317.003,311.190 309.906,313.343 301.410 C 314.254 297.812,314.254 120.515,313.343 116.916 C 310.296 104.891,301.448 98.333,287.251 97.579 C 274.025 96.876,273.873 97.042,273.566 112.550 C 273.257 128.208,271.453 133.561,264.080 140.707 C 255.437 149.084,253.118 149.402,200.739 149.402 C 148.128 149.402,146.269 149.130,137.220 140.080 C 130.274 133.134,128.728 128.337,128.347 112.550 C 127.971 96.948,127.813 96.782,114.143 97.608 M124.115 99.679 C 126.223 100.640,126.430 101.692,126.726 112.948 C 127.048 125.149,127.447 127.410,130.345 133.422 C 134.481 142.005,142.532 148.015,152.628 150.056 C 156.865 150.912,236.332 151.390,244.024 150.605 C 265.915 148.372,275.256 136.646,275.292 111.355 C 275.310 98.943,275.188 99.080,286.056 99.324 C 298.301 99.598,305.525 103.480,309.745 112.053 C 312.546 117.743,312.374 110.978,312.257 210.660 L 312.151 300.598 311.124 303.235 C 308.298 310.490,302.962 315.670,295.947 317.968 L 293.028 318.924 201.195 318.924 C 113.162 318.924,109.264 318.894,106.972 318.191 C 98.552 315.610,92.382 309.469,90.423 301.720 C 89.645 298.645,89.635 297.193,89.737 207.964 L 89.841 117.331 90.744 114.957 C 93.681 107.242,100.811 101.255,108.782 99.813 C 112.602 99.122,122.698 99.034,124.115 99.679 M196.700 180.116 C 193.441 180.884,191.218 182.825,190.456 185.570 C 189.883 187.633,189.889 262.189,190.462 264.254 C 192.369 271.121,205.878 272.655,210.330 266.510 C 212.377 263.685,212.418 262.778,212.279 223.307 L 212.151 187.052 211.091 184.790 C 209.090 180.521,203.160 178.595,196.700 180.116 M206.773 182.604 C 208.173 183.277,208.784 183.903,209.562 185.458 L 210.558 187.450 210.558 225.100 L 210.558 262.749 209.704 264.343 C 206.444 270.425,193.969 270.053,192.101 263.818 C 191.758 262.673,191.633 252.259,191.633 224.640 L 191.633 187.021 192.530 185.267 C 194.504 181.403,201.541 180.087,206.773 182.604 M234.861 197.013 C 232.870 197.717,230.868 199.847,230.310 201.855 C 229.380 205.207,229.751 264.023,230.716 266.015 C 233.359 271.477,246.005 272.006,249.960 266.821 C 252.145 263.956,252.191 263.249,252.191 232.804 C 252.191 201.404,252.210 201.657,249.661 199.010 C 247.188 196.443,239.431 195.397,234.861 197.013 M245.599 198.450 C 250.659 199.855,250.653 199.806,250.513 234.101 C 250.385 265.619,250.460 264.787,247.560 266.808 C 243.476 269.655,234.858 269.097,232.470 265.831 C 231.692 264.766,231.671 264.025,231.567 234.063 L 231.460 203.385 232.363 201.593 C 234.002 198.342,240.044 196.907,245.599 198.450 M155.714 216.723 C 153.742 217.319,152.270 218.448,151.332 220.084 L 150.398 221.713 150.285 242.137 C 150.139 268.517,150.223 268.790,158.948 270.144 C 166.062 271.248,171.106 268.646,172.110 263.357 C 172.816 259.632,172.630 224.852,171.890 222.361 C 170.404 217.354,162.613 214.639,155.714 216.723 M167.331 218.947 C 168.098 219.395,169.173 220.559,169.721 221.534 L 170.717 223.307 170.844 241.235 C 171.014 265.154,170.947 265.607,166.944 267.629 C 163.722 269.257,156.394 268.711,154.101 266.671 C 151.829 264.651,151.811 264.469,151.802 242.915 C 151.792 221.649,151.810 221.448,153.828 219.567 C 155.828 217.704,164.522 217.305,167.331 218.947 M399.344 369.755 C 399.092 370.065,397.707 372.702,396.266 375.615 C 391.425 385.398,386.885 389.792,375.428 395.784 C 371.970 397.592,371.439 398.406,373.718 398.406 C 374.587 398.406,375.299 398.225,375.299 398.003 C 375.299 397.781,376.262 397.174,377.439 396.653 C 385.804 392.954,394.927 383.851,398.067 376.072 C 398.548 374.880,399.191 373.609,399.496 373.248 C 399.834 372.847,400.001 371.929,399.925 370.891 C 399.826 369.539,399.707 369.306,399.344 369.755 " stroke="none" fill="#acbaec" fill-rule="evenodd"></path></g></svg>