<?xml version="1.0" encoding="UTF-8" standalone="no"?>

<svg id="svg" version="1.1" xmlns="http://www.w3.org/2000/svg" xmlns:xlink="http://www.w3.org/1999/xlink" width="400" height="398.11320754716985" viewBox="0, 0, 400,398.11320754716985"><g id="svgg"><path id="path0" d="M0.000 11.835 L 0.000 23.670 1.693 20.297 C 7.829 8.074,18.047 1.111,30.876 0.408 C 34.444 0.212,30.445 0.105,18.028 0.062 L 0.000 0.000 0.000 11.835 M365.139 0.432 C 379.069 1.244,390.542 9.609,395.554 22.607 C 397.965 28.859,397.809 16.525,397.809 200.598 L 397.809 369.920 396.924 373.390 C 394.159 384.228,385.022 394.491,374.900 398.129 C 374.572 398.247,380.085 398.358,387.151 398.375 L 400.000 398.406 400.000 199.203 L 400.000 0.000 379.980 0.065 C 365.958 0.110,361.512 0.220,365.139 0.432 M92.829 83.306 C 86.652 84.512,82.448 88.889,81.252 95.360 C 80.525 99.292,80.931 130.890,81.735 132.990 C 83.213 136.847,85.863 139.454,90.021 141.137 L 92.231 142.032 196.414 142.145 C 270.161 142.226,301.341 142.132,303.143 141.825 C 307.983 141.001,311.907 138.248,313.833 134.327 L 314.940 132.072 314.940 112.948 L 314.940 93.825 313.880 91.564 C 311.828 87.185,308.177 84.347,303.267 83.313 C 300.673 82.767,95.625 82.760,92.829 83.306 M299.871 97.048 C 302.156 98.740,302.191 98.987,302.191 113.546 C 302.191 128.541,302.128 128.896,299.190 130.378 C 297.131 131.416,204.717 131.461,202.533 130.424 C 199.899 129.175,199.815 128.720,199.675 114.940 C 199.530 100.643,199.619 99.664,201.241 97.817 C 202.853 95.982,198.824 96.114,251.465 96.167 L 298.747 96.215 299.871 97.048 M90.552 171.492 C 81.827 174.229,81.076 176.505,81.076 200.199 C 81.076 222.354,81.353 223.567,87.256 227.294 C 91.357 229.883,82.067 229.669,196.016 229.799 C 315.487 229.936,306.393 230.298,311.490 225.201 C 315.142 221.549,315.189 221.209,315.055 199.355 C 314.916 176.800,314.648 175.812,307.687 172.285 L 305.378 171.116 198.805 171.041 C 111.415 170.979,91.929 171.061,90.552 171.492 M299.495 182.576 C 302.155 184.030,302.191 184.264,302.191 200.000 C 302.191 215.856,302.103 216.421,299.411 217.698 C 297.409 218.648,169.927 218.659,168.090 217.710 C 165.369 216.303,165.342 216.129,165.340 200.259 C 165.338 182.830,165.346 182.803,170.299 182.063 C 175.163 181.338,298.122 181.826,299.495 182.576 M91.309 258.788 C 86.972 259.959,84.026 262.434,82.112 266.516 L 81.076 268.725 81.076 286.853 C 81.076 310.829,81.707 312.753,90.776 316.420 L 93.028 317.331 196.414 317.440 C 306.273 317.557,303.224 317.609,307.434 315.537 C 314.554 312.031,314.940 310.575,314.940 287.251 L 314.940 268.327 314.003 266.254 C 312.755 263.496,309.584 260.541,306.564 259.325 L 304.183 258.367 198.805 258.291 C 108.331 258.227,93.127 258.297,91.309 258.788 M299.871 270.753 C 302.153 272.442,302.191 272.710,302.191 287.052 C 302.191 298.880,302.120 300.329,301.486 301.490 C 299.927 304.342,301.855 304.171,269.908 304.295 C 238.200 304.419,238.800 304.461,237.152 302.012 L 236.226 300.637 236.340 286.615 C 236.467 271.036,236.375 271.551,239.243 270.276 C 241.559 269.246,298.440 269.694,299.871 270.753 M0.031 387.351 L 0.000 398.406 10.849 398.406 L 21.698 398.406 18.584 396.842 C 10.709 392.886,3.250 385.069,0.728 378.129 C 0.076 376.334,0.061 376.533,0.031 387.351 " stroke="none" fill="#fbfbfb" fill-rule="evenodd"></path><path id="path1" d="M32.271 4.235 C 17.325 6.376,10.931 11.252,3.540 26.148 C 2.141 28.968,0.772 31.418,0.498 31.594 C -0.141 32.002,-0.245 368.526,0.394 368.526 C 0.610 368.526,1.975 370.949,3.426 373.912 C 8.974 385.233,12.220 388.581,23.506 394.620 C 26.245 396.085,28.685 397.537,28.928 397.846 C 29.307 398.326,53.490 398.406,197.979 398.406 L 366.587 398.406 367.855 397.461 C 368.553 396.941,370.904 395.582,373.079 394.440 C 385.219 388.067,390.989 381.142,393.003 370.527 C 393.959 365.487,393.953 34.893,392.997 29.825 C 390.349 15.791,379.795 6.223,364.951 4.399 C 361.824 4.015,34.933 3.854,32.271 4.235 M307.665 80.007 C 312.708 82.044,316.553 85.961,318.350 90.890 C 319.434 93.865,320.054 125.654,319.142 131.531 C 317.966 139.107,312.160 144.626,303.859 146.059 C 298.573 146.971,93.119 146.679,90.174 145.756 C 83.641 143.706,78.954 139.220,77.495 133.622 C 76.633 130.311,76.613 95.708,77.471 92.483 C 79.191 86.022,83.915 81.180,90.140 79.498 C 91.924 79.016,107.884 78.944,198.805 79.008 L 305.378 79.084 307.665 80.007 M204.793 101.470 C 203.973 102.512,203.953 102.848,204.067 113.856 L 204.183 125.171 205.130 125.937 C 206.553 127.088,295.941 126.938,297.097 125.783 C 298.225 124.656,298.182 102.489,297.050 101.238 L 296.291 100.398 250.963 100.398 L 205.636 100.398 204.793 101.470 M306.802 167.225 C 313.592 169.535,317.869 174.261,319.115 180.833 C 319.773 184.301,319.634 216.735,318.948 219.973 C 317.498 226.813,312.587 231.642,305.179 233.511 C 301.289 234.492,93.456 234.319,90.256 233.331 C 83.426 231.224,79.544 227.572,77.643 221.464 C 76.670 218.339,76.494 183.000,77.434 179.482 C 79.411 172.080,85.292 167.324,93.426 166.546 C 95.179 166.379,143.317 166.263,200.398 166.288 L 304.183 166.335 306.802 167.225 M170.341 187.340 C 169.268 188.872,169.427 212.056,170.518 213.147 C 171.744 214.373,295.354 214.408,296.868 213.183 L 297.809 212.422 297.933 201.331 C 298.002 195.230,297.950 189.662,297.818 188.957 C 297.309 186.237,302.889 186.454,233.659 186.454 L 170.962 186.454 170.341 187.340 M307.171 254.919 C 312.476 256.833,317.071 261.230,318.586 265.841 C 319.441 268.446,319.890 299.836,319.150 305.343 C 318.071 313.373,312.522 319.482,304.861 321.075 C 302.007 321.668,94.714 321.700,91.590 321.107 C 84.576 319.777,78.777 314.141,77.335 307.251 C 76.658 304.019,76.745 269.802,77.438 266.859 C 78.440 262.600,82.439 257.854,86.650 255.927 C 91.450 253.729,85.336 253.838,199.203 253.914 L 304.582 253.984 307.171 254.919 M241.036 274.900 C 240.276 275.660,240.239 276.224,240.245 286.952 C 240.251 298.620,240.271 298.786,241.707 299.542 C 243.438 300.453,295.723 300.165,296.868 299.239 L 297.809 298.477 297.809 287.052 L 297.809 275.627 296.868 274.865 C 295.363 273.647,242.256 273.680,241.036 274.900 " stroke="none" fill="#6c9cdc" fill-rule="evenodd"></path><path id="path2" d="M29.283 1.594 C 18.540 2.554,4.512 13.678,1.518 23.610 C 1.270 24.435,0.826 25.308,0.533 25.552 C -0.068 26.051,-0.194 27.490,0.364 27.490 C 0.565 27.490,1.453 26.011,2.339 24.203 C 8.684 11.252,18.078 3.944,30.363 2.404 C 34.889 1.836,361.480 1.830,366.005 2.398 C 379.762 4.123,391.355 14.591,394.674 28.287 C 395.680 32.439,396.042 362.628,395.047 369.253 C 393.235 381.327,385.266 391.254,373.045 396.658 C 370.956 397.582,370.266 398.406,371.582 398.406 C 371.948 398.406,372.531 398.163,372.877 397.865 C 373.223 397.568,374.074 397.134,374.769 396.901 C 377.150 396.104,383.467 391.504,386.881 388.083 C 391.986 382.967,394.464 378.244,395.855 370.981 C 396.705 366.540,396.693 33.798,395.843 29.353 C 393.018 14.592,380.609 2.917,366.335 1.592 C 361.659 1.158,34.142 1.160,29.283 1.594 M91.235 81.117 C 86.043 82.507,82.813 85.033,80.684 89.369 C 78.531 93.751,78.428 94.978,78.563 114.654 L 78.685 132.470 79.950 135.140 C 82.187 139.862,86.608 143.194,91.988 144.215 C 95.166 144.817,301.631 144.775,304.462 144.171 C 309.736 143.046,313.835 139.987,316.024 135.540 L 317.331 132.885 317.331 112.957 L 317.331 93.028 316.062 90.349 C 313.685 85.331,309.270 81.857,304.029 80.879 C 300.197 80.163,93.934 80.395,91.235 81.117 M301.853 81.654 C 307.935 82.354,312.276 85.157,314.693 89.945 C 316.674 93.869,316.800 95.441,316.661 114.542 L 316.534 132.072 315.378 134.575 C 313.168 139.361,308.769 142.428,302.704 143.412 C 299.363 143.954,97.824 143.957,93.647 143.415 C 88.001 142.682,83.684 139.883,81.235 135.366 L 79.880 132.869 79.880 113.147 L 79.880 93.426 81.245 90.514 C 83.669 85.343,87.904 82.418,94.024 81.688 C 97.824 81.235,297.926 81.203,301.853 81.654 M203.785 97.986 C 201.375 98.973,201.394 98.846,201.394 113.579 L 201.394 127.074 202.499 128.178 L 203.604 129.283 250.369 129.387 C 279.800 129.453,297.510 129.349,298.148 129.106 C 300.532 128.200,300.598 127.781,300.598 113.546 C 300.598 99.322,300.530 98.891,298.160 97.990 C 296.922 97.519,204.935 97.516,203.785 97.986 M297.201 98.927 C 299.523 99.725,299.589 100.126,299.596 113.466 C 299.602 126.193,299.462 127.292,297.724 128.139 C 296.902 128.539,209.649 128.858,206.421 128.472 C 204.932 128.295,203.987 127.928,203.333 127.274 L 202.390 126.331 202.390 113.653 C 202.390 99.645,202.403 99.569,204.898 98.847 C 206.928 98.260,295.483 98.337,297.201 98.927 M92.629 168.406 C 86.612 169.205,81.841 172.874,79.595 178.428 C 78.169 181.954,78.170 218.447,79.596 221.974 C 82.163 228.323,87.016 231.380,95.962 232.286 C 104.087 233.107,301.624 232.603,304.744 231.752 C 310.297 230.237,314.198 227.201,316.271 222.779 L 317.331 220.518 317.331 200.199 L 317.331 179.880 316.186 177.401 C 314.139 172.972,309.997 169.796,304.838 168.702 C 302.349 168.175,96.535 167.887,92.629 168.406 M305.484 169.890 C 309.949 171.079,313.312 173.879,315.290 178.052 L 316.534 180.677 316.534 200.000 L 316.534 219.323 315.575 221.703 C 313.550 226.732,308.636 230.183,302.262 231.050 C 297.111 231.751,97.110 231.606,93.142 230.898 C 87.184 229.836,83.390 227.265,81.192 222.800 L 79.880 220.136 79.880 200.208 L 79.880 180.279 80.997 177.888 C 82.876 173.865,86.173 171.113,90.512 169.945 C 93.661 169.098,302.306 169.045,305.484 169.890 M169.846 183.703 C 166.922 184.556,166.932 184.499,166.932 200.231 L 166.932 214.298 167.853 215.368 C 169.325 217.079,169.487 217.084,233.865 217.090 C 297.516 217.097,297.833 217.089,299.547 215.375 L 300.598 214.326 300.733 201.685 C 300.885 187.545,300.658 185.399,298.883 184.195 C 297.670 183.372,172.614 182.895,169.846 183.703 M298.495 185.569 L 299.402 186.476 299.402 200.199 L 299.402 213.922 298.495 214.830 L 297.588 215.737 234.450 215.841 C 164.157 215.958,168.953 216.143,168.157 213.279 C 167.463 210.779,167.591 188.353,168.309 186.634 C 169.233 184.424,166.663 184.504,234.152 184.585 L 297.587 184.661 298.495 185.569 M94.422 255.791 C 86.935 256.480,81.829 260.074,79.444 266.335 C 78.309 269.315,78.277 305.004,79.406 308.242 C 81.181 313.331,84.680 316.877,89.841 318.821 L 92.231 319.721 196.414 319.831 C 262.503 319.900,301.521 319.799,303.123 319.553 C 308.839 318.676,313.371 315.423,315.843 310.423 L 317.331 307.414 317.448 288.333 C 317.590 265.326,317.620 265.518,313.177 260.824 C 311.234 258.771,309.112 257.514,305.578 256.322 C 303.236 255.533,102.712 255.028,94.422 255.791 M306.574 257.682 C 311.505 259.556,314.900 263.194,316.119 267.912 C 317.009 271.356,317.025 303.093,316.139 306.497 C 314.792 311.668,311.450 315.677,306.921 317.555 L 304.582 318.526 199.019 318.629 C 103.311 318.723,93.250 318.673,91.250 318.096 C 86.224 316.646,83.304 314.198,81.131 309.611 L 79.880 306.972 79.880 287.251 L 79.880 267.530 81.047 265.227 C 82.362 262.632,85.106 259.863,87.648 258.566 C 91.606 256.547,86.809 256.628,199.203 256.703 L 304.183 256.773 306.574 257.682 M238.951 272.477 L 237.649 273.640 237.649 287.010 L 237.649 300.380 238.754 301.485 L 239.858 302.590 268.037 302.709 C 298.126 302.837,298.651 302.807,299.902 300.898 C 300.978 299.256,300.958 274.819,299.880 273.172 C 298.667 271.322,298.553 271.315,268.705 271.315 L 240.252 271.315 238.951 272.477 M297.201 272.632 C 299.519 273.429,299.589 273.848,299.596 286.972 C 299.602 299.398,299.437 300.715,297.791 301.346 C 297.436 301.482,284.423 301.594,268.874 301.594 L 240.601 301.594 239.623 300.616 L 238.645 299.638 238.645 287.124 C 238.645 273.431,238.743 272.855,241.143 272.392 C 243.437 271.949,295.866 272.174,297.201 272.632 M0.000 373.482 C 0.000 374.043,0.165 374.502,0.366 374.502 C 0.568 374.502,1.019 375.363,1.368 376.415 C 3.687 383.397,15.925 395.697,21.846 396.997 C 22.510 397.143,23.266 397.520,23.527 397.834 C 24.088 398.510,25.682 398.627,25.271 397.963 C 25.120 397.719,24.168 397.155,23.156 396.709 C 14.610 392.950,6.621 385.077,2.365 376.219 C 0.653 372.656,0.000 371.901,0.000 373.482 " stroke="none" fill="#b3ccec" fill-rule="evenodd"></path><path id="path3" d="M29.834 2.433 C 18.113 3.947,8.555 11.514,2.339 24.203 C 1.453 26.011,0.565 27.490,0.364 27.490 C 0.164 27.490,-0.000 28.470,-0.000 29.669 C -0.000 32.726,0.606 32.251,2.933 27.370 C 9.562 13.462,15.693 7.826,27.382 4.892 C 30.719 4.054,357.328 3.563,364.610 4.384 C 379.648 6.081,390.321 15.646,392.997 29.825 C 393.953 34.893,393.959 365.487,393.003 370.527 C 390.965 381.268,384.840 388.483,372.361 394.841 C 370.454 395.813,368.408 397.006,367.813 397.493 L 366.733 398.378 368.825 398.392 C 369.980 398.400,370.916 398.226,370.916 398.003 C 370.916 397.781,371.874 397.176,373.045 396.658 C 385.266 391.254,393.235 381.327,395.047 369.253 C 396.042 362.628,395.680 32.439,394.674 28.287 C 391.355 14.591,379.762 4.123,366.005 2.398 C 361.990 1.894,33.740 1.929,29.834 2.433 M90.140 79.498 C 83.915 81.180,79.191 86.022,77.471 92.483 C 76.613 95.708,76.633 130.311,77.495 133.622 C 78.954 139.220,83.641 143.706,90.174 145.756 C 93.119 146.679,298.573 146.971,303.859 146.059 C 312.160 144.626,317.966 139.107,319.142 131.531 C 320.054 125.654,319.434 93.865,318.350 90.890 C 316.553 85.961,312.708 82.044,307.665 80.007 L 305.378 79.084 198.805 79.008 C 107.884 78.944,91.924 79.016,90.140 79.498 M304.029 80.879 C 309.270 81.857,313.685 85.331,316.062 90.349 L 317.331 93.028 317.331 112.957 L 317.331 132.885 316.024 135.540 C 313.835 139.987,309.736 143.046,304.462 144.171 C 301.631 144.775,95.166 144.817,91.988 144.215 C 86.608 143.194,82.187 139.862,79.950 135.140 L 78.685 132.470 78.563 114.654 C 78.428 94.978,78.531 93.751,80.684 89.369 C 82.813 85.033,86.043 82.507,91.235 81.117 C 93.934 80.395,300.197 80.163,304.029 80.879 M204.898 98.847 C 202.403 99.569,202.390 99.645,202.390 113.653 L 202.390 126.331 203.333 127.274 C 203.987 127.928,204.932 128.295,206.421 128.472 C 209.649 128.858,296.902 128.539,297.724 128.139 C 299.462 127.292,299.602 126.193,299.596 113.466 C 299.589 100.126,299.523 99.725,297.201 98.927 C 295.483 98.337,206.928 98.260,204.898 98.847 M297.050 101.238 C 298.182 102.489,298.225 124.656,297.097 125.783 C 295.941 126.938,206.553 127.088,205.130 125.937 L 204.183 125.171 204.067 113.856 C 203.953 102.848,203.973 102.512,204.793 101.470 L 205.636 100.398 250.963 100.398 L 296.291 100.398 297.050 101.238 M93.426 166.546 C 85.292 167.324,79.411 172.080,77.434 179.482 C 76.494 183.000,76.670 218.339,77.643 221.464 C 79.544 227.572,83.426 231.224,90.256 233.331 C 93.456 234.319,301.289 234.492,305.179 233.511 C 312.587 231.642,317.498 226.813,318.948 219.973 C 319.634 216.735,319.773 184.301,319.115 180.833 C 317.869 174.261,313.592 169.535,306.802 167.225 L 304.183 166.335 200.398 166.288 C 143.317 166.263,95.179 166.379,93.426 166.546 M304.838 168.702 C 309.997 169.796,314.139 172.972,316.186 177.401 L 317.331 179.880 317.331 200.199 L 317.331 220.518 316.271 222.779 C 314.198 227.201,310.297 230.237,304.744 231.752 C 301.624 232.603,104.087 233.107,95.962 232.286 C 87.016 231.380,82.163 228.323,79.596 221.974 C 78.170 218.447,78.169 181.954,79.595 178.428 C 81.841 172.874,86.612 169.205,92.629 168.406 C 96.535 167.887,302.349 168.175,304.838 168.702 M169.803 184.878 C 167.929 185.633,167.729 187.087,167.731 199.888 C 167.733 207.041,167.902 212.359,168.157 213.279 C 168.953 216.143,164.157 215.958,234.450 215.841 L 297.588 215.737 298.495 214.830 L 299.402 213.922 299.402 200.199 L 299.402 186.476 298.495 185.569 L 297.587 184.661 234.152 184.585 C 195.990 184.539,170.353 184.656,169.803 184.878 M296.968 187.065 C 297.956 188.052,298.064 189.657,297.933 201.331 L 297.809 212.422 296.868 213.183 C 295.354 214.408,171.744 214.373,170.518 213.147 C 169.427 212.056,169.268 188.872,170.341 187.340 L 170.962 186.454 233.659 186.454 C 289.444 186.454,296.425 186.521,296.968 187.065 M91.318 254.390 C 84.385 255.902,78.845 260.878,77.438 266.859 C 76.745 269.802,76.658 304.019,77.335 307.251 C 78.777 314.141,84.576 319.777,91.590 321.107 C 94.714 321.700,302.007 321.668,304.861 321.075 C 312.522 319.482,318.071 313.373,319.150 305.343 C 319.890 299.836,319.441 268.446,318.586 265.841 C 317.071 261.230,312.476 256.833,307.171 254.919 L 304.582 253.984 199.203 253.914 C 111.202 253.855,93.411 253.934,91.318 254.390 M305.578 256.322 C 309.112 257.514,311.234 258.771,313.177 260.824 C 317.620 265.518,317.590 265.326,317.448 288.333 L 317.331 307.414 315.843 310.423 C 313.371 315.423,308.839 318.676,303.123 319.553 C 301.521 319.799,262.503 319.900,196.414 319.831 L 92.231 319.721 89.841 318.821 C 84.680 316.877,81.181 313.331,79.406 308.242 C 78.277 305.004,78.309 269.315,79.444 266.335 C 81.829 260.074,86.935 256.480,94.422 255.791 C 102.712 255.028,303.236 255.533,305.578 256.322 M241.143 272.392 C 238.743 272.855,238.645 273.431,238.645 287.124 L 238.645 299.638 239.623 300.616 L 240.601 301.594 268.874 301.594 C 284.423 301.594,297.436 301.482,297.791 301.346 C 299.437 300.715,299.602 299.398,299.596 286.972 C 299.589 273.848,299.519 273.429,297.201 272.632 C 295.866 272.174,243.437 271.949,241.143 272.392 M296.868 274.865 L 297.809 275.627 297.809 287.052 L 297.809 298.477 296.868 299.239 C 295.723 300.165,243.438 300.453,241.707 299.542 C 240.271 298.786,240.251 298.620,240.245 286.952 C 240.239 276.224,240.276 275.660,241.036 274.900 C 242.256 273.680,295.363 273.647,296.868 274.865 M0.000 370.494 C 0.000 371.577,0.179 372.574,0.398 372.709 C 0.617 372.844,1.502 374.424,2.365 376.219 C 6.621 385.077,14.610 392.950,23.156 396.709 C 24.168 397.155,25.120 397.719,25.271 397.963 C 25.637 398.555,29.200 398.555,29.002 397.963 C 28.921 397.719,26.530 396.268,23.690 394.738 C 12.161 388.527,8.993 385.271,3.426 373.912 C 0.555 368.052,0.000 367.498,0.000 370.494 " stroke="none" fill="#8cb4e4" fill-rule="evenodd"></path><path id="path4" d="M30.876 0.403 C 20.366 0.989,12.483 5.167,5.944 13.619 C 3.036 17.377,-0.000 23.105,0.000 24.832 C 0.000 26.397,0.895 25.677,1.518 23.610 C 3.986 15.425,14.061 6.176,24.502 2.513 L 27.689 1.394 194.422 1.282 C 302.308 1.209,362.772 1.308,365.737 1.564 C 380.558 2.843,392.961 14.290,395.843 29.353 C 396.693 33.798,396.705 366.540,395.855 370.981 C 394.464 378.244,391.986 382.967,386.881 388.083 C 383.461 391.511,377.139 396.111,374.769 396.897 C 372.638 397.604,371.976 398.557,373.806 398.282 C 382.618 396.960,394.052 384.648,396.924 373.390 L 397.809 369.920 397.809 200.598 C 397.809 16.525,397.965 28.859,395.554 22.607 C 391.451 11.969,382.134 3.810,370.717 0.861 C 368.138 0.195,42.485 -0.244,30.876 0.403 M94.024 81.688 C 87.904 82.418,83.669 85.343,81.245 90.514 L 79.880 93.426 79.880 113.147 L 79.880 132.869 81.235 135.366 C 83.684 139.883,88.001 142.682,93.647 143.415 C 97.824 143.957,299.363 143.954,302.704 143.412 C 308.769 142.428,313.168 139.361,315.378 134.575 L 316.534 132.072 316.661 114.542 C 316.800 95.441,316.674 93.869,314.693 89.945 C 312.276 85.157,307.935 82.354,301.853 81.654 C 297.926 81.203,97.824 81.235,94.024 81.688 M303.267 83.313 C 308.177 84.347,311.828 87.185,313.880 91.564 L 314.940 93.825 314.940 112.948 L 314.940 132.072 313.833 134.327 C 311.907 138.248,307.983 141.001,303.143 141.825 C 301.341 142.132,270.161 142.226,196.414 142.145 L 92.231 142.032 90.021 141.137 C 85.863 139.454,83.213 136.847,81.735 132.990 C 80.931 130.890,80.525 99.292,81.252 95.360 C 82.448 88.889,86.652 84.512,92.829 83.306 C 95.625 82.760,300.673 82.767,303.267 83.313 M203.306 96.292 C 199.949 96.952,199.515 99.182,199.675 114.940 C 199.815 128.720,199.899 129.175,202.533 130.424 C 204.717 131.461,297.131 131.416,299.190 130.378 C 302.128 128.896,302.191 128.541,302.191 113.546 C 302.191 98.987,302.156 98.740,299.871 97.048 L 298.747 96.215 251.465 96.167 C 225.460 96.141,203.788 96.197,203.306 96.292 M298.160 97.990 C 300.530 98.891,300.598 99.322,300.598 113.546 C 300.598 127.781,300.532 128.200,298.148 129.106 C 297.510 129.349,279.800 129.453,250.369 129.387 L 203.604 129.283 202.499 128.178 L 201.394 127.074 201.394 113.579 C 201.394 98.846,201.375 98.973,203.785 97.986 C 204.935 97.516,296.922 97.519,298.160 97.990 M90.512 169.945 C 86.173 171.113,82.876 173.865,80.997 177.888 L 79.880 180.279 79.880 200.208 L 79.880 220.136 81.192 222.800 C 83.390 227.265,87.184 229.836,93.142 230.898 C 97.110 231.606,297.111 231.751,302.262 231.050 C 308.636 230.183,313.550 226.732,315.575 221.703 L 316.534 219.323 316.534 200.000 L 316.534 180.677 315.290 178.052 C 313.312 173.879,309.949 171.079,305.484 169.890 C 302.306 169.045,93.661 169.098,90.512 169.945 M307.687 172.285 C 314.648 175.812,314.916 176.800,315.055 199.355 C 315.189 221.209,315.142 221.549,311.490 225.201 C 306.393 230.298,315.487 229.936,196.016 229.799 C 82.067 229.669,91.357 229.883,87.256 227.294 C 81.353 223.567,81.076 222.354,81.076 200.199 C 81.076 178.034,81.443 176.373,87.076 173.072 C 90.905 170.828,83.675 170.960,198.805 171.041 L 305.378 171.116 307.687 172.285 M170.299 182.063 C 165.346 182.803,165.338 182.830,165.340 200.259 C 165.342 216.129,165.369 216.303,168.090 217.710 C 169.927 218.659,297.409 218.648,299.411 217.698 C 302.103 216.421,302.191 215.856,302.191 200.000 C 302.191 184.264,302.155 184.030,299.495 182.576 C 298.122 181.826,175.163 181.338,170.299 182.063 M298.883 184.195 C 300.658 185.399,300.885 187.545,300.733 201.685 L 300.598 214.326 299.547 215.375 C 297.833 217.089,297.516 217.097,233.865 217.090 C 169.487 217.084,169.325 217.079,167.853 215.368 L 166.932 214.298 166.932 200.231 C 166.932 184.499,166.922 184.556,169.846 183.703 C 172.614 182.895,297.670 183.372,298.883 184.195 M91.788 257.164 C 87.000 258.210,83.131 261.115,81.047 265.227 L 79.880 267.530 79.880 287.251 L 79.880 306.972 81.131 309.611 C 83.304 314.198,86.224 316.646,91.250 318.096 C 93.250 318.673,103.311 318.723,199.019 318.629 L 304.582 318.526 306.921 317.555 C 311.450 315.677,314.792 311.668,316.139 306.497 C 317.025 303.093,317.009 271.356,316.119 267.912 C 314.900 263.194,311.505 259.556,306.574 257.682 L 304.183 256.773 199.203 256.703 C 112.936 256.645,93.789 256.727,91.788 257.164 M306.564 259.325 C 309.584 260.541,312.755 263.496,314.003 266.254 L 314.940 268.327 314.940 287.251 C 314.940 310.575,314.554 312.031,307.434 315.537 C 303.224 317.609,306.273 317.557,196.414 317.440 L 93.028 317.331 90.776 316.420 C 81.707 312.753,81.076 310.829,81.076 286.853 L 81.076 268.725 82.112 266.516 C 83.410 263.749,85.184 261.708,87.441 260.385 C 91.383 258.075,84.213 258.209,198.805 258.291 L 304.183 258.367 306.564 259.325 M239.243 270.276 C 236.375 271.551,236.467 271.036,236.340 286.615 L 236.226 300.637 237.152 302.012 C 238.800 304.461,238.200 304.419,269.908 304.295 C 301.855 304.171,299.927 304.342,301.486 301.490 C 302.471 299.687,302.565 274.630,301.594 272.745 C 300.041 269.733,302.216 269.931,269.592 269.832 C 246.001 269.761,240.210 269.846,239.243 270.276 M298.160 271.695 C 300.526 272.595,300.598 273.048,300.598 287.052 C 300.598 301.446,300.576 301.561,297.711 302.394 C 296.675 302.695,287.557 302.792,268.037 302.709 L 239.858 302.590 238.754 301.485 L 237.649 300.380 237.649 287.010 L 237.649 273.640 238.951 272.477 L 240.252 271.315 268.705 271.315 C 285.824 271.315,297.558 271.466,298.160 271.695 M0.000 375.228 C 0.000 382.420,15.794 398.406,22.899 398.406 C 24.363 398.406,23.597 397.382,21.846 396.997 C 15.925 395.697,3.687 383.397,1.368 376.415 C 0.732 374.499,0.000 373.864,0.000 375.228 " stroke="none" fill="#c4d4f4" fill-rule="evenodd"></path></g></svg>